<?xml version="1.0" encoding="utf-8"?>
<!-- Generator: Adobe Illustrator 16.0.4, SVG Export Plug-In . SVG Version: 6.00 Build 0)  -->
<!DOCTYPE svg PUBLIC "-//W3C//DTD SVG 1.1//EN" "http://www.w3.org/Graphics/SVG/1.1/DTD/svg11.dtd">
<svg version="1.1" id="Layer_1" xmlns="http://www.w3.org/2000/svg" xmlns:xlink="http://www.w3.org/1999/xlink" x="0px" y="0px"
	 width="668.999px" height="107.333px" viewBox="0 0 668.999 107.333" enable-background="new 0 0 668.999 107.333"
	 xml:space="preserve">
<path fill="#F48043" d="M18.894,25.025h1.956c2.115,1.41,3.172,3.05,3.172,4.919c-0.563,1.939-1.621,3.331-3.172,4.178h-1.956
	c-2.117-1.375-3.174-2.996-3.174-4.865C16.32,27.318,17.377,25.906,18.894,25.025z M18.894,36.236h1.956
	c2.115,1.41,3.172,3.05,3.172,4.919c-0.563,1.904-1.621,3.296-3.172,4.178h-1.956c-2.117-1.41-3.174-3.051-3.174-4.919
	C16.32,38.51,17.377,37.117,18.894,36.236z M18.894,47.448h1.956c2.115,1.375,3.172,2.996,3.172,4.865
	c-0.563,1.938-1.621,3.351-3.172,4.231h-1.956c-2.117-1.412-3.174-3.05-3.174-4.919C16.32,49.721,17.377,48.329,18.894,47.448z
	 M18.894,58.661h1.956c2.115,1.375,3.172,2.994,3.172,4.865c-0.563,1.937-1.621,3.346-3.172,4.229h-1.956
	c-2.117-1.41-3.174-3.05-3.174-4.917C16.32,60.898,17.377,59.505,18.894,58.661z M18.894,69.818h1.956
	c2.115,1.41,3.172,3.046,3.172,4.917c-0.563,1.906-1.621,3.298-3.172,4.177h-1.956c-2.117-1.375-3.174-2.994-3.174-4.865
	C16.32,72.107,17.377,70.697,18.894,69.818z M28.517,13.868h1.904c2.152,1.375,3.227,2.996,3.227,4.865
	c-0.601,1.938-1.675,3.348-3.227,4.229h-1.904c-2.149-1.41-3.224-3.048-3.224-4.917C25.891,16.106,26.966,14.714,28.517,13.868z
	 M28.517,81.027h1.904c2.152,1.41,3.227,3.05,3.227,4.917c-0.601,1.906-1.675,3.298-3.227,4.177h-1.904
	c-2.149-1.41-3.224-3.046-3.224-4.917C25.891,83.299,26.966,81.906,28.517,81.027z M38.09,13.868h1.956
	c2.115,1.375,3.172,2.996,3.172,4.865c-0.598,1.938-1.656,3.348-3.172,4.229H38.09c-2.117-1.41-3.174-3.048-3.174-4.917
	C35.517,16.106,36.574,14.714,38.09,13.868z M38.09,47.448h1.956c2.115,1.375,3.172,2.996,3.172,4.865
	c-0.598,1.938-1.656,3.351-3.172,4.231H38.09c-2.117-1.412-3.174-3.05-3.174-4.919C35.517,49.721,36.574,48.329,38.09,47.448z
	 M38.09,81.027h1.956c2.115,1.41,3.172,3.05,3.172,4.917c-0.598,1.906-1.656,3.298-3.172,4.177H38.09
	c-2.117-1.41-3.174-3.046-3.174-4.917C35.517,83.299,36.574,81.906,38.09,81.027z M47.713,13.868h1.904
	c2.152,1.375,3.227,2.996,3.227,4.865c-0.601,1.938-1.675,3.348-3.227,4.229h-1.904c-2.149-1.41-3.225-3.048-3.225-4.917
	C45.087,16.106,46.162,14.714,47.713,13.868z M47.713,47.448h1.904c2.152,1.375,3.227,2.996,3.227,4.865
	c-0.601,1.938-1.675,3.351-3.227,4.231h-1.904c-2.149-1.412-3.225-3.05-3.225-4.919C45.087,49.721,46.162,48.329,47.713,47.448z
	 M47.713,81.027h1.904c2.152,1.41,3.227,3.05,3.227,4.917c-0.601,1.906-1.675,3.298-3.227,4.177h-1.904
	c-2.149-1.41-3.225-3.046-3.225-4.917C45.087,83.299,46.162,81.906,47.713,81.027z M57.287,25.025h1.956
	c2.115,1.41,3.172,3.05,3.172,4.919c-0.598,1.939-1.656,3.331-3.172,4.178h-1.956c-2.117-1.375-3.174-2.996-3.174-4.865
	C54.678,27.318,55.735,25.906,57.287,25.025z M57.287,47.448h1.956c2.115,1.375,3.172,2.996,3.172,4.865
	c-0.598,1.938-1.656,3.351-3.172,4.231h-1.956c-2.117-1.412-3.174-3.05-3.174-4.919C54.678,49.721,55.735,48.329,57.287,47.448z
	 M57.287,58.661h1.956c2.115,1.375,3.172,2.994,3.172,4.865c-0.598,1.937-1.656,3.346-3.172,4.229h-1.956
	c-2.117-1.41-3.174-3.05-3.174-4.917C54.678,60.898,55.735,59.505,57.287,58.661z M57.287,69.818h1.956
	c2.115,1.41,3.172,3.046,3.172,4.917c-0.598,1.906-1.656,3.298-3.172,4.177h-1.956c-2.117-1.375-3.174-2.994-3.174-4.865
	C54.678,72.107,55.735,70.697,57.287,69.818z"/>
<path fill="#F48043" d="M76.165,25.025h1.956c2.115,1.41,3.174,3.05,3.174,4.919c-0.566,1.939-1.623,3.331-3.174,4.178h-1.956
	c-2.115-1.375-3.174-2.996-3.174-4.865C73.591,27.318,74.648,25.906,76.165,25.025z M76.165,36.236h1.956
	c2.115,1.41,3.174,3.05,3.174,4.919c-0.566,1.904-1.623,3.296-3.174,4.178h-1.956c-2.115-1.41-3.174-3.051-3.174-4.919
	C73.591,38.51,74.648,37.117,76.165,36.236z M76.165,47.448h1.956c2.115,1.375,3.174,2.996,3.174,4.865
	c-0.566,1.938-1.623,3.351-3.174,4.231h-1.956c-2.115-1.412-3.174-3.05-3.174-4.919C73.591,49.721,74.648,48.329,76.165,47.448z
	 M76.165,58.661h1.956c2.115,1.375,3.174,2.994,3.174,4.865c-0.566,1.937-1.623,3.346-3.174,4.229h-1.956
	c-2.115-1.41-3.174-3.05-3.174-4.917C73.591,60.898,74.648,59.505,76.165,58.661z M76.165,69.818h1.956
	c2.115,1.41,3.174,3.046,3.174,4.917c-0.566,1.906-1.623,3.298-3.174,4.177h-1.956c-2.115-1.375-3.174-2.994-3.174-4.865
	C73.591,72.107,74.648,70.697,76.165,69.818z M76.165,81.027h1.956c2.115,1.41,3.174,3.05,3.174,4.917
	c-0.566,1.906-1.623,3.298-3.174,4.177h-1.956c-2.115-1.41-3.174-3.046-3.174-4.917C73.591,83.299,74.648,81.906,76.165,81.027z
	 M85.79,13.868h1.904c2.15,1.375,3.225,2.996,3.225,4.865c-0.599,1.938-1.675,3.348-3.225,4.229H85.79
	c-2.151-1.41-3.227-3.048-3.227-4.917C83.162,16.106,84.239,14.714,85.79,13.868z M85.79,47.448h1.904
	c2.15,1.375,3.225,2.996,3.225,4.865c-0.599,1.938-1.675,3.351-3.225,4.231H85.79c-2.151-1.412-3.227-3.05-3.227-4.919
	C83.162,49.721,84.239,48.329,85.79,47.448z M95.361,13.868h1.956c2.115,1.375,3.174,2.996,3.174,4.865
	c-0.6,1.938-1.658,3.348-3.174,4.229h-1.956c-2.115-1.41-3.172-3.048-3.172-4.917C92.787,16.106,93.845,14.714,95.361,13.868z
	 M95.361,47.448h1.956c2.115,1.375,3.174,2.996,3.174,4.865c-0.6,1.938-1.658,3.351-3.174,4.231h-1.956
	c-2.115-1.412-3.172-3.05-3.172-4.919C92.787,49.721,93.845,48.329,95.361,47.448z M104.986,13.868h1.904
	c2.149,1.375,3.225,2.996,3.225,4.865c-0.599,1.938-1.673,3.348-3.225,4.229h-1.904c-2.152-1.41-3.227-3.048-3.227-4.917
	C102.358,16.106,103.435,14.714,104.986,13.868z M104.986,47.448h1.904c2.149,1.375,3.225,2.996,3.225,4.865
	c-0.599,1.938-1.673,3.351-3.225,4.231h-1.904c-2.152-1.412-3.227-3.05-3.227-4.919C102.358,49.721,103.435,48.329,104.986,47.448z
	 M114.557,25.025h1.956c2.115,1.41,3.174,3.05,3.174,4.919c-0.601,1.939-1.658,3.331-3.174,4.178h-1.956
	c-2.115-1.375-3.172-2.996-3.172-4.865C111.949,27.318,113.006,25.906,114.557,25.025z M114.557,36.236h1.956
	c2.115,1.41,3.174,3.05,3.174,4.919c-0.601,1.904-1.658,3.296-3.174,4.178h-1.956c-2.115-1.41-3.172-3.051-3.172-4.919
	C111.949,38.51,113.006,37.117,114.557,36.236z M114.557,47.448h1.956c2.115,1.375,3.174,2.996,3.174,4.865
	c-0.601,1.938-1.658,3.351-3.174,4.231h-1.956c-2.115-1.412-3.172-3.05-3.172-4.919C111.949,49.721,113.006,48.329,114.557,47.448z
	 M114.557,58.661h1.956c2.115,1.375,3.174,2.994,3.174,4.865c-0.601,1.937-1.658,3.346-3.174,4.229h-1.956
	c-2.115-1.41-3.172-3.05-3.172-4.917C111.949,60.898,113.006,59.505,114.557,58.661z M114.557,69.818h1.956
	c2.115,1.41,3.174,3.046,3.174,4.917c-0.601,1.906-1.658,3.298-3.174,4.177h-1.956c-2.115-1.375-3.172-2.994-3.172-4.865
	C111.949,72.107,113.006,70.697,114.557,69.818z M114.557,81.027h1.956c2.115,1.41,3.174,3.05,3.174,4.917
	c-0.601,1.906-1.658,3.298-3.174,4.177h-1.956c-2.115-1.41-3.172-3.046-3.172-4.917C111.949,83.299,113.006,81.906,114.557,81.027z"
	/>
<path fill="#F48043" d="M133.436,13.868h1.956c2.117,1.375,3.174,2.996,3.174,4.865c-0.563,1.938-1.623,3.348-3.174,4.229h-1.956
	c-2.115-1.41-3.172-3.048-3.172-4.917C130.862,16.106,131.919,14.714,133.436,13.868z M133.436,25.025h1.956
	c2.117,1.41,3.174,3.05,3.174,4.919c-0.563,1.939-1.623,3.331-3.174,4.178h-1.956c-2.115-1.375-3.172-2.996-3.172-4.865
	C130.862,27.318,131.919,25.906,133.436,25.025z M133.436,36.236h1.956c2.117,1.41,3.174,3.05,3.174,4.919
	c-0.563,1.904-1.623,3.296-3.174,4.178h-1.956c-2.115-1.41-3.172-3.051-3.172-4.919C130.862,38.51,131.919,37.117,133.436,36.236z
	 M133.436,47.448h1.956c2.117,1.375,3.174,2.996,3.174,4.865c-0.563,1.938-1.623,3.351-3.174,4.231h-1.956
	c-2.115-1.412-3.172-3.05-3.172-4.919C130.862,49.721,131.919,48.329,133.436,47.448z M133.436,58.661h1.956
	c2.117,1.375,3.174,2.994,3.174,4.865c-0.563,1.937-1.623,3.346-3.174,4.229h-1.956c-2.115-1.41-3.172-3.05-3.172-4.917
	C130.862,60.898,131.919,59.505,133.436,58.661z M133.436,69.818h1.956c2.117,1.41,3.174,3.046,3.174,4.917
	c-0.563,1.906-1.623,3.298-3.174,4.177h-1.956c-2.115-1.375-3.172-2.994-3.172-4.865C130.862,72.107,131.919,70.697,133.436,69.818z
	 M133.436,81.027h1.956c2.117,1.41,3.174,3.05,3.174,4.917c-0.563,1.906-1.623,3.298-3.174,4.177h-1.956
	c-2.115-1.41-3.172-3.046-3.172-4.917C130.862,83.299,131.919,81.906,133.436,81.027z M143.061,25.025h1.904
	c2.149,1.41,3.225,3.05,3.225,4.919c-0.599,1.939-1.673,3.331-3.225,4.178h-1.904c-2.152-1.375-3.227-2.996-3.227-4.865
	C140.435,27.318,141.51,25.906,143.061,25.025z M152.632,36.236h1.956c2.117,1.41,3.174,3.05,3.174,4.919
	c-0.601,1.904-1.658,3.296-3.174,4.178h-1.956c-2.115-1.41-3.172-3.051-3.172-4.919C150.058,38.51,151.116,37.117,152.632,36.236z
	 M152.632,47.448h1.956c2.117,1.375,3.174,2.996,3.174,4.865c-0.601,1.938-1.658,3.351-3.174,4.231h-1.956
	c-2.115-1.412-3.172-3.05-3.172-4.919C150.058,49.721,151.116,48.329,152.632,47.448z M162.257,25.025h1.904
	c2.149,1.41,3.227,3.05,3.227,4.919c-0.601,1.939-1.675,3.331-3.227,4.178h-1.904c-2.152-1.375-3.227-2.996-3.227-4.865
	C159.631,27.318,160.706,25.906,162.257,25.025z M171.828,13.868h1.958c2.115,1.375,3.172,2.996,3.172,4.865
	c-0.601,1.938-1.658,3.348-3.172,4.229h-1.958c-2.115-1.41-3.172-3.048-3.172-4.917C169.22,16.106,170.277,14.714,171.828,13.868z
	 M171.828,25.025h1.958c2.115,1.41,3.172,3.05,3.172,4.919c-0.601,1.939-1.658,3.331-3.172,4.178h-1.958
	c-2.115-1.375-3.172-2.996-3.172-4.865C169.22,27.318,170.277,25.906,171.828,25.025z M171.828,36.236h1.958
	c2.115,1.41,3.172,3.05,3.172,4.919c-0.601,1.904-1.658,3.296-3.172,4.178h-1.958c-2.115-1.41-3.172-3.051-3.172-4.919
	C169.22,38.51,170.277,37.117,171.828,36.236z M171.828,47.448h1.958c2.115,1.375,3.172,2.996,3.172,4.865
	c-0.601,1.938-1.658,3.351-3.172,4.231h-1.958c-2.115-1.412-3.172-3.05-3.172-4.919C169.22,49.721,170.277,48.329,171.828,47.448z
	 M171.828,58.661h1.958c2.115,1.375,3.172,2.994,3.172,4.865c-0.601,1.937-1.658,3.346-3.172,4.229h-1.958
	c-2.115-1.41-3.172-3.05-3.172-4.917C169.22,60.898,170.277,59.505,171.828,58.661z M171.828,69.818h1.958
	c2.115,1.41,3.172,3.046,3.172,4.917c-0.601,1.906-1.658,3.298-3.172,4.177h-1.958c-2.115-1.375-3.172-2.994-3.172-4.865
	C169.22,72.107,170.277,70.697,171.828,69.818z M171.828,81.027h1.958c2.115,1.41,3.172,3.05,3.172,4.917
	c-0.601,1.906-1.658,3.298-3.172,4.177h-1.958c-2.115-1.41-3.172-3.046-3.172-4.917C169.22,83.299,170.277,81.906,171.828,81.027z"
	/>
<path fill="#F48043" d="M190.707,13.868h1.958c2.115,1.375,3.172,2.996,3.172,4.865c-0.563,1.938-1.621,3.348-3.172,4.229h-1.958
	c-2.115-1.41-3.172-3.048-3.172-4.917C188.135,16.106,189.192,14.714,190.707,13.868z M190.707,25.025h1.958
	c2.115,1.41,3.172,3.05,3.172,4.919c-0.563,1.939-1.621,3.331-3.172,4.178h-1.958c-2.115-1.375-3.172-2.996-3.172-4.865
	C188.135,27.318,189.192,25.906,190.707,25.025z M190.707,36.236h1.958c2.115,1.41,3.172,3.05,3.172,4.919
	c-0.563,1.904-1.621,3.296-3.172,4.178h-1.958c-2.115-1.41-3.172-3.051-3.172-4.919C188.135,38.51,189.192,37.117,190.707,36.236z
	 M190.707,47.448h1.958c2.115,1.375,3.172,2.996,3.172,4.865c-0.563,1.938-1.621,3.351-3.172,4.231h-1.958
	c-2.115-1.412-3.172-3.05-3.172-4.919C188.135,49.721,189.192,48.329,190.707,47.448z M190.707,58.661h1.958
	c2.115,1.375,3.172,2.994,3.172,4.865c-0.563,1.937-1.621,3.346-3.172,4.229h-1.958c-2.115-1.41-3.172-3.05-3.172-4.917
	C188.135,60.898,189.192,59.505,190.707,58.661z M190.707,69.818h1.958c2.115,1.41,3.172,3.046,3.172,4.917
	c-0.563,1.906-1.621,3.298-3.172,4.177h-1.958c-2.115-1.375-3.172-2.994-3.172-4.865C188.135,72.107,189.192,70.697,190.707,69.818z
	 M190.707,81.027h1.958c2.115,1.41,3.172,3.05,3.172,4.917c-0.563,1.906-1.621,3.298-3.172,4.177h-1.958
	c-2.115-1.41-3.172-3.046-3.172-4.917C188.135,83.299,189.192,81.906,190.707,81.027z M200.332,13.868h1.904
	c2.152,1.375,3.227,2.996,3.227,4.865c-0.601,1.938-1.675,3.348-3.227,4.229h-1.904c-2.149-1.41-3.227-3.048-3.227-4.917
	C197.706,16.106,198.781,14.714,200.332,13.868z M200.332,47.448h1.904c2.152,1.375,3.227,2.996,3.227,4.865
	c-0.601,1.938-1.675,3.351-3.227,4.231h-1.904c-2.149-1.412-3.227-3.05-3.227-4.919C197.706,49.721,198.781,48.329,200.332,47.448z
	 M200.332,81.027h1.904c2.152,1.41,3.227,3.05,3.227,4.917c-0.601,1.906-1.675,3.298-3.227,4.177h-1.904
	c-2.149-1.41-3.227-3.046-3.227-4.917C197.706,83.299,198.781,81.906,200.332,81.027z M209.903,13.868h1.958
	c2.115,1.375,3.172,2.996,3.172,4.865c-0.598,1.938-1.656,3.348-3.172,4.229h-1.958c-2.115-1.41-3.172-3.048-3.172-4.917
	C207.331,16.106,208.389,14.714,209.903,13.868z M209.903,47.448h1.958c2.115,1.375,3.172,2.996,3.172,4.865
	c-0.598,1.938-1.656,3.351-3.172,4.231h-1.958c-2.115-1.412-3.172-3.05-3.172-4.919C207.331,49.721,208.389,48.329,209.903,47.448z
	 M209.903,81.027h1.958c2.115,1.41,3.172,3.05,3.172,4.917c-0.598,1.906-1.656,3.298-3.172,4.177h-1.958
	c-2.115-1.41-3.172-3.046-3.172-4.917C207.331,83.299,208.389,81.906,209.903,81.027z M219.528,13.868h1.904
	c2.151,1.375,3.227,2.996,3.227,4.865c-0.601,1.938-1.675,3.348-3.227,4.229h-1.904c-2.15-1.41-3.227-3.048-3.227-4.917
	C216.902,16.106,217.977,14.714,219.528,13.868z M219.528,47.448h1.904c2.151,1.375,3.227,2.996,3.227,4.865
	c-0.601,1.938-1.675,3.351-3.227,4.231h-1.904c-2.15-1.412-3.227-3.05-3.227-4.919C216.902,49.721,217.977,48.329,219.528,47.448z
	 M219.528,81.027h1.904c2.151,1.41,3.227,3.05,3.227,4.917c-0.601,1.906-1.675,3.298-3.227,4.177h-1.904
	c-2.15-1.41-3.227-3.046-3.227-4.917C216.902,83.299,217.977,81.906,219.528,81.027z M229.101,13.868h1.956
	c2.115,1.375,3.172,2.996,3.172,4.865c-0.599,1.938-1.656,3.348-3.172,4.229h-1.956c-2.117-1.41-3.174-3.048-3.174-4.917
	C226.49,16.106,227.55,14.714,229.101,13.868z M229.101,81.027h1.956c2.115,1.41,3.172,3.05,3.172,4.917
	c-0.599,1.906-1.656,3.298-3.172,4.177h-1.956c-2.117-1.41-3.174-3.046-3.174-4.917C226.49,83.299,227.55,81.906,229.101,81.027z"/>
<path fill="#F48043" d="M246.176,36.236h1.956c2.115,1.41,3.172,3.05,3.172,4.919c-0.599,1.904-1.656,3.296-3.172,4.178h-1.956
	c-2.115-1.41-3.174-3.051-3.174-4.919C243.602,38.51,244.66,37.117,246.176,36.236z M246.176,58.661h1.956
	c2.115,1.375,3.172,2.994,3.172,4.865c-0.599,1.937-1.656,3.346-3.172,4.229h-1.956c-2.115-1.41-3.174-3.05-3.174-4.917
	C243.602,60.898,244.66,59.505,246.176,58.661z"/>
<path fill="#F48043" d="M273.521,58.661h1.958c2.114,1.375,3.173,2.994,3.173,4.865c-0.564,1.937-1.621,3.346-3.173,4.229h-1.958
	c-2.115-1.41-3.172-3.05-3.172-4.917C270.947,60.898,272.008,59.505,273.521,58.661z M273.521,69.818h1.958
	c2.114,1.41,3.173,3.046,3.173,4.917c-0.564,1.906-1.621,3.298-3.173,4.177h-1.958c-2.115-1.375-3.172-2.994-3.172-4.865
	C270.947,72.107,272.008,70.697,273.521,69.818z M283.146,81.027h1.904c2.149,1.41,3.227,3.05,3.227,4.917
	c-0.601,1.906-1.676,3.298-3.227,4.177h-1.904c-2.149-1.41-3.227-3.046-3.227-4.917C280.521,83.299,281.596,81.906,283.146,81.027z
	 M292.718,81.027h1.958c2.115,1.41,3.172,3.05,3.172,4.917c-0.6,1.906-1.658,3.298-3.172,4.177h-1.958
	c-2.114-1.41-3.173-3.046-3.173-4.917C290.145,83.299,291.203,81.906,292.718,81.027z M302.343,81.027h1.901
	c2.15,1.41,3.229,3.05,3.229,4.917c-0.6,1.906-1.675,3.298-3.229,4.177h-1.901c-2.149-1.41-3.224-3.046-3.224-4.917
	C299.719,83.299,300.789,81.906,302.343,81.027z M311.912,13.868h1.957c2.115,1.375,3.178,2.996,3.178,4.865
	c-0.602,1.938-1.662,3.348-3.178,4.229h-1.957c-2.115-1.41-3.168-3.048-3.168-4.917C309.305,16.106,310.363,14.714,311.912,13.868z
	 M311.912,25.025h1.957c2.115,1.41,3.178,3.05,3.178,4.919c-0.602,1.939-1.662,3.331-3.178,4.178h-1.957
	c-2.115-1.375-3.168-2.996-3.168-4.865C309.305,27.318,310.363,25.906,311.912,25.025z M311.912,36.236h1.957
	c2.115,1.41,3.178,3.05,3.178,4.919c-0.602,1.904-1.662,3.296-3.178,4.178h-1.957c-2.115-1.41-3.168-3.051-3.168-4.919
	C309.305,38.51,310.363,37.117,311.912,36.236z M311.912,47.448h1.957c2.115,1.375,3.178,2.996,3.178,4.865
	c-0.602,1.938-1.662,3.351-3.178,4.231h-1.957c-2.115-1.412-3.168-3.05-3.168-4.919C309.305,49.721,310.363,48.329,311.912,47.448z
	 M311.912,58.661h1.957c2.115,1.375,3.178,2.994,3.178,4.865c-0.602,1.937-1.662,3.346-3.178,4.229h-1.957
	c-2.115-1.41-3.168-3.05-3.168-4.917C309.305,60.898,310.363,59.505,311.912,58.661z M311.912,69.818h1.957
	c2.115,1.41,3.178,3.046,3.178,4.917c-0.602,1.906-1.662,3.298-3.178,4.177h-1.957c-2.115-1.375-3.168-2.994-3.168-4.865
	C309.305,72.107,310.363,70.697,311.912,69.818z"/>
<path fill="#F48043" d="M330.797,25.025h1.953c2.115,1.41,3.173,3.05,3.173,4.919c-0.565,1.939-1.618,3.331-3.173,4.178h-1.953
	c-2.119-1.375-3.177-2.996-3.177-4.865C328.221,27.318,329.278,25.906,330.797,25.025z M330.797,36.236h1.953
	c2.115,1.41,3.173,3.05,3.173,4.919c-0.565,1.904-1.618,3.296-3.173,4.178h-1.953c-2.119-1.41-3.177-3.051-3.177-4.919
	C328.221,38.51,329.278,37.117,330.797,36.236z M330.797,47.448h1.953c2.115,1.375,3.173,2.996,3.173,4.865
	c-0.565,1.938-1.618,3.351-3.173,4.231h-1.953c-2.119-1.412-3.177-3.05-3.177-4.919C328.221,49.721,329.278,48.329,330.797,47.448z
	 M330.797,58.661h1.953c2.115,1.375,3.173,2.994,3.173,4.865c-0.565,1.937-1.618,3.346-3.173,4.229h-1.953
	c-2.119-1.41-3.177-3.05-3.177-4.917C328.221,60.898,329.278,59.505,330.797,58.661z M330.797,69.818h1.953
	c2.115,1.41,3.173,3.046,3.173,4.917c-0.565,1.906-1.618,3.298-3.173,4.177h-1.953c-2.119-1.375-3.177-2.994-3.177-4.865
	C328.221,72.107,329.278,70.697,330.797,69.818z M330.797,81.027h1.953c2.115,1.41,3.173,3.05,3.173,4.917
	c-0.565,1.906-1.618,3.298-3.173,4.177h-1.953c-2.119-1.41-3.177-3.046-3.177-4.917C328.221,83.299,329.278,81.906,330.797,81.027z
	 M340.418,13.868h1.901c2.153,1.375,3.229,2.996,3.229,4.865c-0.601,1.938-1.675,3.348-3.229,4.229h-1.901
	c-2.15-1.41-3.225-3.048-3.225-4.917C337.794,16.106,338.864,14.714,340.418,13.868z M340.418,47.448h1.901
	c2.153,1.375,3.229,2.996,3.229,4.865c-0.601,1.938-1.675,3.351-3.229,4.231h-1.901c-2.15-1.412-3.225-3.05-3.225-4.919
	C337.794,49.721,338.864,48.329,340.418,47.448z M349.99,13.868h1.954c2.114,1.375,3.177,2.996,3.177,4.865
	c-0.601,1.938-1.658,3.348-3.177,4.229h-1.954c-2.119-1.41-3.172-3.048-3.172-4.917C347.419,16.106,348.473,14.714,349.99,13.868z
	 M349.99,47.448h1.954c2.114,1.375,3.177,2.996,3.177,4.865c-0.601,1.938-1.658,3.351-3.177,4.231h-1.954
	c-2.119-1.412-3.172-3.05-3.172-4.919C347.419,49.721,348.473,48.329,349.99,47.448z M359.611,13.868h1.906
	c2.149,1.375,3.229,2.996,3.229,4.865c-0.6,1.938-1.68,3.348-3.229,4.229h-1.906c-2.149-1.41-3.22-3.048-3.22-4.917
	C356.988,16.106,358.062,14.714,359.611,13.868z M359.611,47.448h1.906c2.149,1.375,3.229,2.996,3.229,4.865
	c-0.6,1.938-1.68,3.351-3.229,4.231h-1.906c-2.149-1.412-3.22-3.05-3.22-4.919C356.988,49.721,358.062,48.329,359.611,47.448z
	 M369.185,25.025h1.958c2.115,1.41,3.172,3.05,3.172,4.919c-0.596,1.939-1.657,3.331-3.172,4.178h-1.958
	c-2.114-1.375-3.172-2.996-3.172-4.865C366.578,27.318,367.636,25.906,369.185,25.025z M369.185,36.236h1.958
	c2.115,1.41,3.172,3.05,3.172,4.919c-0.596,1.904-1.657,3.296-3.172,4.178h-1.958c-2.114-1.41-3.172-3.051-3.172-4.919
	C366.578,38.51,367.636,37.117,369.185,36.236z M369.185,47.448h1.958c2.115,1.375,3.172,2.996,3.172,4.865
	c-0.596,1.938-1.657,3.351-3.172,4.231h-1.958c-2.114-1.412-3.172-3.05-3.172-4.919C366.578,49.721,367.636,48.329,369.185,47.448z
	 M369.185,58.661h1.958c2.115,1.375,3.172,2.994,3.172,4.865c-0.596,1.937-1.657,3.346-3.172,4.229h-1.958
	c-2.114-1.41-3.172-3.05-3.172-4.917C366.578,60.898,367.636,59.505,369.185,58.661z M369.185,69.818h1.958
	c2.115,1.41,3.172,3.046,3.172,4.917c-0.596,1.906-1.657,3.298-3.172,4.177h-1.958c-2.114-1.375-3.172-2.994-3.172-4.865
	C366.578,72.107,367.636,70.697,369.185,69.818z M369.185,81.027h1.958c2.115,1.41,3.172,3.05,3.172,4.917
	c-0.596,1.906-1.657,3.298-3.172,4.177h-1.958c-2.114-1.41-3.172-3.046-3.172-4.917C366.578,83.299,367.636,81.906,369.185,81.027z"
	/>
<path fill="#F48043" d="M388.065,25.025h1.954c2.114,1.41,3.176,3.05,3.176,4.919c-0.565,1.939-1.623,3.331-3.176,4.178h-1.954
	c-2.114-1.375-3.173-2.996-3.173-4.865C385.494,27.318,386.547,25.906,388.065,25.025z M388.065,36.236h1.954
	c2.114,1.41,3.176,3.05,3.176,4.919c-0.565,1.904-1.623,3.296-3.176,4.178h-1.954c-2.114-1.41-3.173-3.051-3.173-4.919
	C385.494,38.51,386.547,37.117,388.065,36.236z M388.065,47.448h1.954c2.114,1.375,3.176,2.996,3.176,4.865
	c-0.565,1.938-1.623,3.351-3.176,4.231h-1.954c-2.114-1.412-3.173-3.05-3.173-4.919C385.494,49.721,386.547,48.329,388.065,47.448z
	 M388.065,58.661h1.954c2.114,1.375,3.176,2.994,3.176,4.865c-0.565,1.937-1.623,3.346-3.176,4.229h-1.954
	c-2.114-1.41-3.173-3.05-3.173-4.917C385.494,60.898,386.547,59.505,388.065,58.661z M388.065,69.818h1.954
	c2.114,1.41,3.176,3.046,3.176,4.917c-0.565,1.906-1.623,3.298-3.176,4.177h-1.954c-2.114-1.375-3.173-2.994-3.173-4.865
	C385.494,72.107,386.547,70.697,388.065,69.818z M397.691,13.868h1.9c2.15,1.375,3.229,2.996,3.229,4.865
	c-0.6,1.938-1.674,3.348-3.229,4.229h-1.9c-2.154-1.41-3.225-3.048-3.225-4.917C395.062,16.106,396.137,14.714,397.691,13.868z
	 M397.691,81.027h1.9c2.15,1.41,3.229,3.05,3.229,4.917c-0.6,1.906-1.674,3.298-3.229,4.177h-1.9
	c-2.154-1.41-3.225-3.046-3.225-4.917C395.062,83.299,396.137,81.906,397.691,81.027z M407.26,13.868h1.958
	c2.114,1.375,3.177,2.996,3.177,4.865c-0.602,1.938-1.662,3.348-3.177,4.229h-1.958c-2.115-1.41-3.168-3.048-3.168-4.917
	C404.688,16.106,405.745,14.714,407.26,13.868z M407.26,81.027h1.958c2.114,1.41,3.177,3.05,3.177,4.917
	c-0.602,1.906-1.662,3.298-3.177,4.177h-1.958c-2.115-1.41-3.168-3.046-3.168-4.917C404.688,83.299,405.745,81.906,407.26,81.027z
	 M416.885,13.868h1.906c2.149,1.375,3.225,2.996,3.225,4.865c-0.597,1.938-1.676,3.348-3.225,4.229h-1.906
	c-2.149-1.41-3.225-3.048-3.225-4.917C414.256,16.106,415.336,14.714,416.885,13.868z M416.885,81.027h1.906
	c2.149,1.41,3.225,3.05,3.225,4.917c-0.597,1.906-1.676,3.298-3.225,4.177h-1.906c-2.149-1.41-3.225-3.046-3.225-4.917
	C414.256,83.299,415.336,81.906,416.885,81.027z M426.458,25.025h1.958c2.115,1.41,3.172,3.05,3.172,4.919
	c-0.6,1.939-1.658,3.331-3.172,4.178h-1.958c-2.114-1.375-3.173-2.996-3.173-4.865C423.848,27.318,424.908,25.906,426.458,25.025z
	 M426.458,69.818h1.958c2.115,1.41,3.172,3.046,3.172,4.917c-0.6,1.906-1.658,3.298-3.172,4.177h-1.958
	c-2.114-1.375-3.173-2.994-3.173-4.865C423.848,72.107,424.908,70.697,426.458,69.818z"/>
<path fill="#F48043" d="M445.334,13.868h1.959c2.114,1.375,3.176,2.996,3.176,4.865c-0.565,1.938-1.627,3.348-3.176,4.229h-1.959
	c-2.115-1.41-3.168-3.048-3.168-4.917C442.763,16.106,443.82,14.714,445.334,13.868z M445.334,25.025h1.959
	c2.114,1.41,3.176,3.05,3.176,4.919c-0.565,1.939-1.627,3.331-3.176,4.178h-1.959c-2.115-1.375-3.168-2.996-3.168-4.865
	C442.763,27.318,443.82,25.906,445.334,25.025z M445.334,36.236h1.959c2.114,1.41,3.176,3.05,3.176,4.919
	c-0.565,1.904-1.627,3.296-3.176,4.178h-1.959c-2.115-1.41-3.168-3.051-3.168-4.919C442.763,38.51,443.82,37.117,445.334,36.236z
	 M445.334,47.448h1.959c2.114,1.375,3.176,2.996,3.176,4.865c-0.565,1.938-1.627,3.351-3.176,4.231h-1.959
	c-2.115-1.412-3.168-3.05-3.168-4.919C442.763,49.721,443.82,48.329,445.334,47.448z M445.334,58.661h1.959
	c2.114,1.375,3.176,2.994,3.176,4.865c-0.565,1.937-1.627,3.346-3.176,4.229h-1.959c-2.115-1.41-3.168-3.05-3.168-4.917
	C442.763,60.898,443.82,59.505,445.334,58.661z M445.334,69.818h1.959c2.114,1.41,3.176,3.046,3.176,4.917
	c-0.565,1.906-1.627,3.298-3.176,4.177h-1.959c-2.115-1.375-3.168-2.994-3.168-4.865C442.763,72.107,443.82,70.697,445.334,69.818z
	 M445.334,81.027h1.959c2.114,1.41,3.176,3.05,3.176,4.917c-0.565,1.906-1.627,3.298-3.176,4.177h-1.959
	c-2.115-1.41-3.168-3.046-3.168-4.917C442.763,83.299,443.82,81.906,445.334,81.027z M454.959,47.448h1.906
	c2.15,1.375,3.229,2.996,3.229,4.865c-0.6,1.938-1.68,3.351-3.229,4.231h-1.906c-2.148-1.412-3.225-3.05-3.225-4.919
	C452.336,49.721,453.41,48.329,454.959,47.448z M464.533,36.236h1.957c2.115,1.41,3.172,3.05,3.172,4.919
	c-0.6,1.904-1.657,3.296-3.172,4.178h-1.957c-2.115-1.41-3.173-3.051-3.173-4.919C461.957,38.51,463.018,37.117,464.533,36.236z
	 M464.533,58.661h1.957c2.115,1.375,3.172,2.994,3.172,4.865c-0.6,1.937-1.657,3.346-3.172,4.229h-1.957
	c-2.115-1.41-3.173-3.05-3.173-4.917C461.957,60.898,463.018,59.505,464.533,58.661z M474.158,25.025h1.905
	c2.149,1.41,3.225,3.05,3.225,4.919c-0.601,1.939-1.675,3.331-3.225,4.178h-1.905c-2.15-1.375-3.229-2.996-3.229-4.865
	C471.529,27.318,472.609,25.906,474.158,25.025z M474.158,69.818h1.905c2.149,1.41,3.225,3.046,3.225,4.917
	c-0.601,1.906-1.675,3.298-3.225,4.177h-1.905c-2.15-1.375-3.229-2.994-3.229-4.865C471.529,72.107,472.609,70.697,474.158,69.818z
	 M483.73,13.868h1.959c2.114,1.375,3.168,2.996,3.168,4.865c-0.602,1.938-1.654,3.348-3.168,4.229h-1.959
	c-2.114-1.41-3.176-3.048-3.176-4.917C481.12,16.106,482.178,14.714,483.73,13.868z M483.73,81.027h1.959
	c2.114,1.41,3.168,3.05,3.168,4.917c-0.602,1.906-1.654,3.298-3.168,4.177h-1.959c-2.114-1.41-3.176-3.046-3.176-4.917
	C481.12,83.299,482.178,81.906,483.73,81.027z"/>
<path fill="#F48043" d="M502.607,25.025h1.957c2.115,1.41,3.174,3.05,3.174,4.919c-0.562,1.939-1.623,3.331-3.174,4.178h-1.957
	c-2.115-1.375-3.172-2.996-3.172-4.865C500.035,27.318,501.094,25.906,502.607,25.025z M502.607,36.236h1.957
	c2.115,1.41,3.174,3.05,3.174,4.919c-0.562,1.904-1.623,3.296-3.174,4.178h-1.957c-2.115-1.41-3.172-3.051-3.172-4.919
	C500.035,38.51,501.094,37.117,502.607,36.236z M502.607,69.818h1.957c2.115,1.41,3.174,3.046,3.174,4.917
	c-0.562,1.906-1.623,3.298-3.174,4.177h-1.957c-2.115-1.375-3.172-2.994-3.172-4.865C500.035,72.107,501.094,70.697,502.607,69.818z
	 M512.232,13.868h1.906c2.148,1.375,3.225,2.996,3.225,4.865c-0.602,1.938-1.676,3.348-3.225,4.229h-1.906
	c-2.15-1.41-3.229-3.048-3.229-4.917C509.604,16.106,510.684,14.714,512.232,13.868z M512.232,47.448h1.906
	c2.148,1.375,3.225,2.996,3.225,4.865c-0.602,1.938-1.676,3.351-3.225,4.231h-1.906c-2.15-1.412-3.229-3.05-3.229-4.919
	C509.604,49.721,510.684,48.329,512.232,47.448z M512.232,81.027h1.906c2.148,1.41,3.225,3.05,3.225,4.917
	c-0.602,1.906-1.676,3.298-3.225,4.177h-1.906c-2.15-1.41-3.229-3.046-3.229-4.917C509.604,83.299,510.684,81.906,512.232,81.027z
	 M521.805,13.868h1.959c2.115,1.375,3.168,2.996,3.168,4.865c-0.596,1.938-1.654,3.348-3.168,4.229h-1.959
	c-2.113-1.41-3.176-3.048-3.176-4.917C519.23,16.106,520.291,14.714,521.805,13.868z M521.805,47.448h1.959
	c2.115,1.375,3.168,2.996,3.168,4.865c-0.596,1.938-1.654,3.351-3.168,4.231h-1.959c-2.113-1.412-3.176-3.05-3.176-4.919
	C519.23,49.721,520.291,48.329,521.805,47.448z M521.805,81.027h1.959c2.115,1.41,3.168,3.05,3.168,4.917
	c-0.596,1.906-1.654,3.298-3.168,4.177h-1.959c-2.113-1.41-3.176-3.046-3.176-4.917C519.23,83.299,520.291,81.906,521.805,81.027z
	 M531.432,13.868h1.9c2.154,1.375,3.225,2.996,3.225,4.865c-0.6,1.938-1.67,3.348-3.225,4.229h-1.9
	c-2.15-1.41-3.23-3.048-3.23-4.917C528.803,16.106,529.877,14.714,531.432,13.868z M531.432,47.448h1.9
	c2.154,1.375,3.225,2.996,3.225,4.865c-0.6,1.938-1.67,3.351-3.225,4.231h-1.9c-2.15-1.412-3.23-3.05-3.23-4.919
	C528.803,49.721,529.877,48.329,531.432,47.448z M531.432,81.027h1.9c2.154,1.41,3.225,3.05,3.225,4.917
	c-0.6,1.906-1.67,3.298-3.225,4.177h-1.9c-2.15-1.41-3.23-3.046-3.23-4.917C528.803,83.299,529.877,81.906,531.432,81.027z
	 M541.004,25.025h1.953c2.115,1.41,3.172,3.05,3.172,4.919c-0.6,1.939-1.652,3.331-3.172,4.178h-1.953
	c-2.119-1.375-3.176-2.996-3.176-4.865C538.393,27.318,539.451,25.906,541.004,25.025z M541.004,58.661h1.953
	c2.115,1.375,3.172,2.994,3.172,4.865c-0.6,1.937-1.652,3.346-3.172,4.229h-1.953c-2.119-1.41-3.176-3.05-3.176-4.917
	C538.393,60.898,539.451,59.505,541.004,58.661z M541.004,69.818h1.953c2.115,1.41,3.172,3.046,3.172,4.917
	c-0.6,1.906-1.652,3.298-3.172,4.177h-1.953c-2.119-1.375-3.176-2.994-3.176-4.865C538.393,72.107,539.451,70.697,541.004,69.818z"
	/>
<path fill="#F48043" d="M559.881,25.025h1.957c2.115,1.41,3.168,3.05,3.168,4.919c-0.561,1.939-1.619,3.331-3.168,4.178h-1.957
	c-2.115-1.375-3.178-2.996-3.178-4.865C557.305,27.318,558.365,25.906,559.881,25.025z M559.881,36.236h1.957
	c2.115,1.41,3.168,3.05,3.168,4.919c-0.561,1.904-1.619,3.296-3.168,4.178h-1.957c-2.115-1.41-3.178-3.051-3.178-4.919
	C557.305,38.51,558.365,37.117,559.881,36.236z M559.881,47.448h1.957c2.115,1.375,3.168,2.996,3.168,4.865
	c-0.561,1.938-1.619,3.351-3.168,4.231h-1.957c-2.115-1.412-3.178-3.05-3.178-4.919C557.305,49.721,558.365,48.329,559.881,47.448z
	 M559.881,58.661h1.957c2.115,1.375,3.168,2.994,3.168,4.865c-0.561,1.937-1.619,3.346-3.168,4.229h-1.957
	c-2.115-1.41-3.178-3.05-3.178-4.917C557.305,60.898,558.365,59.505,559.881,58.661z M559.881,69.818h1.957
	c2.115,1.41,3.168,3.046,3.168,4.917c-0.561,1.906-1.619,3.298-3.168,4.177h-1.957c-2.115-1.375-3.178-2.994-3.178-4.865
	C557.305,72.107,558.365,70.697,559.881,69.818z M569.506,13.868h1.9c2.154,1.375,3.225,2.996,3.225,4.865
	c-0.596,1.938-1.67,3.348-3.225,4.229h-1.9c-2.15-1.41-3.229-3.048-3.229-4.917C566.877,16.106,567.951,14.714,569.506,13.868z
	 M569.506,81.027h1.9c2.154,1.41,3.225,3.05,3.225,4.917c-0.596,1.906-1.67,3.298-3.225,4.177h-1.9
	c-2.15-1.41-3.229-3.046-3.229-4.917C566.877,83.299,567.951,81.906,569.506,81.027z M579.078,13.868h1.955
	c2.113,1.375,3.172,2.996,3.172,4.865c-0.602,1.938-1.654,3.348-3.172,4.229h-1.955c-2.115-1.41-3.176-3.048-3.176-4.917
	C576.502,16.106,577.561,14.714,579.078,13.868z M579.078,81.027h1.955c2.113,1.41,3.172,3.05,3.172,4.917
	c-0.602,1.906-1.654,3.298-3.172,4.177h-1.955c-2.115-1.41-3.176-3.046-3.176-4.917C576.502,83.299,577.561,81.906,579.078,81.027z
	 M588.699,13.868h1.902c2.154,1.375,3.229,2.996,3.229,4.865c-0.602,1.938-1.676,3.348-3.229,4.229h-1.902
	c-2.148-1.41-3.225-3.048-3.225-4.917C586.076,16.106,587.146,14.714,588.699,13.868z M588.699,81.027h1.902
	c2.154,1.41,3.229,3.05,3.229,4.917c-0.602,1.906-1.676,3.298-3.229,4.177h-1.902c-2.148-1.41-3.225-3.046-3.225-4.917
	C586.076,83.299,587.146,81.906,588.699,81.027z M598.273,25.025h1.953c2.115,1.41,3.176,3.05,3.176,4.919
	c-0.6,1.939-1.658,3.331-3.176,4.178h-1.953c-2.115-1.375-3.174-2.996-3.174-4.865C595.666,27.318,596.719,25.906,598.273,25.025z
	 M598.273,36.236h1.953c2.115,1.41,3.176,3.05,3.176,4.919c-0.6,1.904-1.658,3.296-3.176,4.178h-1.953
	c-2.115-1.41-3.174-3.051-3.174-4.919C595.666,38.51,596.719,37.117,598.273,36.236z M598.273,47.448h1.953
	c2.115,1.375,3.176,2.996,3.176,4.865c-0.6,1.938-1.658,3.351-3.176,4.231h-1.953c-2.115-1.412-3.174-3.05-3.174-4.919
	C595.666,49.721,596.719,48.329,598.273,47.448z M598.273,58.661h1.953c2.115,1.375,3.176,2.994,3.176,4.865
	c-0.6,1.937-1.658,3.346-3.176,4.229h-1.953c-2.115-1.41-3.174-3.05-3.174-4.917C595.666,60.898,596.719,59.505,598.273,58.661z
	 M598.273,69.818h1.953c2.115,1.41,3.176,3.046,3.176,4.917c-0.6,1.906-1.658,3.298-3.176,4.177h-1.953
	c-2.115-1.375-3.174-2.994-3.174-4.865C595.666,72.107,596.719,70.697,598.273,69.818z"/>
<path fill="#F48043" d="M617.154,13.868h1.953c2.119,1.375,3.172,2.996,3.172,4.865c-0.566,1.938-1.619,3.348-3.172,4.229h-1.953
	c-2.115-1.41-3.178-3.048-3.178-4.917C614.578,16.106,615.635,14.714,617.154,13.868z M617.154,25.025h1.953
	c2.119,1.41,3.172,3.05,3.172,4.919c-0.566,1.939-1.619,3.331-3.172,4.178h-1.953c-2.115-1.375-3.178-2.996-3.178-4.865
	C614.578,27.318,615.635,25.906,617.154,25.025z M617.154,36.236h1.953c2.119,1.41,3.172,3.05,3.172,4.919
	c-0.566,1.904-1.619,3.296-3.172,4.178h-1.953c-2.115-1.41-3.178-3.051-3.178-4.919C614.578,38.51,615.635,37.117,617.154,36.236z
	 M617.154,47.448h1.953c2.119,1.375,3.172,2.996,3.172,4.865c-0.566,1.938-1.619,3.351-3.172,4.231h-1.953
	c-2.115-1.412-3.178-3.05-3.178-4.919C614.578,49.721,615.635,48.329,617.154,47.448z M617.154,58.661h1.953
	c2.119,1.375,3.172,2.994,3.172,4.865c-0.566,1.937-1.619,3.346-3.172,4.229h-1.953c-2.115-1.41-3.178-3.05-3.178-4.917
	C614.578,60.898,615.635,59.505,617.154,58.661z M617.154,69.818h1.953c2.119,1.41,3.172,3.046,3.172,4.917
	c-0.566,1.906-1.619,3.298-3.172,4.177h-1.953c-2.115-1.375-3.178-2.994-3.178-4.865C614.578,72.107,615.635,70.697,617.154,69.818z
	 M617.154,81.027h1.953c2.119,1.41,3.172,3.05,3.172,4.917c-0.566,1.906-1.619,3.298-3.172,4.177h-1.953
	c-2.115-1.41-3.178-3.046-3.178-4.917C614.578,83.299,615.635,81.906,617.154,81.027z M626.779,25.025h1.9
	c2.15,1.41,3.225,3.05,3.225,4.919c-0.6,1.939-1.67,3.331-3.225,4.178h-1.9c-2.154-1.375-3.229-2.996-3.229-4.865
	C624.15,27.318,625.225,25.906,626.779,25.025z M636.348,36.236h1.953c2.119,1.41,3.178,3.05,3.178,4.919
	c-0.602,1.904-1.658,3.296-3.178,4.178h-1.953c-2.115-1.41-3.172-3.051-3.172-4.919C633.775,38.51,634.828,37.117,636.348,36.236z
	 M645.973,47.448h1.902c2.148,1.375,3.229,2.996,3.229,4.865c-0.602,1.938-1.676,3.351-3.229,4.231h-1.902
	c-2.154-1.412-3.225-3.05-3.225-4.919C643.35,49.721,644.42,48.329,645.973,47.448z M655.541,13.868h1.959
	c2.113,1.375,3.176,2.996,3.176,4.865c-0.6,1.938-1.662,3.348-3.176,4.229h-1.959c-2.115-1.41-3.168-3.048-3.168-4.917
	C652.936,16.106,653.992,14.714,655.541,13.868z M655.541,25.025h1.959c2.113,1.41,3.176,3.05,3.176,4.919
	c-0.6,1.939-1.662,3.331-3.176,4.178h-1.959c-2.115-1.375-3.168-2.996-3.168-4.865C652.936,27.318,653.992,25.906,655.541,25.025z
	 M655.541,36.236h1.959c2.113,1.41,3.176,3.05,3.176,4.919c-0.6,1.904-1.662,3.296-3.176,4.178h-1.959
	c-2.115-1.41-3.168-3.051-3.168-4.919C652.936,38.51,653.992,37.117,655.541,36.236z M655.541,47.448h1.959
	c2.113,1.375,3.176,2.996,3.176,4.865c-0.6,1.938-1.662,3.351-3.176,4.231h-1.959c-2.115-1.412-3.168-3.05-3.168-4.919
	C652.936,49.721,653.992,48.329,655.541,47.448z M655.541,58.661h1.959c2.113,1.375,3.176,2.994,3.176,4.865
	c-0.6,1.937-1.662,3.346-3.176,4.229h-1.959c-2.115-1.41-3.168-3.05-3.168-4.917C652.936,60.898,653.992,59.505,655.541,58.661z
	 M655.541,69.818h1.959c2.113,1.41,3.176,3.046,3.176,4.917c-0.6,1.906-1.662,3.298-3.176,4.177h-1.959
	c-2.115-1.375-3.168-2.994-3.168-4.865C652.936,72.107,653.992,70.697,655.541,69.818z M655.541,81.027h1.959
	c2.113,1.41,3.176,3.05,3.176,4.917c-0.6,1.906-1.662,3.298-3.176,4.177h-1.959c-2.115-1.41-3.168-3.046-3.168-4.917
	C652.936,83.299,653.992,81.906,655.541,81.027z"/>
</svg>
