<?xml version="1.0" encoding="utf-8"?>
<!-- Generator: Adobe Illustrator 16.0.4, SVG Export Plug-In . SVG Version: 6.00 Build 0)  -->
<!DOCTYPE svg PUBLIC "-//W3C//DTD SVG 1.1//EN" "http://www.w3.org/Graphics/SVG/1.1/DTD/svg11.dtd">
<svg version="1.1" id="Layer_1" xmlns="http://www.w3.org/2000/svg" xmlns:xlink="http://www.w3.org/1999/xlink" x="0px" y="0px"
	 width="831.064px" height="117.104px" viewBox="0 0 831.064 117.104" enable-background="new 0 0 831.064 117.104"
	 xml:space="preserve">
<path fill="#F48043" d="M7.355,18.578h2.684c2.901,1.934,4.352,4.182,4.352,6.746c-0.773,2.66-2.224,4.57-4.352,5.731H7.355
	C4.451,29.168,3,26.944,3,24.38C3.824,21.721,5.274,19.787,7.355,18.578z M7.355,33.956h2.684c2.901,1.937,4.352,4.185,4.352,6.749
	c-0.773,2.611-2.224,4.522-4.352,5.731H7.355C4.451,44.501,3,42.25,3,39.689C3.824,37.078,5.274,35.165,7.355,33.956z M7.355,49.336
	h2.684c2.901,1.887,4.352,4.113,4.352,6.674c-0.773,2.663-2.224,4.597-4.352,5.803H7.355C4.451,59.879,3,57.634,3,55.067
	C3.824,52.456,5.274,50.545,7.355,49.336z M7.355,64.714h2.684c2.901,1.887,4.352,4.113,4.352,6.674
	c-0.773,2.663-2.224,4.597-4.352,5.809H7.355C4.451,75.263,3,73.012,3,70.445C3.824,67.789,5.274,65.878,7.355,64.714z
	 M7.355,80.027h2.684c2.901,1.934,4.352,4.185,4.352,6.746c-0.773,2.609-2.224,4.519-4.352,5.731H7.355
	C4.451,90.617,3,88.391,3,85.83C3.824,83.173,5.274,81.239,7.355,80.027z M20.557,3.269h2.611c2.952,1.886,4.427,4.11,4.427,6.674
	c-0.824,2.66-2.298,4.597-4.427,5.806h-2.611c-2.949-1.937-4.424-4.185-4.424-6.749C16.954,6.34,18.429,4.43,20.557,3.269z
	 M20.557,95.405h2.611c2.952,1.94,4.427,4.185,4.427,6.752c-0.824,2.608-2.298,4.519-4.427,5.73h-2.611
	c-2.949-1.934-4.424-4.19-4.424-6.746C16.954,98.527,18.429,96.617,20.557,95.405z M33.69,3.269h2.683
	c2.901,1.886,4.352,4.11,4.352,6.674c-0.821,2.66-2.271,4.597-4.352,5.806H33.69c-2.904-1.937-4.355-4.185-4.355-6.749
	C30.159,6.34,31.61,4.43,33.69,3.269z M33.69,49.336h2.683c2.901,1.887,4.352,4.113,4.352,6.674
	c-0.821,2.663-2.271,4.597-4.352,5.803H33.69c-2.904-1.935-4.355-4.179-4.355-6.746C30.159,52.456,31.61,50.545,33.69,49.336z
	 M33.69,95.405h2.683c2.901,1.94,4.352,4.185,4.352,6.752c-0.821,2.608-2.271,4.519-4.352,5.73H33.69
	c-2.904-1.934-4.355-4.19-4.355-6.746C30.159,98.527,31.61,96.617,33.69,95.405z M46.892,3.269h2.612
	c2.952,1.886,4.427,4.11,4.427,6.674c-0.824,2.66-2.298,4.597-4.427,5.806h-2.612c-2.949-1.937-4.423-4.185-4.423-6.749
	C43.29,6.34,44.764,4.43,46.892,3.269z M46.892,49.336h2.612c2.952,1.887,4.427,4.113,4.427,6.674
	c-0.824,2.663-2.298,4.597-4.427,5.803h-2.612c-2.949-1.935-4.423-4.179-4.423-6.746C43.29,52.456,44.764,50.545,46.892,49.336z
	 M46.892,95.405h2.612c2.952,1.94,4.427,4.185,4.427,6.752c-0.824,2.608-2.298,4.519-4.427,5.73h-2.612
	c-2.949-1.934-4.423-4.19-4.423-6.746C43.29,98.527,44.764,96.617,46.892,95.405z M60.026,18.578h2.683
	c2.901,1.934,4.352,4.182,4.352,6.746c-0.821,2.66-2.271,4.57-4.352,5.731h-2.683c-2.904-1.886-4.355-4.11-4.355-6.674
	C56.447,21.721,57.897,19.787,60.026,18.578z M60.026,49.336h2.683c2.901,1.887,4.352,4.113,4.352,6.674
	c-0.821,2.663-2.271,4.597-4.352,5.803h-2.683c-2.904-1.935-4.355-4.179-4.355-6.746C56.447,52.456,57.897,50.545,60.026,49.336z
	 M60.026,64.714h2.683c2.901,1.887,4.352,4.113,4.352,6.674c-0.821,2.663-2.271,4.597-4.352,5.809h-2.683
	c-2.904-1.934-4.355-4.185-4.355-6.752C56.447,67.789,57.897,65.878,60.026,64.714z M60.026,80.027h2.683
	c2.901,1.934,4.352,4.185,4.352,6.746c-0.821,2.609-2.271,4.519-4.352,5.731h-2.683c-2.904-1.886-4.355-4.113-4.355-6.674
	C56.447,83.173,57.897,81.239,60.026,80.027z"/>
<path fill="#F48043" d="M85.925,18.578h2.683c2.901,1.934,4.355,4.182,4.355,6.746c-0.776,2.66-2.227,4.57-4.355,5.731h-2.683
	c-2.901-1.886-4.355-4.11-4.355-6.674C82.394,21.721,83.845,19.787,85.925,18.578z M85.925,33.956h2.683
	c2.901,1.937,4.355,4.185,4.355,6.749c-0.776,2.611-2.227,4.522-4.355,5.731h-2.683c-2.901-1.935-4.355-4.185-4.355-6.746
	C82.394,37.078,83.845,35.165,85.925,33.956z M85.925,49.336h2.683c2.901,1.887,4.355,4.113,4.355,6.674
	c-0.776,2.663-2.227,4.597-4.355,5.803h-2.683c-2.901-1.935-4.355-4.179-4.355-6.746C82.394,52.456,83.845,50.545,85.925,49.336z
	 M85.925,64.714h2.683c2.901,1.887,4.355,4.113,4.355,6.674c-0.776,2.663-2.227,4.597-4.355,5.809h-2.683
	c-2.901-1.934-4.355-4.185-4.355-6.752C82.394,67.789,83.845,65.878,85.925,64.714z M85.925,80.027h2.683
	c2.901,1.934,4.355,4.185,4.355,6.746c-0.776,2.609-2.227,4.519-4.355,5.731h-2.683c-2.901-1.886-4.355-4.113-4.355-6.674
	C82.394,83.173,83.845,81.239,85.925,80.027z M85.925,95.405h2.683c2.901,1.94,4.355,4.185,4.355,6.752
	c-0.776,2.608-2.227,4.519-4.355,5.73h-2.683c-2.901-1.934-4.355-4.19-4.355-6.746C82.394,98.527,83.845,96.617,85.925,95.405z
	 M99.13,3.269h2.611c2.949,1.886,4.424,4.11,4.424,6.674c-0.821,2.66-2.298,4.597-4.424,5.806H99.13
	c-2.952-1.937-4.427-4.185-4.427-6.749C95.524,6.34,97.002,4.43,99.13,3.269z M99.13,49.336h2.611
	c2.949,1.887,4.424,4.113,4.424,6.674c-0.821,2.663-2.298,4.597-4.424,5.803H99.13c-2.952-1.935-4.427-4.179-4.427-6.746
	C95.524,52.456,97.002,50.545,99.13,49.336z M112.261,3.269h2.683c2.901,1.886,4.355,4.11,4.355,6.674
	c-0.824,2.66-2.274,4.597-4.355,5.806h-2.683c-2.901-1.937-4.352-4.185-4.352-6.749C108.729,6.34,110.18,4.43,112.261,3.269z
	 M112.261,49.336h2.683c2.901,1.887,4.355,4.113,4.355,6.674c-0.824,2.663-2.274,4.597-4.355,5.803h-2.683
	c-2.901-1.935-4.352-4.179-4.352-6.746C108.729,52.456,110.18,50.545,112.261,49.336z M125.465,3.269h2.612
	c2.949,1.886,4.424,4.11,4.424,6.674c-0.821,2.66-2.295,4.597-4.424,5.806h-2.612c-2.952-1.937-4.426-4.185-4.426-6.749
	C121.86,6.34,123.337,4.43,125.465,3.269z M125.465,49.336h2.612c2.949,1.887,4.424,4.113,4.424,6.674
	c-0.821,2.663-2.295,4.597-4.424,5.803h-2.612c-2.952-1.935-4.426-4.179-4.426-6.746C121.86,52.456,123.337,50.545,125.465,49.336z
	 M138.596,18.578h2.684c2.901,1.934,4.355,4.182,4.355,6.746c-0.824,2.66-2.274,4.57-4.355,5.731h-2.684
	c-2.901-1.886-4.352-4.11-4.352-6.674C135.017,21.721,136.468,19.787,138.596,18.578z M138.596,33.956h2.684
	c2.901,1.937,4.355,4.185,4.355,6.749c-0.824,2.611-2.274,4.522-4.355,5.731h-2.684c-2.901-1.935-4.352-4.185-4.352-6.746
	C135.017,37.078,136.468,35.165,138.596,33.956z M138.596,49.336h2.684c2.901,1.887,4.355,4.113,4.355,6.674
	c-0.824,2.663-2.274,4.597-4.355,5.803h-2.684c-2.901-1.935-4.352-4.179-4.352-6.746C135.017,52.456,136.468,50.545,138.596,49.336z
	 M138.596,64.714h2.684c2.901,1.887,4.355,4.113,4.355,6.674c-0.824,2.663-2.274,4.597-4.355,5.809h-2.684
	c-2.901-1.934-4.352-4.185-4.352-6.752C135.017,67.789,136.468,65.878,138.596,64.714z M138.596,80.027h2.684
	c2.901,1.934,4.355,4.185,4.355,6.746c-0.824,2.609-2.274,4.519-4.355,5.731h-2.684c-2.901-1.886-4.352-4.113-4.352-6.674
	C135.017,83.173,136.468,81.239,138.596,80.027z M138.596,95.405h2.684c2.901,1.94,4.355,4.185,4.355,6.752
	c-0.824,2.608-2.274,4.519-4.355,5.73h-2.684c-2.901-1.934-4.352-4.19-4.352-6.746C135.017,98.527,136.468,96.617,138.596,95.405z"
	/>
<path fill="#F48043" d="M164.496,3.269h2.683c2.904,1.886,4.355,4.11,4.355,6.674c-0.773,2.66-2.227,4.597-4.355,5.806h-2.683
	c-2.901-1.937-4.352-4.185-4.352-6.749C160.964,6.34,162.415,4.43,164.496,3.269z M164.496,18.578h2.683
	c2.904,1.934,4.355,4.182,4.355,6.746c-0.773,2.66-2.227,4.57-4.355,5.731h-2.683c-2.901-1.886-4.352-4.11-4.352-6.674
	C160.964,21.721,162.415,19.787,164.496,18.578z M164.496,33.956h2.683c2.904,1.937,4.355,4.185,4.355,6.749
	c-0.773,2.611-2.227,4.522-4.355,5.731h-2.683c-2.901-1.935-4.352-4.185-4.352-6.746C160.964,37.078,162.415,35.165,164.496,33.956z
	 M164.496,49.336h2.683c2.904,1.887,4.355,4.113,4.355,6.674c-0.773,2.663-2.227,4.597-4.355,5.803h-2.683
	c-2.901-1.935-4.352-4.179-4.352-6.746C160.964,52.456,162.415,50.545,164.496,49.336z M164.496,64.714h2.683
	c2.904,1.887,4.355,4.113,4.355,6.674c-0.773,2.663-2.227,4.597-4.355,5.809h-2.683c-2.901-1.934-4.352-4.185-4.352-6.752
	C160.964,67.789,162.415,65.878,164.496,64.714z M164.496,80.027h2.683c2.904,1.934,4.355,4.185,4.355,6.746
	c-0.773,2.609-2.227,4.519-4.355,5.731h-2.683c-2.901-1.886-4.352-4.113-4.352-6.674C160.964,83.173,162.415,81.239,164.496,80.027z
	 M164.496,95.405h2.683c2.904,1.94,4.355,4.185,4.355,6.752c-0.773,2.608-2.227,4.519-4.355,5.73h-2.683
	c-2.901-1.934-4.352-4.19-4.352-6.746C160.964,98.527,162.415,96.617,164.496,95.405z M177.7,18.578h2.612
	c2.949,1.934,4.424,4.182,4.424,6.746c-0.821,2.66-2.295,4.57-4.424,5.731H177.7c-2.952-1.886-4.426-4.11-4.426-6.674
	C174.098,21.721,175.572,19.787,177.7,18.578z M190.831,33.956h2.684c2.904,1.937,4.355,4.185,4.355,6.749
	c-0.824,2.611-2.274,4.522-4.355,5.731h-2.684c-2.901-1.935-4.352-4.185-4.352-6.746C187.3,37.078,188.75,35.165,190.831,33.956z
	 M190.831,49.336h2.684c2.904,1.887,4.355,4.113,4.355,6.674c-0.824,2.663-2.274,4.597-4.355,5.803h-2.684
	c-2.901-1.935-4.352-4.179-4.352-6.746C187.3,52.456,188.75,50.545,190.831,49.336z M204.036,18.578h2.612
	c2.949,1.934,4.427,4.182,4.427,6.746c-0.824,2.66-2.298,4.57-4.427,5.731h-2.612c-2.952-1.886-4.426-4.11-4.426-6.674
	C200.433,21.721,201.908,19.787,204.036,18.578z M217.166,3.269h2.687c2.901,1.886,4.352,4.11,4.352,6.674
	c-0.824,2.66-2.274,4.597-4.352,5.806h-2.687c-2.901-1.937-4.352-4.185-4.352-6.749C213.587,6.34,215.038,4.43,217.166,3.269z
	 M217.166,18.578h2.687c2.901,1.934,4.352,4.182,4.352,6.746c-0.824,2.66-2.274,4.57-4.352,5.731h-2.687
	c-2.901-1.886-4.352-4.11-4.352-6.674C213.587,21.721,215.038,19.787,217.166,18.578z M217.166,33.956h2.687
	c2.901,1.937,4.352,4.185,4.352,6.749c-0.824,2.611-2.274,4.522-4.352,5.731h-2.687c-2.901-1.935-4.352-4.185-4.352-6.746
	C213.587,37.078,215.038,35.165,217.166,33.956z M217.166,49.336h2.687c2.901,1.887,4.352,4.113,4.352,6.674
	c-0.824,2.663-2.274,4.597-4.352,5.803h-2.687c-2.901-1.935-4.352-4.179-4.352-6.746C213.587,52.456,215.038,50.545,217.166,49.336z
	 M217.166,64.714h2.687c2.901,1.887,4.352,4.113,4.352,6.674c-0.824,2.663-2.274,4.597-4.352,5.809h-2.687
	c-2.901-1.934-4.352-4.185-4.352-6.752C213.587,67.789,215.038,65.878,217.166,64.714z M217.166,80.027h2.687
	c2.901,1.934,4.352,4.185,4.352,6.746c-0.824,2.609-2.274,4.519-4.352,5.731h-2.687c-2.901-1.886-4.352-4.113-4.352-6.674
	C213.587,83.173,215.038,81.239,217.166,80.027z M217.166,95.405h2.687c2.901,1.94,4.352,4.185,4.352,6.752
	c-0.824,2.608-2.274,4.519-4.352,5.73h-2.687c-2.901-1.934-4.352-4.19-4.352-6.746C213.587,98.527,215.038,96.617,217.166,95.405z"
	/>
<path fill="#F48043" d="M243.066,3.269h2.686c2.901,1.886,4.352,4.11,4.352,6.674c-0.773,2.66-2.224,4.597-4.352,5.806h-2.686
	c-2.901-1.937-4.352-4.185-4.352-6.749C239.538,6.34,240.988,4.43,243.066,3.269z M243.066,18.578h2.686
	c2.901,1.934,4.352,4.182,4.352,6.746c-0.773,2.66-2.224,4.57-4.352,5.731h-2.686c-2.901-1.886-4.352-4.11-4.352-6.674
	C239.538,21.721,240.988,19.787,243.066,18.578z M243.066,33.956h2.686c2.901,1.937,4.352,4.185,4.352,6.749
	c-0.773,2.611-2.224,4.522-4.352,5.731h-2.686c-2.901-1.935-4.352-4.185-4.352-6.746C239.538,37.078,240.988,35.165,243.066,33.956z
	 M243.066,49.336h2.686c2.901,1.887,4.352,4.113,4.352,6.674c-0.773,2.663-2.224,4.597-4.352,5.803h-2.686
	c-2.901-1.935-4.352-4.179-4.352-6.746C239.538,52.456,240.988,50.545,243.066,49.336z M243.066,64.714h2.686
	c2.901,1.887,4.352,4.113,4.352,6.674c-0.773,2.663-2.224,4.597-4.352,5.809h-2.686c-2.901-1.934-4.352-4.185-4.352-6.752
	C239.538,67.789,240.988,65.878,243.066,64.714z M243.066,80.027h2.686c2.901,1.934,4.352,4.185,4.352,6.746
	c-0.773,2.609-2.224,4.519-4.352,5.731h-2.686c-2.901-1.886-4.352-4.113-4.352-6.674C239.538,83.173,240.988,81.239,243.066,80.027z
	 M243.066,95.405h2.686c2.901,1.94,4.352,4.185,4.352,6.752c-0.773,2.608-2.224,4.519-4.352,5.73h-2.686
	c-2.901-1.934-4.352-4.19-4.352-6.746C239.538,98.527,240.988,96.617,243.066,95.405z M256.271,3.269h2.612
	c2.952,1.886,4.427,4.11,4.427,6.674c-0.824,2.66-2.298,4.597-4.427,5.806h-2.612c-2.949-1.937-4.426-4.185-4.426-6.749
	C252.668,6.34,254.143,4.43,256.271,3.269z M256.271,49.336h2.612c2.952,1.887,4.427,4.113,4.427,6.674
	c-0.824,2.663-2.298,4.597-4.427,5.803h-2.612c-2.949-1.935-4.426-4.179-4.426-6.746C252.668,52.456,254.143,50.545,256.271,49.336z
	 M256.271,95.405h2.612c2.952,1.94,4.427,4.185,4.427,6.752c-0.824,2.608-2.298,4.519-4.427,5.73h-2.612
	c-2.949-1.934-4.426-4.19-4.426-6.746C252.668,98.527,254.143,96.617,256.271,95.405z M269.401,3.269h2.687
	c2.901,1.886,4.352,4.11,4.352,6.674c-0.821,2.66-2.271,4.597-4.352,5.806h-2.687c-2.901-1.937-4.352-4.185-4.352-6.749
	C265.873,6.34,267.324,4.43,269.401,3.269z M269.401,49.336h2.687c2.901,1.887,4.352,4.113,4.352,6.674
	c-0.821,2.663-2.271,4.597-4.352,5.803h-2.687c-2.901-1.935-4.352-4.179-4.352-6.746C265.873,52.456,267.324,50.545,269.401,49.336z
	 M269.401,95.405h2.687c2.901,1.94,4.352,4.185,4.352,6.752c-0.821,2.608-2.271,4.519-4.352,5.73h-2.687
	c-2.901-1.934-4.352-4.19-4.352-6.746C265.873,98.527,267.324,96.617,269.401,95.405z M282.606,3.269h2.612
	c2.952,1.886,4.426,4.11,4.426,6.674c-0.824,2.66-2.298,4.597-4.426,5.806h-2.612c-2.949-1.937-4.426-4.185-4.426-6.749
	C279.003,6.34,280.478,4.43,282.606,3.269z M282.606,49.336h2.612c2.952,1.887,4.426,4.113,4.426,6.674
	c-0.824,2.663-2.298,4.597-4.426,5.803h-2.612c-2.949-1.935-4.426-4.179-4.426-6.746C279.003,52.456,280.478,50.545,282.606,49.336z
	 M282.606,95.405h2.612c2.952,1.94,4.426,4.185,4.426,6.752c-0.824,2.608-2.298,4.519-4.426,5.73h-2.612
	c-2.949-1.934-4.426-4.19-4.426-6.746C279.003,98.527,280.478,96.617,282.606,95.405z M295.739,3.269h2.684
	c2.901,1.886,4.352,4.11,4.352,6.674c-0.821,2.66-2.271,4.597-4.352,5.806h-2.684c-2.904-1.937-4.355-4.185-4.355-6.749
	C292.158,6.34,293.611,4.43,295.739,3.269z M295.739,95.405h2.684c2.901,1.94,4.352,4.185,4.352,6.752
	c-0.821,2.608-2.271,4.519-4.352,5.73h-2.684c-2.904-1.934-4.355-4.19-4.355-6.746C292.158,98.527,293.611,96.617,295.739,95.405z"
	/>
<path fill="#F48043" d="M323.522,33.956h2.684c2.9,1.937,4.352,4.185,4.352,6.749c-0.82,2.611-2.271,4.522-4.352,5.731h-2.684
	c-2.901-1.935-4.355-4.185-4.355-6.746C319.991,37.078,321.442,35.165,323.522,33.956z M323.522,64.714h2.684
	c2.9,1.887,4.352,4.113,4.352,6.674c-0.82,2.663-2.271,4.597-4.352,5.809h-2.684c-2.901-1.934-4.355-4.185-4.355-6.752
	C319.991,67.789,321.442,65.878,323.522,64.714z"/>
<path fill="#F48043" d="M368.749,64.714h2.686c2.902,1.887,4.347,4.113,4.347,6.674c-0.771,2.663-2.221,4.597-4.347,5.809h-2.686
	c-2.901-1.934-4.357-4.185-4.357-6.752C365.215,67.789,366.671,65.878,368.749,64.714z M368.749,80.027h2.686
	c2.902,1.934,4.347,4.185,4.347,6.746c-0.771,2.609-2.221,4.519-4.347,5.731h-2.686c-2.901-1.886-4.357-4.113-4.357-6.674
	C365.215,83.173,366.671,81.239,368.749,80.027z M381.954,95.405h2.608c2.949,1.94,4.424,4.185,4.424,6.752
	c-0.824,2.608-2.292,4.519-4.424,5.73h-2.608c-2.949-1.934-4.43-4.19-4.43-6.746C378.349,98.527,379.823,96.617,381.954,95.405z
	 M395.081,95.405h2.687c2.901,1.94,4.353,4.185,4.353,6.752c-0.824,2.608-2.275,4.519-4.353,5.73h-2.687
	c-2.901-1.934-4.352-4.19-4.352-6.746C391.554,98.527,393.004,96.617,395.081,95.405z M408.286,95.405h2.609
	c2.949,1.94,4.43,4.185,4.43,6.752c-0.824,2.608-2.299,4.519-4.43,5.73h-2.609c-2.949-1.934-4.424-4.19-4.424-6.746
	C404.687,98.527,406.155,96.617,408.286,95.405z M421.413,3.269h2.688c2.9,1.886,4.357,4.11,4.357,6.674
	c-0.824,2.66-2.281,4.597-4.357,5.806h-2.688c-2.9-1.937-4.346-4.185-4.346-6.749C417.838,6.34,419.288,4.43,421.413,3.269z
	 M421.413,18.578h2.688c2.9,1.934,4.357,4.182,4.357,6.746c-0.824,2.66-2.281,4.57-4.357,5.731h-2.688
	c-2.9-1.886-4.346-4.11-4.346-6.674C417.838,21.721,419.288,19.787,421.413,18.578z M421.413,33.956h2.688
	c2.9,1.937,4.357,4.185,4.357,6.749c-0.824,2.611-2.281,4.522-4.357,5.731h-2.688c-2.9-1.935-4.346-4.185-4.346-6.746
	C417.838,37.078,419.288,35.165,421.413,33.956z M421.413,49.336h2.688c2.9,1.887,4.357,4.113,4.357,6.674
	c-0.824,2.663-2.281,4.597-4.357,5.803h-2.688c-2.9-1.935-4.346-4.179-4.346-6.746C417.838,52.456,419.288,50.545,421.413,49.336z
	 M421.413,64.714h2.688c2.9,1.887,4.357,4.113,4.357,6.674c-0.824,2.663-2.281,4.597-4.357,5.809h-2.688
	c-2.9-1.934-4.346-4.185-4.346-6.752C417.838,67.789,419.288,65.878,421.413,64.714z M421.413,80.027h2.688
	c2.9,1.934,4.357,4.185,4.357,6.746c-0.824,2.609-2.281,4.519-4.357,5.731h-2.688c-2.9-1.886-4.346-4.113-4.346-6.674
	C417.838,83.173,419.288,81.239,421.413,80.027z"/>
<path fill="#F48043" d="M447.322,18.578h2.681c2.9,1.934,4.352,4.182,4.352,6.746c-0.776,2.66-2.221,4.57-4.352,5.731h-2.681
	c-2.907-1.886-4.358-4.11-4.358-6.674C443.788,21.721,445.239,19.787,447.322,18.578z M447.322,33.956h2.681
	c2.9,1.937,4.352,4.185,4.352,6.749c-0.776,2.611-2.221,4.522-4.352,5.731h-2.681c-2.907-1.935-4.358-4.185-4.358-6.746
	C443.788,37.078,445.239,35.165,447.322,33.956z M447.322,49.336h2.681c2.9,1.887,4.352,4.113,4.352,6.674
	c-0.776,2.663-2.221,4.597-4.352,5.803h-2.681c-2.907-1.935-4.358-4.179-4.358-6.746C443.788,52.456,445.239,50.545,447.322,49.336z
	 M447.322,64.714h2.681c2.9,1.887,4.352,4.113,4.352,6.674c-0.776,2.663-2.221,4.597-4.352,5.809h-2.681
	c-2.907-1.934-4.358-4.185-4.358-6.752C443.788,67.789,445.239,65.878,447.322,64.714z M447.322,80.027h2.681
	c2.9,1.934,4.352,4.185,4.352,6.746c-0.776,2.609-2.221,4.519-4.352,5.731h-2.681c-2.907-1.886-4.358-4.113-4.358-6.674
	C443.788,83.173,445.239,81.239,447.322,80.027z M460.521,3.269h2.609c2.955,1.886,4.43,4.11,4.43,6.674
	c-0.824,2.66-2.299,4.597-4.43,5.806h-2.609c-2.949-1.937-4.423-4.185-4.423-6.749C456.921,6.34,458.39,4.43,460.521,3.269z
	 M460.521,95.405h2.609c2.955,1.94,4.43,4.185,4.43,6.752c-0.824,2.608-2.299,4.519-4.43,5.73h-2.609
	c-2.949-1.934-4.423-4.19-4.423-6.746C456.921,98.527,458.39,96.617,460.521,95.405z M473.654,3.269h2.681
	c2.9,1.886,4.357,4.11,4.357,6.674c-0.824,2.66-2.273,4.597-4.357,5.806h-2.681c-2.907-1.937-4.353-4.185-4.353-6.749
	C470.126,6.34,471.571,4.43,473.654,3.269z M473.654,95.405h2.681c2.9,1.94,4.357,4.185,4.357,6.752
	c-0.824,2.608-2.273,4.519-4.357,5.73h-2.681c-2.907-1.934-4.353-4.19-4.353-6.746C470.126,98.527,471.571,96.617,473.654,95.405z
	 M486.854,3.269h2.614c2.949,1.886,4.43,4.11,4.43,6.674c-0.824,2.66-2.305,4.597-4.43,5.806h-2.614
	c-2.949-1.937-4.417-4.185-4.417-6.749C483.254,6.34,484.728,4.43,486.854,3.269z M486.854,95.405h2.614
	c2.949,1.94,4.43,4.185,4.43,6.752c-0.824,2.608-2.305,4.519-4.43,5.73h-2.614c-2.949-1.934-4.417-4.19-4.417-6.746
	C483.254,98.527,484.728,96.617,486.854,95.405z M499.987,18.578h2.686c2.901,1.934,4.352,4.182,4.352,6.746
	c-0.817,2.66-2.273,4.57-4.352,5.731h-2.686c-2.902-1.886-4.353-4.11-4.353-6.674C496.411,21.721,497.862,19.787,499.987,18.578z
	 M499.987,33.956h2.686c2.901,1.937,4.352,4.185,4.352,6.749c-0.817,2.611-2.273,4.522-4.352,5.731h-2.686
	c-2.902-1.935-4.353-4.185-4.353-6.746C496.411,37.078,497.862,35.165,499.987,33.956z M499.987,49.336h2.686
	c2.901,1.887,4.352,4.113,4.352,6.674c-0.817,2.663-2.273,4.597-4.352,5.803h-2.686c-2.902-1.935-4.353-4.179-4.353-6.746
	C496.411,52.456,497.862,50.545,499.987,49.336z M499.987,64.714h2.686c2.901,1.887,4.352,4.113,4.352,6.674
	c-0.817,2.663-2.273,4.597-4.352,5.809h-2.686c-2.902-1.934-4.353-4.185-4.353-6.752C496.411,67.789,497.862,65.878,499.987,64.714z
	 M499.987,80.027h2.686c2.901,1.934,4.352,4.185,4.352,6.746c-0.817,2.609-2.273,4.519-4.352,5.731h-2.686
	c-2.902-1.886-4.353-4.113-4.353-6.674C496.411,83.173,497.862,81.239,499.987,80.027z"/>
<path fill="#F48043" d="M525.89,3.269h2.68c2.902,1.886,4.358,4.11,4.358,6.674c-0.776,2.66-2.228,4.597-4.358,5.806h-2.68
	c-2.902-1.937-4.352-4.185-4.352-6.749C522.361,6.34,523.806,4.43,525.89,3.269z M525.89,18.578h2.68
	c2.902,1.934,4.358,4.182,4.358,6.746c-0.776,2.66-2.228,4.57-4.358,5.731h-2.68c-2.902-1.886-4.352-4.11-4.352-6.674
	C522.361,21.721,523.806,19.787,525.89,18.578z M525.89,33.956h2.68c2.902,1.937,4.358,4.185,4.358,6.749
	c-0.776,2.611-2.228,4.522-4.358,5.731h-2.68c-2.902-1.935-4.352-4.185-4.352-6.746C522.361,37.078,523.806,35.165,525.89,33.956z
	 M525.89,49.336h2.68c2.902,1.887,4.358,4.113,4.358,6.674c-0.776,2.663-2.228,4.597-4.358,5.803h-2.68
	c-2.902-1.935-4.352-4.179-4.352-6.746C522.361,52.456,523.806,50.545,525.89,49.336z M525.89,64.714h2.68
	c2.902,1.887,4.358,4.113,4.358,6.674c-0.776,2.663-2.228,4.597-4.358,5.809h-2.68c-2.902-1.934-4.352-4.185-4.352-6.752
	C522.361,67.789,523.806,65.878,525.89,64.714z M525.89,80.027h2.68c2.902,1.934,4.358,4.185,4.358,6.746
	c-0.776,2.609-2.228,4.519-4.358,5.731h-2.68c-2.902-1.886-4.352-4.113-4.352-6.674C522.361,83.173,523.806,81.239,525.89,80.027z
	 M525.89,95.405h2.68c2.902,1.94,4.358,4.185,4.358,6.752c-0.776,2.608-2.228,4.519-4.358,5.73h-2.68
	c-2.902-1.934-4.352-4.19-4.352-6.746C522.361,98.527,523.806,96.617,525.89,95.405z M539.095,3.269h2.608
	c2.948,1.886,4.429,4.11,4.429,6.674c-0.823,2.66-2.297,4.597-4.429,5.806h-2.608c-2.955-1.937-4.424-4.185-4.424-6.749
	C535.489,6.34,536.964,4.43,539.095,3.269z M539.095,49.336h2.608c2.948,1.887,4.429,4.113,4.429,6.674
	c-0.823,2.663-2.297,4.597-4.429,5.803h-2.608c-2.955-1.935-4.424-4.179-4.424-6.746C535.489,52.456,536.964,50.545,539.095,49.336z
	 M552.222,3.269h2.687c2.901,1.886,4.358,4.11,4.358,6.674c-0.824,2.66-2.281,4.597-4.358,5.806h-2.687
	c-2.901-1.937-4.346-4.185-4.346-6.749C548.694,6.34,550.144,4.43,552.222,3.269z M552.222,49.336h2.687
	c2.901,1.887,4.358,4.113,4.358,6.674c-0.824,2.663-2.281,4.597-4.358,5.803h-2.687c-2.901-1.935-4.346-4.179-4.346-6.746
	C548.694,52.456,550.144,50.545,552.222,49.336z M552.222,64.714h2.687c2.901,1.887,4.358,4.113,4.358,6.674
	c-0.824,2.663-2.281,4.597-4.358,5.809h-2.687c-2.901-1.934-4.346-4.185-4.346-6.752C548.694,67.789,550.144,65.878,552.222,64.714z
	 M565.427,3.269h2.615c2.948,1.886,4.423,4.11,4.423,6.674c-0.817,2.66-2.298,4.597-4.423,5.806h-2.615
	c-2.949-1.937-4.424-4.185-4.424-6.749C561.821,6.34,563.302,4.43,565.427,3.269z M565.427,49.336h2.615
	c2.948,1.887,4.423,4.113,4.423,6.674c-0.817,2.663-2.298,4.597-4.423,5.803h-2.615c-2.949-1.935-4.424-4.179-4.424-6.746
	C561.821,52.456,563.302,50.545,565.427,49.336z M565.427,80.027h2.615c2.948,1.934,4.423,4.185,4.423,6.746
	c-0.817,2.609-2.298,4.519-4.423,5.731h-2.615c-2.949-1.886-4.424-4.113-4.424-6.674C561.821,83.173,563.302,81.239,565.427,80.027z
	 M578.56,18.578h2.688c2.9,1.934,4.352,4.182,4.352,6.746c-0.824,2.66-2.275,4.57-4.352,5.731h-2.688
	c-2.9-1.886-4.352-4.11-4.352-6.674C574.978,21.721,576.435,19.787,578.56,18.578z M578.56,33.956h2.688
	c2.9,1.937,4.352,4.185,4.352,6.749c-0.824,2.611-2.275,4.522-4.352,5.731h-2.688c-2.9-1.935-4.352-4.185-4.352-6.746
	C574.978,37.078,576.435,35.165,578.56,33.956z M578.56,95.405h2.688c2.9,1.94,4.352,4.185,4.352,6.752
	c-0.824,2.608-2.275,4.519-4.352,5.73h-2.688c-2.9-1.934-4.352-4.19-4.352-6.746C574.978,98.527,576.435,96.617,578.56,95.405z"/>
<path fill="#F48043" d="M604.456,3.269h2.688c2.9,1.886,4.357,4.11,4.357,6.674c-0.776,2.66-2.232,4.597-4.357,5.806h-2.688
	c-2.9-1.937-4.346-4.185-4.346-6.749C600.929,6.34,602.38,4.43,604.456,3.269z M604.456,18.578h2.688
	c2.9,1.934,4.357,4.182,4.357,6.746c-0.776,2.66-2.232,4.57-4.357,5.731h-2.688c-2.9-1.886-4.346-4.11-4.346-6.674
	C600.929,21.721,602.38,19.787,604.456,18.578z M604.456,33.956h2.688c2.9,1.937,4.357,4.185,4.357,6.749
	c-0.776,2.611-2.232,4.522-4.357,5.731h-2.688c-2.9-1.935-4.346-4.185-4.346-6.746C600.929,37.078,602.38,35.165,604.456,33.956z
	 M604.456,49.336h2.688c2.9,1.887,4.357,4.113,4.357,6.674c-0.776,2.663-2.232,4.597-4.357,5.803h-2.688
	c-2.9-1.935-4.346-4.179-4.346-6.746C600.929,52.456,602.38,50.545,604.456,49.336z M604.456,64.714h2.688
	c2.9,1.887,4.357,4.113,4.357,6.674c-0.776,2.663-2.232,4.597-4.357,5.809h-2.688c-2.9-1.934-4.346-4.185-4.346-6.752
	C600.929,67.789,602.38,65.878,604.456,64.714z M604.456,80.027h2.688c2.9,1.934,4.357,4.185,4.357,6.746
	c-0.776,2.609-2.232,4.519-4.357,5.731h-2.688c-2.9-1.886-4.346-4.113-4.346-6.674C600.929,83.173,602.38,81.239,604.456,80.027z
	 M604.456,95.405h2.688c2.9,1.94,4.357,4.185,4.357,6.752c-0.776,2.608-2.232,4.519-4.357,5.73h-2.688
	c-2.9-1.934-4.346-4.19-4.346-6.746C600.929,98.527,602.38,96.617,604.456,95.405z M617.661,3.269h2.615
	c2.949,1.886,4.43,4.11,4.43,6.674c-0.824,2.66-2.305,4.597-4.43,5.806h-2.615c-2.949-1.937-4.424-4.185-4.424-6.749
	C614.062,6.34,615.536,4.43,617.661,3.269z M617.661,95.405h2.615c2.949,1.94,4.43,4.185,4.43,6.752
	c-0.824,2.608-2.305,4.519-4.43,5.73h-2.615c-2.949-1.934-4.424-4.19-4.424-6.746C614.062,98.527,615.536,96.617,617.661,95.405z
	 M630.795,3.269h2.687c2.9,1.886,4.352,4.11,4.352,6.674c-0.824,2.66-2.273,4.597-4.352,5.806h-2.687
	c-2.901-1.937-4.353-4.185-4.353-6.749C627.261,6.34,628.718,4.43,630.795,3.269z M630.795,95.405h2.687
	c2.9,1.94,4.352,4.185,4.352,6.752c-0.824,2.608-2.273,4.519-4.352,5.73h-2.687c-2.901-1.934-4.353-4.19-4.353-6.746
	C627.261,98.527,628.718,96.617,630.795,95.405z M643.999,3.269h2.615c2.949,1.886,4.424,4.11,4.424,6.674
	c-0.824,2.66-2.299,4.597-4.424,5.806h-2.615c-2.947-1.937-4.428-4.185-4.428-6.749C640.394,6.34,641.874,4.43,643.999,3.269z
	 M643.999,95.405h2.615c2.949,1.94,4.424,4.185,4.424,6.752c-0.824,2.608-2.299,4.519-4.424,5.73h-2.615
	c-2.947-1.934-4.428-4.19-4.428-6.746C640.394,98.527,641.874,96.617,643.999,95.405z M657.134,18.578h2.686
	c2.902,1.934,4.346,4.182,4.346,6.746c-0.824,2.66-2.268,4.57-4.346,5.731h-2.686c-2.902-1.886-4.359-4.11-4.359-6.674
	C653.552,21.721,655.003,19.787,657.134,18.578z M657.134,33.956h2.686c2.902,1.937,4.346,4.185,4.346,6.749
	c-0.824,2.611-2.268,4.522-4.346,5.731h-2.686c-2.902-1.935-4.359-4.185-4.359-6.746C653.552,37.078,655.003,35.165,657.134,33.956z
	 M657.134,49.336h2.686c2.902,1.887,4.346,4.113,4.346,6.674c-0.824,2.663-2.268,4.597-4.346,5.803h-2.686
	c-2.902-1.935-4.359-4.179-4.359-6.746C653.552,52.456,655.003,50.545,657.134,49.336z M657.134,64.714h2.686
	c2.902,1.887,4.346,4.113,4.346,6.674c-0.824,2.663-2.268,4.597-4.346,5.809h-2.686c-2.902-1.934-4.359-4.185-4.359-6.752
	C653.552,67.789,655.003,65.878,657.134,64.714z M657.134,80.027h2.686c2.902,1.934,4.346,4.185,4.346,6.746
	c-0.824,2.609-2.268,4.519-4.346,5.731h-2.686c-2.902-1.886-4.359-4.113-4.359-6.674C653.552,83.173,655.003,81.239,657.134,80.027z
	"/>
<path fill="#F48043" d="M683.03,18.578h2.686c2.902,1.934,4.352,4.182,4.352,6.746c-0.77,2.66-2.227,4.57-4.352,5.731h-2.686
	c-2.902-1.886-4.352-4.11-4.352-6.674C679.501,21.721,680.952,19.787,683.03,18.578z M683.03,33.956h2.686
	c2.902,1.937,4.352,4.185,4.352,6.749c-0.77,2.611-2.227,4.522-4.352,5.731h-2.686c-2.902-1.935-4.352-4.185-4.352-6.746
	C679.501,37.078,680.952,35.165,683.03,33.956z M683.03,49.336h2.686c2.902,1.887,4.352,4.113,4.352,6.674
	c-0.77,2.663-2.227,4.597-4.352,5.803h-2.686c-2.902-1.935-4.352-4.179-4.352-6.746C679.501,52.456,680.952,50.545,683.03,49.336z
	 M683.03,64.714h2.686c2.902,1.887,4.352,4.113,4.352,6.674c-0.77,2.663-2.227,4.597-4.352,5.809h-2.686
	c-2.902-1.934-4.352-4.185-4.352-6.752C679.501,67.789,680.952,65.878,683.03,64.714z M683.03,80.027h2.686
	c2.902,1.934,4.352,4.185,4.352,6.746c-0.77,2.609-2.227,4.519-4.352,5.731h-2.686c-2.902-1.886-4.352-4.113-4.352-6.674
	C679.501,83.173,680.952,81.239,683.03,80.027z M683.03,95.405h2.686c2.902,1.94,4.352,4.185,4.352,6.752
	c-0.77,2.608-2.227,4.519-4.352,5.73h-2.686c-2.902-1.934-4.352-4.19-4.352-6.746C679.501,98.527,680.952,96.617,683.03,95.405z
	 M696.235,3.269h2.613c2.949,1.886,4.424,4.11,4.424,6.674c-0.822,2.66-2.297,4.597-4.424,5.806h-2.613
	c-2.949-1.937-4.43-4.185-4.43-6.749C692.63,6.34,694.11,4.43,696.235,3.269z M696.235,49.336h2.613
	c2.949,1.887,4.424,4.113,4.424,6.674c-0.822,2.663-2.297,4.597-4.424,5.803h-2.613c-2.949-1.935-4.43-4.179-4.43-6.746
	C692.63,52.456,694.11,50.545,696.235,49.336z M709.368,3.269h2.686c2.902,1.886,4.348,4.11,4.348,6.674
	c-0.818,2.66-2.27,4.597-4.348,5.806h-2.686c-2.9-1.937-4.357-4.185-4.357-6.749C705.835,6.34,707.29,4.43,709.368,3.269z
	 M709.368,49.336h2.686c2.902,1.887,4.348,4.113,4.348,6.674c-0.818,2.663-2.27,4.597-4.348,5.803h-2.686
	c-2.9-1.935-4.357-4.179-4.357-6.746C705.835,52.456,707.29,50.545,709.368,49.336z M722.573,3.269h2.609
	c2.955,1.886,4.422,4.11,4.422,6.674c-0.822,2.66-2.291,4.597-4.422,5.806h-2.609c-2.949-1.937-4.43-4.185-4.43-6.749
	C718.968,6.34,720.442,4.43,722.573,3.269z M722.573,49.336h2.609c2.955,1.887,4.422,4.113,4.422,6.674
	c-0.822,2.663-2.291,4.597-4.422,5.803h-2.609c-2.949-1.935-4.43-4.179-4.43-6.746C718.968,52.456,720.442,50.545,722.573,49.336z
	 M735.706,18.578h2.682c2.9,1.934,4.352,4.182,4.352,6.746c-0.824,2.66-2.27,4.57-4.352,5.731h-2.682
	c-2.906-1.886-4.357-4.11-4.357-6.674C732.124,21.721,733.575,19.787,735.706,18.578z M735.706,33.956h2.682
	c2.9,1.937,4.352,4.185,4.352,6.749c-0.824,2.611-2.27,4.522-4.352,5.731h-2.682c-2.906-1.935-4.357-4.185-4.357-6.746
	C732.124,37.078,733.575,35.165,735.706,33.956z M735.706,49.336h2.682c2.9,1.887,4.352,4.113,4.352,6.674
	c-0.824,2.663-2.27,4.597-4.352,5.803h-2.682c-2.906-1.935-4.357-4.179-4.357-6.746C732.124,52.456,733.575,50.545,735.706,49.336z
	 M735.706,64.714h2.682c2.9,1.887,4.352,4.113,4.352,6.674c-0.824,2.663-2.27,4.597-4.352,5.809h-2.682
	c-2.906-1.934-4.357-4.185-4.357-6.752C732.124,67.789,733.575,65.878,735.706,64.714z M735.706,80.027h2.682
	c2.9,1.934,4.352,4.185,4.352,6.746c-0.824,2.609-2.27,4.519-4.352,5.731h-2.682c-2.906-1.886-4.357-4.113-4.357-6.674
	C732.124,83.173,733.575,81.239,735.706,80.027z M735.706,95.405h2.682c2.9,1.94,4.352,4.185,4.352,6.752
	c-0.824,2.608-2.27,4.519-4.352,5.73h-2.682c-2.906-1.934-4.357-4.19-4.357-6.746C732.124,98.527,733.575,96.617,735.706,95.405z"/>
<path fill="#F48043" d="M761.603,3.269h2.688c2.9,1.886,4.346,4.11,4.346,6.674c-0.77,2.66-2.221,4.597-4.346,5.806h-2.688
	c-2.9-1.937-4.357-4.185-4.357-6.749C758.069,6.34,759.526,4.43,761.603,3.269z M761.603,18.578h2.688
	c2.9,1.934,4.346,4.182,4.346,6.746c-0.77,2.66-2.221,4.57-4.346,5.731h-2.688c-2.9-1.886-4.357-4.11-4.357-6.674
	C758.069,21.721,759.526,19.787,761.603,18.578z M761.603,33.956h2.688c2.9,1.937,4.346,4.185,4.346,6.749
	c-0.77,2.611-2.221,4.522-4.346,5.731h-2.688c-2.9-1.935-4.357-4.185-4.357-6.746C758.069,37.078,759.526,35.165,761.603,33.956z
	 M761.603,49.336h2.688c2.9,1.887,4.346,4.113,4.346,6.674c-0.77,2.663-2.221,4.597-4.346,5.803h-2.688
	c-2.9-1.935-4.357-4.179-4.357-6.746C758.069,52.456,759.526,50.545,761.603,49.336z M761.603,64.714h2.688
	c2.9,1.887,4.346,4.113,4.346,6.674c-0.77,2.663-2.221,4.597-4.346,5.809h-2.688c-2.9-1.934-4.357-4.185-4.357-6.752
	C758.069,67.789,759.526,65.878,761.603,64.714z M761.603,80.027h2.688c2.9,1.934,4.346,4.185,4.346,6.746
	c-0.77,2.609-2.221,4.519-4.346,5.731h-2.688c-2.9-1.886-4.357-4.113-4.357-6.674C758.069,83.173,759.526,81.239,761.603,80.027z
	 M761.603,95.405h2.688c2.9,1.94,4.346,4.185,4.346,6.752c-0.77,2.608-2.221,4.519-4.346,5.73h-2.688
	c-2.9-1.934-4.357-4.19-4.357-6.746C758.069,98.527,759.526,96.617,761.603,95.405z M774.808,18.578h2.609
	c2.955,1.934,4.424,4.182,4.424,6.746c-0.818,2.66-2.293,4.57-4.424,5.731h-2.609c-2.949-1.886-4.43-4.11-4.43-6.674
	C771.202,21.721,772.677,19.787,774.808,18.578z M787.94,33.956h2.682c2.9,1.937,4.352,4.185,4.352,6.749
	c-0.824,2.611-2.268,4.522-4.352,5.731h-2.682c-2.9-1.935-4.357-4.185-4.357-6.746C784.407,37.078,785.858,35.165,787.94,33.956z
	 M801.14,49.336h2.609c2.955,1.887,4.43,4.113,4.43,6.674c-0.824,2.663-2.299,4.597-4.43,5.803h-2.609
	c-2.949-1.935-4.422-4.179-4.422-6.746C797.54,52.456,799.009,50.545,801.14,49.336z M814.274,3.269h2.68
	c2.9,1.886,4.357,4.11,4.357,6.674c-0.824,2.66-2.273,4.597-4.357,5.806h-2.68c-2.902-1.937-4.354-4.185-4.354-6.749
	C810.698,6.34,812.142,4.43,814.274,3.269z M814.274,18.578h2.68c2.9,1.934,4.357,4.182,4.357,6.746
	c-0.824,2.66-2.273,4.57-4.357,5.731h-2.68c-2.902-1.886-4.354-4.11-4.354-6.674C810.698,21.721,812.142,19.787,814.274,18.578z
	 M814.274,33.956h2.68c2.9,1.937,4.357,4.185,4.357,6.749c-0.824,2.611-2.273,4.522-4.357,5.731h-2.68
	c-2.902-1.935-4.354-4.185-4.354-6.746C810.698,37.078,812.142,35.165,814.274,33.956z M814.274,49.336h2.68
	c2.9,1.887,4.357,4.113,4.357,6.674c-0.824,2.663-2.273,4.597-4.357,5.803h-2.68c-2.902-1.935-4.354-4.179-4.354-6.746
	C810.698,52.456,812.142,50.545,814.274,49.336z M814.274,64.714h2.68c2.9,1.887,4.357,4.113,4.357,6.674
	c-0.824,2.663-2.273,4.597-4.357,5.809h-2.68c-2.902-1.934-4.354-4.185-4.354-6.752C810.698,67.789,812.142,65.878,814.274,64.714z
	 M814.274,80.027h2.68c2.9,1.934,4.357,4.185,4.357,6.746c-0.824,2.609-2.273,4.519-4.357,5.731h-2.68
	c-2.902-1.886-4.354-4.113-4.354-6.674C810.698,83.173,812.142,81.239,814.274,80.027z M814.274,95.405h2.68
	c2.9,1.94,4.357,4.185,4.357,6.752c-0.824,2.608-2.273,4.519-4.357,5.73h-2.68c-2.902-1.934-4.354-4.19-4.354-6.746
	C810.698,98.527,812.142,96.617,814.274,95.405z"/>
</svg>
