<?xml version="1.0" encoding="utf-8"?>
<!-- Generator: Adobe Illustrator 16.0.4, SVG Export Plug-In . SVG Version: 6.00 Build 0)  -->
<!DOCTYPE svg PUBLIC "-//W3C//DTD SVG 1.1//EN" "http://www.w3.org/Graphics/SVG/1.1/DTD/svg11.dtd">
<svg version="1.1" id="Layer_1" xmlns="http://www.w3.org/2000/svg" xmlns:xlink="http://www.w3.org/1999/xlink" x="0px" y="0px"
	 width="195.002px" height="35.667px" viewBox="0 0 195.002 35.667" enable-background="new 0 0 195.002 35.667"
	 xml:space="preserve">
<path fill="#00BF00" d="M4.776,1.881h0.818c0.885,0.575,1.328,1.254,1.328,2.035C6.686,4.729,6.244,5.319,5.594,5.687H4.776
	C3.891,5.098,3.448,4.411,3.448,3.63C3.7,2.817,4.142,2.235,4.776,1.881z M4.776,6.55h0.818c0.885,0.59,1.328,1.276,1.328,2.057
	c-0.236,0.812-0.678,1.395-1.328,1.749H4.776C3.891,9.781,3.448,9.102,3.448,8.319C3.7,7.509,4.142,6.919,4.776,6.55z M4.776,11.241
	h0.818c0.885,0.59,1.328,1.275,1.328,2.057c-0.236,0.797-0.678,1.38-1.328,1.748H4.776c-0.886-0.59-1.328-1.275-1.328-2.057
	C3.7,12.192,4.142,11.609,4.776,11.241z M4.776,15.932h0.818c0.885,0.575,1.328,1.253,1.328,2.036
	c-0.236,0.811-0.678,1.401-1.328,1.772H4.776c-0.886-0.591-1.328-1.277-1.328-2.06C3.7,16.883,4.142,16.3,4.776,15.932z
	 M4.776,20.623h0.818c0.885,0.576,1.328,1.252,1.328,2.035c-0.236,0.812-0.678,1.402-1.328,1.77H4.776
	c-0.886-0.59-1.328-1.275-1.328-2.057C3.7,21.559,4.142,20.976,4.776,20.623z M4.776,25.291h0.818
	c0.885,0.59,1.328,1.276,1.328,2.059c-0.236,0.797-0.678,1.379-1.328,1.747H4.776c-0.886-0.575-1.328-1.253-1.328-2.035
	C3.7,26.248,4.142,25.658,4.776,25.291z M4.776,29.98h0.818c0.885,0.589,1.328,1.275,1.328,2.057
	c-0.236,0.797-0.678,1.381-1.328,1.748H4.776c-0.886-0.59-1.328-1.273-1.328-2.058C3.7,30.933,4.142,30.35,4.776,29.98z M8.802,6.55
	h0.797c0.9,0.59,1.35,1.276,1.35,2.057c-0.252,0.812-0.701,1.395-1.35,1.749H8.802C7.903,9.781,7.454,9.102,7.454,8.319
	C7.704,7.509,8.153,6.919,8.802,6.55z M12.808,11.241h0.819c0.885,0.59,1.327,1.275,1.327,2.057c-0.25,0.797-0.692,1.38-1.327,1.748
	h-0.819c-0.886-0.59-1.328-1.275-1.328-2.057C11.731,12.192,12.173,11.609,12.808,11.241z M16.834,15.932h0.796
	c0.9,0.575,1.35,1.253,1.35,2.036c-0.251,0.811-0.701,1.401-1.35,1.772h-0.796c-0.899-0.591-1.349-1.277-1.349-2.06
	C15.735,16.883,16.185,16.3,16.834,15.932z M20.839,1.881h0.818c0.885,0.575,1.328,1.254,1.328,2.035
	c-0.251,0.812-0.693,1.402-1.328,1.771h-0.818c-0.886-0.589-1.328-1.276-1.328-2.057C19.748,2.817,20.19,2.235,20.839,1.881z
	 M20.839,6.55h0.818c0.885,0.59,1.328,1.276,1.328,2.057c-0.251,0.812-0.693,1.395-1.328,1.749h-0.818
	c-0.886-0.575-1.328-1.254-1.328-2.037C19.748,7.509,20.19,6.919,20.839,6.55z M20.839,11.241h0.818
	c0.885,0.59,1.328,1.275,1.328,2.057c-0.251,0.797-0.693,1.38-1.328,1.748h-0.818c-0.886-0.59-1.328-1.275-1.328-2.057
	C19.748,12.192,20.19,11.609,20.839,11.241z M20.839,15.932h0.818c0.885,0.575,1.328,1.253,1.328,2.036
	c-0.251,0.811-0.693,1.401-1.328,1.772h-0.818c-0.886-0.591-1.328-1.277-1.328-2.06C19.748,16.883,20.19,16.3,20.839,15.932z
	 M20.839,20.623h0.818c0.885,0.576,1.328,1.252,1.328,2.035c-0.251,0.812-0.693,1.402-1.328,1.77h-0.818
	c-0.886-0.59-1.328-1.275-1.328-2.057C19.748,21.559,20.19,20.976,20.839,20.623z M20.839,25.291h0.818
	c0.885,0.59,1.328,1.276,1.328,2.059c-0.251,0.797-0.693,1.379-1.328,1.747h-0.818c-0.886-0.575-1.328-1.253-1.328-2.035
	C19.748,26.248,20.19,25.658,20.839,25.291z M20.839,29.98h0.818c0.885,0.589,1.328,1.275,1.328,2.057
	c-0.251,0.797-0.693,1.381-1.328,1.748h-0.818c-0.886-0.59-1.328-1.273-1.328-2.058C19.748,30.933,20.19,30.35,20.839,29.98z"/>
<path fill="#00BF00" d="M28.738,1.881h0.818c0.884,0.575,1.328,1.254,1.328,2.035c-0.237,0.812-0.679,1.402-1.328,1.771h-0.818
	C27.853,5.098,27.41,4.411,27.41,3.63C27.662,2.817,28.104,2.235,28.738,1.881z M28.738,6.55h0.818
	c0.884,0.59,1.328,1.276,1.328,2.057c-0.237,0.812-0.679,1.395-1.328,1.749h-0.818c-0.885-0.575-1.328-1.254-1.328-2.037
	C27.662,7.509,28.104,6.919,28.738,6.55z M28.738,11.241h0.818c0.884,0.59,1.328,1.275,1.328,2.057
	c-0.237,0.797-0.679,1.38-1.328,1.748h-0.818c-0.885-0.59-1.328-1.275-1.328-2.057C27.662,12.192,28.104,11.609,28.738,11.241z
	 M28.738,15.932h0.818c0.884,0.575,1.328,1.253,1.328,2.036c-0.237,0.811-0.679,1.401-1.328,1.772h-0.818
	c-0.885-0.591-1.328-1.277-1.328-2.06C27.662,16.883,28.104,16.3,28.738,15.932z M28.738,20.623h0.818
	c0.884,0.576,1.328,1.252,1.328,2.035c-0.237,0.812-0.679,1.402-1.328,1.77h-0.818c-0.885-0.59-1.328-1.275-1.328-2.057
	C27.662,21.559,28.104,20.976,28.738,20.623z M28.738,25.291h0.818c0.884,0.59,1.328,1.276,1.328,2.059
	c-0.237,0.797-0.679,1.379-1.328,1.747h-0.818c-0.885-0.575-1.328-1.253-1.328-2.035C27.662,26.248,28.104,25.658,28.738,25.291z
	 M28.738,29.98h0.818c0.884,0.589,1.328,1.275,1.328,2.057c-0.237,0.797-0.679,1.381-1.328,1.748h-0.818
	c-0.885-0.59-1.328-1.273-1.328-2.058C27.662,30.933,28.104,30.35,28.738,29.98z M32.766,1.881h0.796
	c0.9,0.575,1.349,1.254,1.349,2.035c-0.25,0.812-0.701,1.402-1.349,1.771h-0.796c-0.9-0.589-1.35-1.276-1.35-2.057
	C31.666,2.817,32.117,2.235,32.766,1.881z M32.766,15.932h0.796c0.9,0.575,1.349,1.253,1.349,2.036
	c-0.25,0.811-0.701,1.401-1.349,1.772h-0.796c-0.9-0.591-1.35-1.277-1.35-2.06C31.666,16.883,32.117,16.3,32.766,15.932z
	 M32.766,29.98h0.796c0.9,0.589,1.349,1.275,1.349,2.057c-0.25,0.797-0.701,1.381-1.349,1.748h-0.796
	c-0.9-0.59-1.35-1.273-1.35-2.058C31.666,30.933,32.117,30.35,32.766,29.98z M36.77,1.881h0.819
	c0.885,0.575,1.328,1.254,1.328,2.035c-0.251,0.812-0.694,1.402-1.328,1.771H36.77c-0.885-0.589-1.327-1.276-1.327-2.057
	C35.693,2.817,36.135,2.235,36.77,1.881z M36.77,15.932h0.819c0.885,0.575,1.328,1.253,1.328,2.036
	c-0.251,0.811-0.694,1.401-1.328,1.772H36.77c-0.885-0.591-1.327-1.277-1.327-2.06C35.693,16.883,36.135,16.3,36.77,15.932z
	 M36.77,29.98h0.819c0.885,0.589,1.328,1.275,1.328,2.057c-0.251,0.797-0.694,1.381-1.328,1.748H36.77
	c-0.885-0.59-1.327-1.273-1.327-2.058C35.693,30.933,36.135,30.35,36.77,29.98z M40.797,1.881h0.797
	c0.899,0.575,1.349,1.254,1.349,2.035c-0.25,0.812-0.7,1.402-1.349,1.771h-0.797c-0.9-0.589-1.35-1.276-1.35-2.057
	C39.697,2.817,40.148,2.235,40.797,1.881z M40.797,15.932h0.797c0.899,0.575,1.349,1.253,1.349,2.036
	c-0.25,0.811-0.7,1.401-1.349,1.772h-0.797c-0.9-0.591-1.35-1.277-1.35-2.06C39.697,16.883,40.148,16.3,40.797,15.932z
	 M40.797,29.98h0.797c0.899,0.589,1.349,1.275,1.349,2.057c-0.25,0.797-0.7,1.381-1.349,1.748h-0.797
	c-0.9-0.59-1.35-1.273-1.35-2.058C39.697,30.933,40.148,30.35,40.797,29.98z M44.802,1.881h0.818
	c0.885,0.575,1.328,1.254,1.328,2.035c-0.251,0.812-0.693,1.402-1.328,1.771h-0.818c-0.885-0.589-1.328-1.276-1.328-2.057
	C43.709,2.817,44.152,2.235,44.802,1.881z M44.802,29.98h0.818c0.885,0.589,1.328,1.275,1.328,2.057
	c-0.251,0.797-0.693,1.381-1.328,1.748h-0.818c-0.885-0.59-1.328-1.273-1.328-2.058C43.709,30.933,44.152,30.35,44.802,29.98z"/>
<path fill="#00BF00" d="M52.7,1.881h0.818c0.886,0.575,1.328,1.254,1.328,2.035c-0.236,0.812-0.679,1.402-1.328,1.771H52.7
	c-0.885-0.589-1.328-1.276-1.328-2.057C51.623,2.817,52.066,2.235,52.7,1.881z M52.7,6.55h0.818c0.886,0.59,1.328,1.276,1.328,2.057
	c-0.236,0.812-0.679,1.395-1.328,1.749H52.7c-0.885-0.575-1.328-1.254-1.328-2.037C51.623,7.509,52.066,6.919,52.7,6.55z
	 M52.7,11.241h0.818c0.886,0.59,1.328,1.275,1.328,2.057c-0.236,0.797-0.679,1.38-1.328,1.748H52.7
	c-0.885-0.59-1.328-1.275-1.328-2.057C51.623,12.192,52.066,11.609,52.7,11.241z M52.7,15.932h0.818
	c0.886,0.575,1.328,1.253,1.328,2.036c-0.236,0.811-0.679,1.401-1.328,1.772H52.7c-0.885-0.591-1.328-1.277-1.328-2.06
	C51.623,16.883,52.066,16.3,52.7,15.932z M52.7,20.623h0.818c0.886,0.576,1.328,1.252,1.328,2.035
	c-0.236,0.812-0.679,1.402-1.328,1.77H52.7c-0.885-0.59-1.328-1.275-1.328-2.057C51.623,21.559,52.066,20.976,52.7,20.623z
	 M52.7,25.291h0.818c0.886,0.59,1.328,1.276,1.328,2.059c-0.236,0.797-0.679,1.379-1.328,1.747H52.7
	c-0.885-0.575-1.328-1.253-1.328-2.035C51.623,26.248,52.066,25.658,52.7,25.291z M52.7,29.98h0.818
	c0.886,0.589,1.328,1.275,1.328,2.057c-0.236,0.797-0.679,1.381-1.328,1.748H52.7c-0.885-0.59-1.328-1.273-1.328-2.058
	C51.623,30.933,52.066,30.35,52.7,29.98z M56.727,25.291h0.796c0.9,0.59,1.349,1.276,1.349,2.059c-0.25,0.797-0.7,1.379-1.349,1.747
	h-0.796c-0.9-0.575-1.35-1.253-1.35-2.035C55.629,26.248,56.078,25.658,56.727,25.291z M60.731,15.932h0.819
	c0.885,0.575,1.328,1.253,1.328,2.036c-0.251,0.811-0.694,1.401-1.328,1.772h-0.819c-0.884-0.591-1.327-1.277-1.327-2.06
	C59.655,16.883,60.097,16.3,60.731,15.932z M60.731,20.623h0.819c0.885,0.576,1.328,1.252,1.328,2.035
	c-0.251,0.812-0.694,1.402-1.328,1.77h-0.819c-0.884-0.59-1.327-1.275-1.327-2.057C59.655,21.559,60.097,20.976,60.731,20.623z
	 M64.759,25.291h0.797c0.899,0.59,1.35,1.276,1.35,2.059c-0.251,0.797-0.701,1.379-1.35,1.747h-0.797
	c-0.9-0.575-1.35-1.253-1.35-2.035C63.66,26.248,64.11,25.658,64.759,25.291z M68.764,1.881h0.819
	c0.885,0.575,1.327,1.254,1.327,2.035c-0.251,0.812-0.693,1.402-1.327,1.771h-0.819c-0.885-0.589-1.328-1.276-1.328-2.057
	C67.672,2.817,68.114,2.235,68.764,1.881z M68.764,6.55h0.819c0.885,0.59,1.327,1.276,1.327,2.057
	c-0.251,0.812-0.693,1.395-1.327,1.749h-0.819c-0.885-0.575-1.328-1.254-1.328-2.037C67.672,7.509,68.114,6.919,68.764,6.55z
	 M68.764,11.241h0.819c0.885,0.59,1.327,1.275,1.327,2.057c-0.251,0.797-0.693,1.38-1.327,1.748h-0.819
	c-0.885-0.59-1.328-1.275-1.328-2.057C67.672,12.192,68.114,11.609,68.764,11.241z M68.764,15.932h0.819
	c0.885,0.575,1.327,1.253,1.327,2.036c-0.251,0.811-0.693,1.401-1.327,1.772h-0.819c-0.885-0.591-1.328-1.277-1.328-2.06
	C67.672,16.883,68.114,16.3,68.764,15.932z M68.764,20.623h0.819c0.885,0.576,1.327,1.252,1.327,2.035
	c-0.251,0.812-0.693,1.402-1.327,1.77h-0.819c-0.885-0.59-1.328-1.275-1.328-2.057C67.672,21.559,68.114,20.976,68.764,20.623z
	 M68.764,25.291h0.819c0.885,0.59,1.327,1.276,1.327,2.059c-0.251,0.797-0.693,1.379-1.327,1.747h-0.819
	c-0.885-0.575-1.328-1.253-1.328-2.035C67.672,26.248,68.114,25.658,68.764,25.291z M68.764,29.98h0.819
	c0.885,0.589,1.327,1.275,1.327,2.057c-0.251,0.797-0.693,1.381-1.327,1.748h-0.819c-0.885-0.59-1.328-1.273-1.328-2.058
	C67.672,30.933,68.114,30.35,68.764,29.98z"/>
<path fill="#00BF00" d="M100.625,6.55h0.819c0.885,0.59,1.326,1.276,1.326,2.057c-0.235,0.812-0.678,1.395-1.326,1.749h-0.819
	c-0.885-0.575-1.329-1.254-1.329-2.037C99.547,7.509,99.991,6.919,100.625,6.55z M100.625,11.241h0.819
	c0.885,0.59,1.326,1.275,1.326,2.057c-0.235,0.797-0.678,1.38-1.326,1.748h-0.819c-0.885-0.59-1.329-1.275-1.329-2.057
	C99.547,12.192,99.991,11.609,100.625,11.241z M100.625,15.932h0.819c0.885,0.575,1.326,1.253,1.326,2.036
	c-0.235,0.811-0.678,1.401-1.326,1.772h-0.819c-0.885-0.591-1.329-1.277-1.329-2.06C99.547,16.883,99.991,16.3,100.625,15.932z
	 M100.625,20.623h0.819c0.885,0.576,1.326,1.252,1.326,2.035c-0.235,0.812-0.678,1.402-1.326,1.77h-0.819
	c-0.885-0.59-1.329-1.275-1.329-2.057C99.547,21.559,99.991,20.976,100.625,20.623z M100.625,25.291h0.819
	c0.885,0.59,1.326,1.276,1.326,2.059c-0.235,0.797-0.678,1.379-1.326,1.747h-0.819c-0.885-0.575-1.329-1.253-1.329-2.035
	C99.547,26.248,99.991,25.658,100.625,25.291z M104.651,1.881h0.797c0.9,0.575,1.349,1.254,1.349,2.035
	c-0.25,0.812-0.698,1.402-1.349,1.771h-0.797c-0.898-0.589-1.351-1.276-1.351-2.057C103.554,2.817,104.002,2.235,104.651,1.881z
	 M104.651,29.98h0.797c0.9,0.589,1.349,1.275,1.349,2.057c-0.25,0.797-0.698,1.381-1.349,1.748h-0.797
	c-0.898-0.59-1.351-1.273-1.351-2.058C103.554,30.933,104.002,30.35,104.651,29.98z M108.657,1.881h0.816
	c0.885,0.575,1.327,1.254,1.327,2.035c-0.251,0.812-0.69,1.402-1.327,1.771h-0.816c-0.885-0.589-1.329-1.276-1.329-2.057
	C107.579,2.817,108.022,2.235,108.657,1.881z M108.657,15.932h0.816c0.885,0.575,1.327,1.253,1.327,2.036
	c-0.251,0.811-0.69,1.401-1.327,1.772h-0.816c-0.885-0.591-1.329-1.277-1.329-2.06C107.579,16.883,108.022,16.3,108.657,15.932z
	 M108.657,29.98h0.816c0.885,0.589,1.327,1.275,1.327,2.057c-0.251,0.797-0.69,1.381-1.327,1.748h-0.816
	c-0.885-0.59-1.329-1.273-1.329-2.058C107.579,30.933,108.022,30.35,108.657,29.98z M112.683,1.881h0.795
	c0.901,0.575,1.352,1.254,1.352,2.035c-0.251,0.812-0.701,1.402-1.352,1.771h-0.795c-0.899-0.589-1.349-1.276-1.349-2.057
	C111.585,2.817,112.033,2.235,112.683,1.881z M112.683,15.932h0.795c0.901,0.575,1.352,1.253,1.352,2.036
	c-0.251,0.811-0.701,1.401-1.352,1.772h-0.795c-0.899-0.591-1.349-1.277-1.349-2.06C111.585,16.883,112.033,16.3,112.683,15.932z
	 M112.683,29.98h0.795c0.901,0.589,1.352,1.275,1.352,2.057c-0.251,0.797-0.701,1.381-1.352,1.748h-0.795
	c-0.899-0.59-1.349-1.273-1.349-2.058C111.585,30.933,112.033,30.35,112.683,29.98z M116.688,6.55h0.817
	c0.884,0.59,1.329,1.276,1.329,2.057c-0.251,0.812-0.693,1.395-1.329,1.749h-0.817c-0.885-0.575-1.328-1.254-1.328-2.037
	C115.599,7.509,116.038,6.919,116.688,6.55z M116.688,15.932h0.817c0.884,0.575,1.329,1.253,1.329,2.036
	c-0.251,0.811-0.693,1.401-1.329,1.772h-0.817c-0.885-0.591-1.328-1.277-1.328-2.06C115.599,16.883,116.038,16.3,116.688,15.932z
	 M116.688,20.623h0.817c0.884,0.576,1.329,1.252,1.329,2.035c-0.251,0.812-0.693,1.402-1.329,1.77h-0.817
	c-0.885-0.59-1.328-1.275-1.328-2.057C115.599,21.559,116.038,20.976,116.688,20.623z M116.688,25.291h0.817
	c0.884,0.59,1.329,1.276,1.329,2.059c-0.251,0.797-0.693,1.379-1.329,1.747h-0.817c-0.885-0.575-1.328-1.253-1.328-2.035
	C115.599,26.248,116.038,25.658,116.688,25.291z"/>
<path fill="#00BF00" d="M124.588,6.55h0.817c0.887,0.59,1.328,1.276,1.328,2.057c-0.237,0.812-0.678,1.395-1.328,1.749h-0.817
	c-0.885-0.575-1.329-1.254-1.329-2.037C123.51,7.509,123.952,6.919,124.588,6.55z M124.588,11.241h0.817
	c0.887,0.59,1.328,1.275,1.328,2.057c-0.237,0.797-0.678,1.38-1.328,1.748h-0.817c-0.885-0.59-1.329-1.275-1.329-2.057
	C123.51,12.192,123.952,11.609,124.588,11.241z M124.588,15.932h0.817c0.887,0.575,1.328,1.253,1.328,2.036
	c-0.237,0.811-0.678,1.401-1.328,1.772h-0.817c-0.885-0.591-1.329-1.277-1.329-2.06C123.51,16.883,123.952,16.3,124.588,15.932z
	 M124.588,20.623h0.817c0.887,0.576,1.328,1.252,1.328,2.035c-0.237,0.812-0.678,1.402-1.328,1.77h-0.817
	c-0.885-0.59-1.329-1.275-1.329-2.057C123.51,21.559,123.952,20.976,124.588,20.623z M124.588,25.291h0.817
	c0.887,0.59,1.328,1.276,1.328,2.059c-0.237,0.797-0.678,1.379-1.328,1.747h-0.817c-0.885-0.575-1.329-1.253-1.329-2.035
	C123.51,26.248,123.952,25.658,124.588,25.291z M124.588,29.98h0.817c0.887,0.589,1.328,1.275,1.328,2.057
	c-0.237,0.797-0.678,1.381-1.328,1.748h-0.817c-0.885-0.59-1.329-1.273-1.329-2.058C123.51,30.933,123.952,30.35,124.588,29.98z
	 M128.615,1.881h0.795c0.899,0.575,1.349,1.254,1.349,2.035c-0.251,0.812-0.699,1.402-1.349,1.771h-0.795
	c-0.901-0.589-1.351-1.276-1.351-2.057C127.515,2.817,127.965,2.235,128.615,1.881z M128.615,15.932h0.795
	c0.899,0.575,1.349,1.253,1.349,2.036c-0.251,0.811-0.699,1.401-1.349,1.772h-0.795c-0.901-0.591-1.351-1.277-1.351-2.06
	C127.515,16.883,127.965,16.3,128.615,15.932z M132.618,1.881h0.816c0.887,0.575,1.33,1.254,1.33,2.035
	c-0.25,0.812-0.693,1.402-1.33,1.771h-0.816c-0.885-0.589-1.327-1.276-1.327-2.057C131.542,2.817,131.983,2.235,132.618,1.881z
	 M132.618,15.932h0.816c0.887,0.575,1.33,1.253,1.33,2.036c-0.25,0.811-0.693,1.401-1.33,1.772h-0.816
	c-0.885-0.591-1.327-1.277-1.327-2.06C131.542,16.883,131.983,16.3,132.618,15.932z M136.646,1.881h0.797
	c0.898,0.575,1.351,1.254,1.351,2.035c-0.251,0.812-0.701,1.402-1.351,1.771h-0.797c-0.9-0.589-1.349-1.276-1.349-2.057
	C135.547,2.817,135.996,2.235,136.646,1.881z M136.646,15.932h0.797c0.898,0.575,1.351,1.253,1.351,2.036
	c-0.251,0.811-0.701,1.401-1.351,1.772h-0.797c-0.9-0.591-1.349-1.277-1.349-2.06C135.547,16.883,135.996,16.3,136.646,15.932z
	 M140.649,6.55h0.818c0.885,0.59,1.329,1.276,1.329,2.057c-0.251,0.812-0.694,1.395-1.329,1.749h-0.818
	c-0.885-0.575-1.325-1.254-1.325-2.037C139.56,7.509,140.001,6.919,140.649,6.55z M140.649,11.241h0.818
	c0.885,0.59,1.329,1.275,1.329,2.057c-0.251,0.797-0.694,1.38-1.329,1.748h-0.818c-0.885-0.59-1.325-1.275-1.325-2.057
	C139.56,12.192,140.001,11.609,140.649,11.241z M140.649,15.932h0.818c0.885,0.575,1.329,1.253,1.329,2.036
	c-0.251,0.811-0.694,1.401-1.329,1.772h-0.818c-0.885-0.591-1.325-1.277-1.325-2.06C139.56,16.883,140.001,16.3,140.649,15.932z
	 M140.649,20.623h0.818c0.885,0.576,1.329,1.252,1.329,2.035c-0.251,0.812-0.694,1.402-1.329,1.77h-0.818
	c-0.885-0.59-1.325-1.275-1.325-2.057C139.56,21.559,140.001,20.976,140.649,20.623z M140.649,25.291h0.818
	c0.885,0.59,1.329,1.276,1.329,2.059c-0.251,0.797-0.694,1.379-1.329,1.747h-0.818c-0.885-0.575-1.325-1.253-1.325-2.035
	C139.56,26.248,140.001,25.658,140.649,25.291z M140.649,29.98h0.818c0.885,0.589,1.329,1.275,1.329,2.057
	c-0.251,0.797-0.694,1.381-1.329,1.748h-0.818c-0.885-0.59-1.325-1.273-1.325-2.058C139.56,30.933,140.001,30.35,140.649,29.98z"/>
<path fill="#00BF00" d="M148.549,1.881h0.819c0.885,0.575,1.326,1.254,1.326,2.035c-0.235,0.812-0.676,1.402-1.326,1.771h-0.819
	c-0.885-0.589-1.327-1.276-1.327-2.057C147.474,2.817,147.916,2.235,148.549,1.881z M148.549,6.55h0.819
	c0.885,0.59,1.326,1.276,1.326,2.057c-0.235,0.812-0.676,1.395-1.326,1.749h-0.819c-0.885-0.575-1.327-1.254-1.327-2.037
	C147.474,7.509,147.916,6.919,148.549,6.55z M148.549,11.241h0.819c0.885,0.59,1.326,1.275,1.326,2.057
	c-0.235,0.797-0.676,1.38-1.326,1.748h-0.819c-0.885-0.59-1.327-1.275-1.327-2.057C147.474,12.192,147.916,11.609,148.549,11.241z
	 M148.549,15.932h0.819c0.885,0.575,1.326,1.253,1.326,2.036c-0.235,0.811-0.676,1.401-1.326,1.772h-0.819
	c-0.885-0.591-1.327-1.277-1.327-2.06C147.474,16.883,147.916,16.3,148.549,15.932z M148.549,20.623h0.819
	c0.885,0.576,1.326,1.252,1.326,2.035c-0.235,0.812-0.676,1.402-1.326,1.77h-0.819c-0.885-0.59-1.327-1.275-1.327-2.057
	C147.474,21.559,147.916,20.976,148.549,20.623z M148.549,25.291h0.819c0.885,0.59,1.326,1.276,1.326,2.059
	c-0.235,0.797-0.676,1.379-1.326,1.747h-0.819c-0.885-0.575-1.327-1.253-1.327-2.035C147.474,26.248,147.916,25.658,148.549,25.291z
	 M148.549,29.98h0.819c0.885,0.589,1.326,1.275,1.326,2.057c-0.235,0.797-0.676,1.381-1.326,1.748h-0.819
	c-0.885-0.59-1.327-1.273-1.327-2.058C147.474,30.933,147.916,30.35,148.549,29.98z M152.576,6.55h0.795
	c0.899,0.59,1.351,1.276,1.351,2.057c-0.25,0.812-0.701,1.395-1.351,1.749h-0.795c-0.9-0.575-1.349-1.254-1.349-2.037
	C151.478,7.509,151.926,6.919,152.576,6.55z M156.58,11.241h0.819c0.885,0.59,1.328,1.275,1.328,2.057
	c-0.25,0.797-0.695,1.38-1.328,1.748h-0.819c-0.886-0.59-1.325-1.275-1.325-2.057C155.503,12.192,155.946,11.609,156.58,11.241z
	 M156.58,15.932h0.819c0.885,0.575,1.328,1.253,1.328,2.036c-0.25,0.811-0.695,1.401-1.328,1.772h-0.819
	c-0.886-0.591-1.325-1.277-1.325-2.06C155.503,16.883,155.946,16.3,156.58,15.932z M160.606,6.55h0.797
	c0.9,0.59,1.353,1.276,1.353,2.057c-0.251,0.812-0.704,1.395-1.353,1.749h-0.797c-0.899-0.575-1.349-1.254-1.349-2.037
	C159.509,7.509,159.958,6.919,160.606,6.55z M164.612,1.881h0.818c0.885,0.575,1.327,1.254,1.327,2.035
	c-0.249,0.812-0.692,1.402-1.327,1.771h-0.818c-0.885-0.589-1.327-1.276-1.327-2.057C163.521,2.817,163.963,2.235,164.612,1.881z
	 M164.612,6.55h0.818c0.885,0.59,1.327,1.276,1.327,2.057c-0.249,0.812-0.692,1.395-1.327,1.749h-0.818
	c-0.885-0.575-1.327-1.254-1.327-2.037C163.521,7.509,163.963,6.919,164.612,6.55z M164.612,11.241h0.818
	c0.885,0.59,1.327,1.275,1.327,2.057c-0.249,0.797-0.692,1.38-1.327,1.748h-0.818c-0.885-0.59-1.327-1.275-1.327-2.057
	C163.521,12.192,163.963,11.609,164.612,11.241z M164.612,15.932h0.818c0.885,0.575,1.327,1.253,1.327,2.036
	c-0.249,0.811-0.692,1.401-1.327,1.772h-0.818c-0.885-0.591-1.327-1.277-1.327-2.06C163.521,16.883,163.963,16.3,164.612,15.932z
	 M164.612,20.623h0.818c0.885,0.576,1.327,1.252,1.327,2.035c-0.249,0.812-0.692,1.402-1.327,1.77h-0.818
	c-0.885-0.59-1.327-1.275-1.327-2.057C163.521,21.559,163.963,20.976,164.612,20.623z M164.612,25.291h0.818
	c0.885,0.59,1.327,1.276,1.327,2.059c-0.249,0.797-0.692,1.379-1.327,1.747h-0.818c-0.885-0.575-1.327-1.253-1.327-2.035
	C163.521,26.248,163.963,25.658,164.612,25.291z M164.612,29.98h0.818c0.885,0.589,1.327,1.275,1.327,2.057
	c-0.249,0.797-0.692,1.381-1.327,1.748h-0.818c-0.885-0.59-1.327-1.273-1.327-2.058C163.521,30.933,163.963,30.35,164.612,29.98z"/>
<path fill="#00BF00" d="M172.513,1.881h0.816c0.885,0.575,1.329,1.254,1.329,2.035c-0.237,0.812-0.679,1.402-1.329,1.771h-0.816
	c-0.888-0.589-1.328-1.276-1.328-2.057C171.437,2.817,171.876,2.235,172.513,1.881z M172.513,6.55h0.816
	c0.885,0.59,1.329,1.276,1.329,2.057c-0.237,0.812-0.679,1.395-1.329,1.749h-0.816c-0.888-0.575-1.328-1.254-1.328-2.037
	C171.437,7.509,171.876,6.919,172.513,6.55z M172.513,11.241h0.816c0.885,0.59,1.329,1.275,1.329,2.057
	c-0.237,0.797-0.679,1.38-1.329,1.748h-0.816c-0.888-0.59-1.328-1.275-1.328-2.057C171.437,12.192,171.876,11.609,172.513,11.241z
	 M172.513,15.932h0.816c0.885,0.575,1.329,1.253,1.329,2.036c-0.237,0.811-0.679,1.401-1.329,1.772h-0.816
	c-0.888-0.591-1.328-1.277-1.328-2.06C171.437,16.883,171.876,16.3,172.513,15.932z M172.513,20.623h0.816
	c0.885,0.576,1.329,1.252,1.329,2.035c-0.237,0.812-0.679,1.402-1.329,1.77h-0.816c-0.888-0.59-1.328-1.275-1.328-2.057
	C171.437,21.559,171.876,20.976,172.513,20.623z M172.513,25.291h0.816c0.885,0.59,1.329,1.276,1.329,2.059
	c-0.237,0.797-0.679,1.379-1.329,1.747h-0.816c-0.888-0.575-1.328-1.253-1.328-2.035C171.437,26.248,171.876,25.658,172.513,25.291z
	 M172.513,29.98h0.816c0.885,0.589,1.329,1.275,1.329,2.057c-0.237,0.797-0.679,1.381-1.329,1.748h-0.816
	c-0.888-0.59-1.328-1.273-1.328-2.058C171.437,30.933,171.876,30.35,172.513,29.98z M176.537,1.881h0.797
	c0.899,0.575,1.351,1.254,1.351,2.035c-0.25,0.812-0.703,1.402-1.351,1.771h-0.797c-0.899-0.589-1.349-1.276-1.349-2.057
	C175.438,2.817,175.89,2.235,176.537,1.881z M176.537,15.932h0.797c0.899,0.575,1.351,1.253,1.351,2.036
	c-0.25,0.811-0.703,1.401-1.351,1.772h-0.797c-0.899-0.591-1.349-1.277-1.349-2.06C175.438,16.883,175.89,16.3,176.537,15.932z
	 M176.537,29.98h0.797c0.899,0.589,1.351,1.275,1.351,2.057c-0.25,0.797-0.703,1.381-1.351,1.748h-0.797
	c-0.899-0.59-1.349-1.273-1.349-2.058C175.438,30.933,175.89,30.35,176.537,29.98z M180.542,1.881h0.818
	c0.886,0.575,1.328,1.254,1.328,2.035c-0.25,0.812-0.693,1.402-1.328,1.771h-0.818c-0.884-0.589-1.327-1.276-1.327-2.057
	C179.466,2.817,179.909,2.235,180.542,1.881z M180.542,15.932h0.818c0.886,0.575,1.328,1.253,1.328,2.036
	c-0.25,0.811-0.693,1.401-1.328,1.772h-0.818c-0.884-0.591-1.327-1.277-1.327-2.06C179.466,16.883,179.909,16.3,180.542,15.932z
	 M180.542,29.98h0.818c0.886,0.589,1.328,1.275,1.328,2.057c-0.25,0.797-0.693,1.381-1.328,1.748h-0.818
	c-0.884-0.59-1.327-1.273-1.327-2.058C179.466,30.933,179.909,30.35,180.542,29.98z M184.569,1.881h0.798
	c0.899,0.575,1.349,1.254,1.349,2.035c-0.25,0.812-0.701,1.402-1.349,1.771h-0.798c-0.899-0.589-1.35-1.276-1.35-2.057
	C183.47,2.817,183.921,2.235,184.569,1.881z M184.569,15.932h0.798c0.899,0.575,1.349,1.253,1.349,2.036
	c-0.25,0.811-0.701,1.401-1.349,1.772h-0.798c-0.899-0.591-1.35-1.277-1.35-2.06C183.47,16.883,183.921,16.3,184.569,15.932z
	 M184.569,29.98h0.798c0.899,0.589,1.349,1.275,1.349,2.057c-0.25,0.797-0.701,1.381-1.349,1.748h-0.798
	c-0.899-0.59-1.35-1.273-1.35-2.058C183.47,30.933,183.921,30.35,184.569,29.98z M188.575,1.881h0.82
	c0.883,0.575,1.324,1.254,1.324,2.035c-0.25,0.812-0.691,1.402-1.324,1.771h-0.82c-0.885-0.589-1.329-1.276-1.329-2.057
	C187.483,2.817,187.927,2.235,188.575,1.881z M188.575,29.98h0.82c0.883,0.589,1.324,1.275,1.324,2.057
	c-0.25,0.797-0.691,1.381-1.324,1.748h-0.82c-0.885-0.59-1.329-1.273-1.329-2.058C187.483,30.933,187.927,30.35,188.575,29.98z"/>
</svg>
