<?xml version="1.0" encoding="utf-8"?>
<!-- Generator: Adobe Illustrator 16.0.4, SVG Export Plug-In . SVG Version: 6.00 Build 0)  -->
<!DOCTYPE svg PUBLIC "-//W3C//DTD SVG 1.1//EN" "http://www.w3.org/Graphics/SVG/1.1/DTD/svg11.dtd">
<svg version="1.1" id="Layer_1" xmlns="http://www.w3.org/2000/svg" xmlns:xlink="http://www.w3.org/1999/xlink" x="0px" y="0px"
	 width="188px" height="35.522px" viewBox="0 0 188 35.522" enable-background="new 0 0 188 35.522" xml:space="preserve">
<g>
	<path fill="#2DB34A" d="M4.56,7.41h0.785c0.848,0.566,1.272,1.224,1.272,1.973c-0.227,0.778-0.651,1.336-1.272,1.675H4.56
		c-0.85-0.551-1.273-1.201-1.273-1.951C3.528,8.329,3.952,7.764,4.56,7.41z M4.56,11.906h0.785c0.848,0.566,1.272,1.224,1.272,1.974
		c-0.227,0.764-0.651,1.322-1.272,1.676H4.56c-0.85-0.566-1.273-1.224-1.273-1.973C3.528,12.819,3.952,12.26,4.56,11.906z
		 M4.56,16.404h0.785c0.848,0.551,1.272,1.202,1.272,1.951c-0.227,0.778-0.651,1.344-1.272,1.697H4.56
		c-0.85-0.566-1.273-1.224-1.273-1.973C3.528,17.316,3.952,16.757,4.56,16.404z M4.56,20.901h0.785
		c0.848,0.552,1.272,1.201,1.272,1.952c-0.227,0.778-0.651,1.344-1.272,1.697H4.56c-0.85-0.566-1.273-1.223-1.273-1.973
		C3.528,21.798,3.952,21.239,4.56,20.901z M4.56,25.376h0.785c0.848,0.565,1.272,1.224,1.272,1.973
		c-0.227,0.764-0.651,1.323-1.272,1.675H4.56c-0.85-0.552-1.273-1.201-1.273-1.952C3.528,26.296,3.952,25.73,4.56,25.376z
		 M8.42,2.934h0.764c0.863,0.552,1.294,1.202,1.294,1.952c-0.241,0.778-0.672,1.343-1.294,1.697H8.42
		C7.558,6.017,7.127,5.36,7.127,4.61C7.367,3.833,7.798,3.273,8.42,2.934z M8.42,29.873h0.764c0.863,0.567,1.294,1.225,1.294,1.974
		c-0.241,0.763-0.672,1.321-1.294,1.676H8.42c-0.862-0.566-1.293-1.224-1.293-1.973C7.367,30.787,7.798,30.228,8.42,29.873z
		 M12.26,2.934h0.784c0.849,0.552,1.272,1.202,1.272,1.952c-0.24,0.778-0.664,1.343-1.272,1.697H12.26
		c-0.85-0.566-1.273-1.223-1.273-1.973C11.227,3.833,11.651,3.273,12.26,2.934z M12.26,29.873h0.784
		c0.849,0.567,1.272,1.225,1.272,1.974c-0.24,0.763-0.664,1.321-1.272,1.676H12.26c-0.85-0.566-1.273-1.224-1.273-1.973
		C11.227,30.787,11.651,30.228,12.26,29.873z M16.12,2.934h0.764c0.863,0.552,1.294,1.202,1.294,1.952
		c-0.241,0.778-0.672,1.343-1.294,1.697H16.12c-0.862-0.566-1.294-1.223-1.294-1.973C15.067,3.833,15.498,3.273,16.12,2.934z
		 M16.12,29.873h0.764c0.863,0.567,1.294,1.225,1.294,1.974c-0.241,0.763-0.672,1.321-1.294,1.676H16.12
		c-0.862-0.566-1.294-1.224-1.294-1.973C15.067,30.787,15.498,30.228,16.12,29.873z M19.959,7.41h0.785
		c0.849,0.566,1.272,1.224,1.272,1.973c-0.241,0.778-0.665,1.336-1.272,1.675h-0.785c-0.849-0.551-1.273-1.201-1.273-1.951
		C18.914,8.329,19.337,7.764,19.959,7.41z M19.959,11.906h0.785c0.849,0.566,1.272,1.224,1.272,1.974
		c-0.241,0.764-0.665,1.322-1.272,1.676h-0.785c-0.849-0.566-1.273-1.224-1.273-1.973C18.914,12.819,19.337,12.26,19.959,11.906z
		 M19.959,16.404h0.785c0.849,0.551,1.272,1.202,1.272,1.951c-0.241,0.778-0.665,1.344-1.272,1.697h-0.785
		c-0.849-0.566-1.273-1.224-1.273-1.973C18.914,17.316,19.337,16.757,19.959,16.404z M19.959,20.901h0.785
		c0.849,0.552,1.272,1.201,1.272,1.952c-0.241,0.778-0.665,1.344-1.272,1.697h-0.785c-0.849-0.566-1.273-1.223-1.273-1.973
		C18.914,21.798,19.337,21.239,19.959,20.901z M19.959,25.376h0.785c0.849,0.565,1.272,1.224,1.272,1.973
		c-0.241,0.764-0.665,1.323-1.272,1.675h-0.785c-0.849-0.552-1.273-1.201-1.273-1.952C18.914,26.296,19.337,25.73,19.959,25.376z"/>
	<path fill="#2DB34A" d="M27.533,2.934h0.785c0.848,0.552,1.273,1.202,1.273,1.952c-0.227,0.778-0.651,1.343-1.273,1.697h-0.785
		c-0.849-0.566-1.273-1.223-1.273-1.973C26.5,3.833,26.924,3.273,27.533,2.934z M27.533,7.41h0.785
		c0.848,0.566,1.273,1.224,1.273,1.973c-0.227,0.778-0.651,1.336-1.273,1.675h-0.785c-0.849-0.551-1.273-1.201-1.273-1.951
		C26.5,8.329,26.924,7.764,27.533,7.41z M27.533,11.906h0.785c0.848,0.566,1.273,1.224,1.273,1.974
		c-0.227,0.764-0.651,1.322-1.273,1.676h-0.785c-0.849-0.566-1.273-1.224-1.273-1.973C26.5,12.819,26.924,12.26,27.533,11.906z
		 M31.393,16.404h0.764c0.863,0.551,1.294,1.202,1.294,1.951c-0.241,0.778-0.672,1.344-1.294,1.697h-0.764
		C30.53,19.487,30.1,18.829,30.1,18.08C30.339,17.316,30.771,16.757,31.393,16.404z M31.393,20.901h0.764
		c0.863,0.552,1.294,1.201,1.294,1.952c-0.241,0.778-0.672,1.344-1.294,1.697h-0.764c-0.863-0.566-1.293-1.223-1.293-1.973
		C30.339,21.798,30.771,21.239,31.393,20.901z M35.233,25.376h0.784c0.848,0.565,1.273,1.224,1.273,1.973
		c-0.24,0.764-0.665,1.323-1.273,1.675h-0.784c-0.849-0.552-1.273-1.201-1.273-1.952C34.2,26.296,34.624,25.73,35.233,25.376z
		 M35.233,29.873h0.784c0.848,0.567,1.273,1.225,1.273,1.974c-0.24,0.763-0.665,1.321-1.273,1.676h-0.784
		c-0.849-0.566-1.273-1.224-1.273-1.973C34.2,30.787,34.624,30.228,35.233,29.873z M39.094,16.404h0.763
		c0.862,0.551,1.293,1.202,1.293,1.951c-0.239,0.778-0.671,1.344-1.293,1.697h-0.763c-0.864-0.566-1.295-1.224-1.295-1.973
		C38.039,17.316,38.471,16.757,39.094,16.404z M39.094,20.901h0.763c0.862,0.552,1.293,1.201,1.293,1.952
		c-0.239,0.778-0.671,1.344-1.293,1.697h-0.763c-0.864-0.566-1.295-1.223-1.295-1.973C38.039,21.798,38.471,21.239,39.094,20.901z
		 M42.932,2.934h0.785c0.849,0.552,1.273,1.202,1.273,1.952c-0.241,0.778-0.665,1.343-1.273,1.697h-0.785
		C42.084,6.017,41.66,5.36,41.66,4.61C41.886,3.833,42.31,3.273,42.932,2.934z M42.932,7.41h0.785
		c0.849,0.566,1.273,1.224,1.273,1.973c-0.241,0.778-0.665,1.336-1.273,1.675h-0.785c-0.848-0.551-1.272-1.201-1.272-1.951
		C41.886,8.329,42.31,7.764,42.932,7.41z M42.932,11.906h0.785c0.849,0.566,1.273,1.224,1.273,1.974
		c-0.241,0.764-0.665,1.322-1.273,1.676h-0.785c-0.848-0.566-1.272-1.224-1.272-1.973C41.886,12.819,42.31,12.26,42.932,11.906z"/>
	<path fill="#2DB34A" d="M50.505,2.934h0.785c0.849,0.552,1.273,1.202,1.273,1.952c-0.226,0.778-0.651,1.343-1.273,1.697h-0.785
		c-0.849-0.566-1.272-1.223-1.272-1.973C49.473,3.833,49.897,3.273,50.505,2.934z M50.505,7.41h0.785
		c0.849,0.566,1.273,1.224,1.273,1.973c-0.226,0.778-0.651,1.336-1.273,1.675h-0.785c-0.849-0.551-1.272-1.201-1.272-1.951
		C49.473,8.329,49.897,7.764,50.505,7.41z M50.505,11.906h0.785c0.849,0.566,1.273,1.224,1.273,1.974
		c-0.226,0.764-0.651,1.322-1.273,1.676h-0.785c-0.849-0.566-1.272-1.224-1.272-1.973C49.473,12.819,49.897,12.26,50.505,11.906z
		 M50.505,16.404h0.785c0.849,0.551,1.273,1.202,1.273,1.951c-0.226,0.778-0.651,1.344-1.273,1.697h-0.785
		c-0.849-0.566-1.272-1.224-1.272-1.973C49.473,17.316,49.897,16.757,50.505,16.404z M50.505,20.901h0.785
		c0.849,0.552,1.273,1.201,1.273,1.952c-0.226,0.778-0.651,1.344-1.273,1.697h-0.785c-0.849-0.566-1.272-1.223-1.272-1.973
		C49.473,21.798,49.897,21.239,50.505,20.901z M50.505,25.376h0.785c0.849,0.565,1.273,1.224,1.273,1.973
		c-0.226,0.764-0.651,1.323-1.273,1.675h-0.785c-0.849-0.552-1.272-1.201-1.272-1.952C49.473,26.296,49.897,25.73,50.505,25.376z
		 M50.505,29.873h0.785c0.849,0.567,1.273,1.225,1.273,1.974c-0.226,0.763-0.651,1.321-1.273,1.676h-0.785
		c-0.849-0.566-1.272-1.224-1.272-1.973C49.473,30.787,49.897,30.228,50.505,29.873z M54.366,2.934h0.764
		c0.862,0.552,1.294,1.202,1.294,1.952c-0.241,0.778-0.671,1.343-1.294,1.697h-0.764c-0.863-0.566-1.294-1.223-1.294-1.973
		C53.312,3.833,53.744,3.273,54.366,2.934z M54.366,16.404h0.764c0.862,0.551,1.294,1.202,1.294,1.951
		c-0.241,0.778-0.671,1.344-1.294,1.697h-0.764c-0.863-0.566-1.294-1.224-1.294-1.973C53.312,17.316,53.744,16.757,54.366,16.404z
		 M54.366,29.873h0.764c0.862,0.567,1.294,1.225,1.294,1.974c-0.241,0.763-0.671,1.321-1.294,1.676h-0.764
		c-0.863-0.566-1.294-1.224-1.294-1.973C53.312,30.787,53.744,30.228,54.366,29.873z M58.205,2.934h0.785
		c0.849,0.552,1.273,1.202,1.273,1.952c-0.241,0.778-0.666,1.343-1.273,1.697h-0.785c-0.849-0.566-1.272-1.223-1.272-1.973
		C57.172,3.833,57.597,3.273,58.205,2.934z M58.205,16.404h0.785c0.849,0.551,1.273,1.202,1.273,1.951
		c-0.241,0.778-0.666,1.344-1.273,1.697h-0.785c-0.849-0.566-1.272-1.224-1.272-1.973C57.172,17.316,57.597,16.757,58.205,16.404z
		 M58.205,29.873h0.785c0.849,0.567,1.273,1.225,1.273,1.974c-0.241,0.763-0.666,1.321-1.273,1.676h-0.785
		c-0.849-0.566-1.272-1.224-1.272-1.973C57.172,30.787,57.597,30.228,58.205,29.873z M62.066,2.934h0.764
		c0.862,0.552,1.294,1.202,1.294,1.952c-0.241,0.778-0.672,1.343-1.294,1.697h-0.764c-0.863-0.566-1.294-1.223-1.294-1.973
		C61.013,3.833,61.444,3.273,62.066,2.934z M62.066,16.404h0.764c0.862,0.551,1.294,1.202,1.294,1.951
		c-0.241,0.778-0.672,1.344-1.294,1.697h-0.764c-0.863-0.566-1.294-1.224-1.294-1.973C61.013,17.316,61.444,16.757,62.066,16.404z
		 M62.066,29.873h0.764c0.862,0.567,1.294,1.225,1.294,1.974c-0.241,0.763-0.672,1.321-1.294,1.676h-0.764
		c-0.863-0.566-1.294-1.224-1.294-1.973C61.013,30.787,61.444,30.228,62.066,29.873z M65.905,2.934h0.786
		c0.849,0.552,1.272,1.202,1.272,1.952c-0.241,0.778-0.665,1.343-1.272,1.697h-0.786c-0.849-0.566-1.272-1.223-1.272-1.973
		C64.858,3.833,65.282,3.273,65.905,2.934z M65.905,29.873h0.786c0.849,0.567,1.272,1.225,1.272,1.974
		c-0.241,0.763-0.665,1.321-1.272,1.676h-0.786c-0.849-0.566-1.272-1.224-1.272-1.973C64.858,30.787,65.282,30.228,65.905,29.873z"
		/>
	<path fill="#2DB34A" d="M73.478,2.934h0.786c0.848,0.552,1.272,1.202,1.272,1.952c-0.226,0.778-0.65,1.343-1.272,1.697h-0.786
		c-0.849-0.566-1.272-1.223-1.272-1.973C72.446,3.833,72.87,3.273,73.478,2.934z M73.478,7.41h0.786
		c0.848,0.566,1.272,1.224,1.272,1.973c-0.226,0.778-0.65,1.336-1.272,1.675h-0.786c-0.849-0.551-1.272-1.201-1.272-1.951
		C72.446,8.329,72.87,7.764,73.478,7.41z M73.478,11.906h0.786c0.848,0.566,1.272,1.224,1.272,1.974
		c-0.226,0.764-0.65,1.322-1.272,1.676h-0.786c-0.849-0.566-1.272-1.224-1.272-1.973C72.446,12.819,72.87,12.26,73.478,11.906z
		 M73.478,16.404h0.786c0.848,0.551,1.272,1.202,1.272,1.951c-0.226,0.778-0.65,1.344-1.272,1.697h-0.786
		c-0.849-0.566-1.272-1.224-1.272-1.973C72.446,17.316,72.87,16.757,73.478,16.404z M73.478,20.901h0.786
		c0.848,0.552,1.272,1.201,1.272,1.952c-0.226,0.778-0.65,1.344-1.272,1.697h-0.786c-0.849-0.566-1.272-1.223-1.272-1.973
		C72.446,21.798,72.87,21.239,73.478,20.901z M73.478,25.376h0.786c0.848,0.565,1.272,1.224,1.272,1.973
		c-0.226,0.764-0.65,1.323-1.272,1.675h-0.786c-0.849-0.552-1.272-1.201-1.272-1.952C72.446,26.296,72.87,25.73,73.478,25.376z
		 M73.478,29.873h0.786c0.848,0.567,1.272,1.225,1.272,1.974c-0.226,0.763-0.65,1.321-1.272,1.676h-0.786
		c-0.849-0.566-1.272-1.224-1.272-1.973C72.446,30.787,72.87,30.228,73.478,29.873z M77.338,2.934h0.763
		c0.864,0.552,1.295,1.202,1.295,1.952c-0.241,0.778-0.672,1.343-1.295,1.697h-0.763c-0.862-0.566-1.294-1.223-1.294-1.973
		C76.285,3.833,76.716,3.273,77.338,2.934z M77.338,16.404h0.763c0.864,0.551,1.295,1.202,1.295,1.951
		c-0.241,0.778-0.672,1.344-1.295,1.697h-0.763c-0.862-0.566-1.294-1.224-1.294-1.973C76.285,17.316,76.716,16.757,77.338,16.404z
		 M81.177,2.934h0.786c0.848,0.552,1.272,1.202,1.272,1.952c-0.239,0.778-0.664,1.343-1.272,1.697h-0.786
		c-0.848-0.566-1.272-1.223-1.272-1.973C80.146,3.833,80.57,3.273,81.177,2.934z M81.177,16.404h0.786
		c0.848,0.551,1.272,1.202,1.272,1.951c-0.239,0.778-0.664,1.344-1.272,1.697h-0.786c-0.848-0.566-1.272-1.224-1.272-1.973
		C80.146,17.316,80.57,16.757,81.177,16.404z M81.177,20.901h0.786c0.848,0.552,1.272,1.201,1.272,1.952
		c-0.239,0.778-0.664,1.344-1.272,1.697h-0.786c-0.848-0.566-1.272-1.223-1.272-1.973C80.146,21.798,80.57,21.239,81.177,20.901z
		 M85.039,2.934h0.763c0.863,0.552,1.294,1.202,1.294,1.952c-0.24,0.778-0.671,1.343-1.294,1.697h-0.763
		c-0.863-0.566-1.295-1.223-1.295-1.973C83.985,3.833,84.417,3.273,85.039,2.934z M85.039,16.404h0.763
		c0.863,0.551,1.294,1.202,1.294,1.951c-0.24,0.778-0.671,1.344-1.294,1.697h-0.763c-0.863-0.566-1.295-1.224-1.295-1.973
		C83.985,17.316,84.417,16.757,85.039,16.404z M85.039,25.376h0.763c0.863,0.565,1.294,1.224,1.294,1.973
		c-0.24,0.764-0.671,1.323-1.294,1.675h-0.763c-0.863-0.552-1.295-1.201-1.295-1.952C83.985,26.296,84.417,25.73,85.039,25.376z
		 M88.878,7.41h0.785c0.849,0.566,1.273,1.224,1.273,1.973c-0.241,0.778-0.665,1.336-1.273,1.675h-0.785
		c-0.849-0.551-1.273-1.201-1.273-1.951C87.831,8.329,88.256,7.764,88.878,7.41z M88.878,11.906h0.785
		c0.849,0.566,1.273,1.224,1.273,1.974c-0.241,0.764-0.665,1.322-1.273,1.676h-0.785c-0.849-0.566-1.273-1.224-1.273-1.973
		C87.831,12.819,88.256,12.26,88.878,11.906z M88.878,29.873h0.785c0.849,0.567,1.273,1.225,1.273,1.974
		c-0.241,0.763-0.665,1.321-1.273,1.676h-0.785c-0.849-0.566-1.273-1.224-1.273-1.973C87.831,30.787,88.256,30.228,88.878,29.873z"
		/>
	<path fill="#2DB34A" d="M96.45,2.934h0.786c0.849,0.552,1.271,1.202,1.271,1.952c-0.225,0.778-0.649,1.343-1.271,1.697H96.45
		c-0.848-0.566-1.273-1.223-1.273-1.973C95.417,3.833,95.843,3.273,96.45,2.934z M100.312,2.934h0.763
		c0.863,0.552,1.293,1.202,1.293,1.952c-0.239,0.778-0.67,1.343-1.293,1.697h-0.763c-0.863-0.566-1.295-1.223-1.295-1.973
		C99.257,3.833,99.688,3.273,100.312,2.934z M104.152,2.934h0.784c0.848,0.552,1.271,1.202,1.271,1.952
		c-0.24,0.778-0.663,1.343-1.271,1.697h-0.784c-0.848-0.566-1.274-1.223-1.274-1.973C103.119,3.833,103.542,3.273,104.152,2.934z
		 M104.152,7.41h0.784c0.848,0.566,1.271,1.224,1.271,1.973c-0.24,0.778-0.663,1.336-1.271,1.675h-0.784
		c-0.848-0.551-1.274-1.201-1.274-1.951C103.119,8.329,103.542,7.764,104.152,7.41z M104.152,11.906h0.784
		c0.848,0.566,1.271,1.224,1.271,1.974c-0.24,0.764-0.663,1.322-1.271,1.676h-0.784c-0.848-0.566-1.274-1.224-1.274-1.973
		C103.119,12.819,103.542,12.26,104.152,11.906z M104.152,16.404h0.784c0.848,0.551,1.271,1.202,1.271,1.951
		c-0.24,0.778-0.663,1.344-1.271,1.697h-0.784c-0.848-0.566-1.274-1.224-1.274-1.973C103.119,17.316,103.542,16.757,104.152,16.404z
		 M104.152,20.901h0.784c0.848,0.552,1.271,1.201,1.271,1.952c-0.24,0.778-0.663,1.344-1.271,1.697h-0.784
		c-0.848-0.566-1.274-1.223-1.274-1.973C103.119,21.798,103.542,21.239,104.152,20.901z M104.152,25.376h0.784
		c0.848,0.565,1.271,1.224,1.271,1.973c-0.24,0.764-0.663,1.323-1.271,1.675h-0.784c-0.848-0.552-1.274-1.201-1.274-1.952
		C103.119,26.296,103.542,25.73,104.152,25.376z M104.152,29.873h0.784c0.848,0.567,1.271,1.225,1.271,1.974
		c-0.24,0.763-0.663,1.321-1.271,1.676h-0.784c-0.848-0.566-1.274-1.224-1.274-1.973C103.119,30.787,103.542,30.228,104.152,29.873z
		 M108.011,2.934h0.763c0.864,0.552,1.295,1.202,1.295,1.952c-0.241,0.778-0.672,1.343-1.295,1.697h-0.763
		c-0.862-0.566-1.293-1.223-1.293-1.973C106.958,3.833,107.388,3.273,108.011,2.934z M111.851,2.934h0.784
		c0.848,0.552,1.274,1.202,1.274,1.952c-0.241,0.778-0.665,1.343-1.274,1.697h-0.784c-0.849-0.566-1.272-1.223-1.272-1.973
		C110.805,3.833,111.228,3.273,111.851,2.934z"/>
	<path fill="#2DB34A" d="M127.124,2.934h0.784c0.85,0.552,1.273,1.202,1.273,1.952c-0.24,0.778-0.665,1.343-1.273,1.697h-0.784
		c-0.848-0.566-1.273-1.223-1.273-1.973C126.092,3.833,126.514,3.273,127.124,2.934z M127.124,7.41h0.784
		c0.85,0.566,1.273,1.224,1.273,1.973c-0.24,0.778-0.665,1.336-1.273,1.675h-0.784c-0.848-0.551-1.273-1.201-1.273-1.951
		C126.092,8.329,126.514,7.764,127.124,7.41z M127.124,11.906h0.784c0.85,0.566,1.273,1.224,1.273,1.974
		c-0.24,0.764-0.665,1.322-1.273,1.676h-0.784c-0.848-0.566-1.273-1.224-1.273-1.973C126.092,12.819,126.514,12.26,127.124,11.906z
		 M127.124,16.404h0.784c0.85,0.551,1.273,1.202,1.273,1.951c-0.24,0.778-0.665,1.344-1.273,1.697h-0.784
		c-0.848-0.566-1.273-1.224-1.273-1.973C126.092,17.316,126.514,16.757,127.124,16.404z M127.124,20.901h0.784
		c0.85,0.552,1.273,1.201,1.273,1.952c-0.24,0.778-0.665,1.344-1.273,1.697h-0.784c-0.848-0.566-1.273-1.223-1.273-1.973
		C126.092,21.798,126.514,21.239,127.124,20.901z M127.124,25.376h0.784c0.85,0.565,1.273,1.224,1.273,1.973
		c-0.24,0.764-0.665,1.323-1.273,1.675h-0.784c-0.848-0.552-1.273-1.201-1.273-1.952C126.092,26.296,126.514,25.73,127.124,25.376z
		 M127.124,29.873h0.784c0.85,0.567,1.273,1.225,1.273,1.974c-0.24,0.763-0.665,1.321-1.273,1.676h-0.784
		c-0.848-0.566-1.273-1.224-1.273-1.973C126.092,30.787,126.514,30.228,127.124,29.873z"/>
	<path fill="#2DB34A" d="M142.396,2.934h0.786c0.848,0.552,1.272,1.202,1.272,1.952c-0.227,0.778-0.649,1.343-1.272,1.697h-0.786
		c-0.849-0.566-1.272-1.223-1.272-1.973C141.364,3.833,141.789,3.273,142.396,2.934z M142.396,7.41h0.786
		c0.848,0.566,1.272,1.224,1.272,1.973c-0.227,0.778-0.649,1.336-1.272,1.675h-0.786c-0.849-0.551-1.272-1.201-1.272-1.951
		C141.364,8.329,141.789,7.764,142.396,7.41z M142.396,11.906h0.786c0.848,0.566,1.272,1.224,1.272,1.974
		c-0.227,0.764-0.649,1.322-1.272,1.676h-0.786c-0.849-0.566-1.272-1.224-1.272-1.973C141.364,12.819,141.789,12.26,142.396,11.906z
		 M142.396,16.404h0.786c0.848,0.551,1.272,1.202,1.272,1.951c-0.227,0.778-0.649,1.344-1.272,1.697h-0.786
		c-0.849-0.566-1.272-1.224-1.272-1.973C141.364,17.316,141.789,16.757,142.396,16.404z M142.396,20.901h0.786
		c0.848,0.552,1.272,1.201,1.272,1.952c-0.227,0.778-0.649,1.344-1.272,1.697h-0.786c-0.849-0.566-1.272-1.223-1.272-1.973
		C141.364,21.798,141.789,21.239,142.396,20.901z M142.396,25.376h0.786c0.848,0.565,1.272,1.224,1.272,1.973
		c-0.227,0.764-0.649,1.323-1.272,1.675h-0.786c-0.849-0.552-1.272-1.201-1.272-1.952C141.364,26.296,141.789,25.73,142.396,25.376z
		 M142.396,29.873h0.786c0.848,0.567,1.272,1.225,1.272,1.974c-0.227,0.763-0.649,1.321-1.272,1.676h-0.786
		c-0.849-0.566-1.272-1.224-1.272-1.973C141.364,30.787,141.789,30.228,142.396,29.873z M146.256,7.41h0.763
		c0.862,0.566,1.295,1.224,1.295,1.973c-0.241,0.778-0.672,1.336-1.295,1.675h-0.763c-0.862-0.551-1.293-1.201-1.293-1.951
		C145.205,8.329,145.633,7.764,146.256,7.41z M150.095,11.906h0.785c0.848,0.566,1.273,1.224,1.273,1.974
		c-0.24,0.764-0.667,1.322-1.273,1.676h-0.785c-0.848-0.566-1.271-1.224-1.271-1.973C149.063,12.819,149.487,12.26,150.095,11.906z
		 M150.095,16.404h0.785c0.848,0.551,1.273,1.202,1.273,1.951c-0.24,0.778-0.667,1.344-1.273,1.697h-0.785
		c-0.848-0.566-1.271-1.224-1.271-1.973C149.063,17.316,149.487,16.757,150.095,16.404z M153.956,7.41h0.764
		c0.862,0.566,1.295,1.224,1.295,1.973c-0.242,0.778-0.674,1.336-1.295,1.675h-0.764c-0.863-0.551-1.294-1.201-1.294-1.951
		C152.903,8.329,153.334,7.764,153.956,7.41z M157.795,2.934h0.786c0.848,0.552,1.272,1.202,1.272,1.952
		c-0.239,0.778-0.665,1.343-1.272,1.697h-0.786c-0.848-0.566-1.272-1.223-1.272-1.973C156.748,3.833,157.174,3.273,157.795,2.934z
		 M157.795,7.41h0.786c0.848,0.566,1.272,1.224,1.272,1.973c-0.239,0.778-0.665,1.336-1.272,1.675h-0.786
		c-0.848-0.551-1.272-1.201-1.272-1.951C156.748,8.329,157.174,7.764,157.795,7.41z M157.795,11.906h0.786
		c0.848,0.566,1.272,1.224,1.272,1.974c-0.239,0.764-0.665,1.322-1.272,1.676h-0.786c-0.848-0.566-1.272-1.224-1.272-1.973
		C156.748,12.819,157.174,12.26,157.795,11.906z M157.795,16.404h0.786c0.848,0.551,1.272,1.202,1.272,1.951
		c-0.239,0.778-0.665,1.344-1.272,1.697h-0.786c-0.848-0.566-1.272-1.224-1.272-1.973C156.748,17.316,157.174,16.757,157.795,16.404
		z M157.795,20.901h0.786c0.848,0.552,1.272,1.201,1.272,1.952c-0.239,0.778-0.665,1.344-1.272,1.697h-0.786
		c-0.848-0.566-1.272-1.223-1.272-1.973C156.748,21.798,157.174,21.239,157.795,20.901z M157.795,25.376h0.786
		c0.848,0.565,1.272,1.224,1.272,1.973c-0.239,0.764-0.665,1.323-1.272,1.675h-0.786c-0.848-0.552-1.272-1.201-1.272-1.952
		C156.748,26.296,157.174,25.73,157.795,25.376z M157.795,29.873h0.786c0.848,0.567,1.272,1.225,1.272,1.974
		c-0.239,0.763-0.665,1.321-1.272,1.676h-0.786c-0.848-0.566-1.272-1.224-1.272-1.973C156.748,30.787,157.174,30.228,157.795,29.873
		z"/>
	<path fill="#2DB34A" d="M165.369,2.934h0.784c0.849,0.552,1.274,1.202,1.274,1.952c-0.227,0.778-0.651,1.343-1.274,1.697h-0.784
		c-0.85-0.566-1.271-1.223-1.271-1.973C164.337,3.833,164.76,3.273,165.369,2.934z M165.369,7.41h0.784
		c0.849,0.566,1.274,1.224,1.274,1.973c-0.227,0.778-0.651,1.336-1.274,1.675h-0.784c-0.85-0.551-1.271-1.201-1.271-1.951
		C164.337,8.329,164.76,7.764,165.369,7.41z M165.369,11.906h0.784c0.849,0.566,1.274,1.224,1.274,1.974
		c-0.227,0.764-0.651,1.322-1.274,1.676h-0.784c-0.85-0.566-1.271-1.224-1.271-1.973C164.337,12.819,164.76,12.26,165.369,11.906z
		 M165.369,16.404h0.784c0.849,0.551,1.274,1.202,1.274,1.951c-0.227,0.778-0.651,1.344-1.274,1.697h-0.784
		c-0.85-0.566-1.271-1.224-1.271-1.973C164.337,17.316,164.76,16.757,165.369,16.404z M165.369,20.901h0.784
		c0.849,0.552,1.274,1.201,1.274,1.952c-0.227,0.778-0.651,1.344-1.274,1.697h-0.784c-0.85-0.566-1.271-1.223-1.271-1.973
		C164.337,21.798,164.76,21.239,165.369,20.901z M165.369,25.376h0.784c0.849,0.565,1.274,1.224,1.274,1.973
		c-0.227,0.764-0.651,1.323-1.274,1.675h-0.784c-0.85-0.552-1.271-1.201-1.271-1.952C164.337,26.296,164.76,25.73,165.369,25.376z
		 M165.369,29.873h0.784c0.849,0.567,1.274,1.225,1.274,1.974c-0.227,0.763-0.651,1.321-1.274,1.676h-0.784
		c-0.85-0.566-1.271-1.224-1.271-1.973C164.337,30.787,164.76,30.228,165.369,29.873z M169.228,2.934h0.766
		c0.861,0.552,1.294,1.202,1.294,1.952c-0.24,0.778-0.673,1.343-1.294,1.697h-0.766c-0.861-0.566-1.291-1.223-1.291-1.973
		C168.175,3.833,168.606,3.273,169.228,2.934z M169.228,16.404h0.766c0.861,0.551,1.294,1.202,1.294,1.951
		c-0.24,0.778-0.673,1.344-1.294,1.697h-0.766c-0.861-0.566-1.291-1.224-1.291-1.973C168.175,17.316,168.606,16.757,169.228,16.404z
		 M169.228,29.873h0.766c0.861,0.567,1.294,1.225,1.294,1.974c-0.24,0.763-0.673,1.321-1.294,1.676h-0.766
		c-0.861-0.566-1.291-1.224-1.291-1.973C168.175,30.787,168.606,30.228,169.228,29.873z M173.068,2.934h0.785
		c0.849,0.552,1.272,1.202,1.272,1.952c-0.238,0.778-0.665,1.343-1.272,1.697h-0.785c-0.848-0.566-1.272-1.223-1.272-1.973
		C172.037,3.833,172.461,3.273,173.068,2.934z M173.068,16.404h0.785c0.849,0.551,1.272,1.202,1.272,1.951
		c-0.238,0.778-0.665,1.344-1.272,1.697h-0.785c-0.848-0.566-1.272-1.224-1.272-1.973C172.037,17.316,172.461,16.757,173.068,16.404
		z M173.068,29.873h0.785c0.849,0.567,1.272,1.225,1.272,1.974c-0.238,0.763-0.665,1.321-1.272,1.676h-0.785
		c-0.848-0.566-1.272-1.224-1.272-1.973C172.037,30.787,172.461,30.228,173.068,29.873z M176.929,2.934h0.765
		c0.862,0.552,1.293,1.202,1.293,1.952c-0.24,0.778-0.672,1.343-1.293,1.697h-0.765c-0.862-0.566-1.294-1.223-1.294-1.973
		C175.875,3.833,176.308,3.273,176.929,2.934z M176.929,16.404h0.765c0.862,0.551,1.293,1.202,1.293,1.951
		c-0.24,0.778-0.672,1.344-1.293,1.697h-0.765c-0.862-0.566-1.294-1.224-1.294-1.973C175.875,17.316,176.308,16.757,176.929,16.404z
		 M176.929,29.873h0.765c0.862,0.567,1.293,1.225,1.293,1.974c-0.24,0.763-0.672,1.321-1.293,1.676h-0.765
		c-0.862-0.566-1.294-1.224-1.294-1.973C175.875,30.787,176.308,30.228,176.929,29.873z M180.769,2.934h0.786
		c0.848,0.552,1.271,1.202,1.271,1.952c-0.24,0.778-0.663,1.343-1.271,1.697h-0.786c-0.848-0.566-1.274-1.223-1.274-1.973
		C179.721,3.833,180.147,3.273,180.769,2.934z M180.769,29.873h0.786c0.848,0.567,1.271,1.225,1.271,1.974
		c-0.24,0.763-0.663,1.321-1.271,1.676h-0.786c-0.848-0.566-1.274-1.224-1.274-1.973C179.721,30.787,180.147,30.228,180.769,29.873z
		"/>
</g>
</svg>
