<?xml version="1.0" encoding="utf-8"?>
<!-- Generator: Adobe Illustrator 16.0.4, SVG Export Plug-In . SVG Version: 6.00 Build 0)  -->
<!DOCTYPE svg PUBLIC "-//W3C//DTD SVG 1.1//EN" "http://www.w3.org/Graphics/SVG/1.1/DTD/svg11.dtd">
<svg version="1.1" id="Layer_1" xmlns="http://www.w3.org/2000/svg" xmlns:xlink="http://www.w3.org/1999/xlink" x="0px" y="0px"
	 width="255px" height="36px" viewBox="0 0 255 36" enable-background="new 0 0 255 36" xml:space="preserve">
<path fill="#2DB34A" d="M5.397,1.179h0.861C7.189,1.783,7.655,2.498,7.655,3.32C7.407,4.174,6.941,4.794,6.258,5.182H5.397
	C4.465,4.562,4,3.84,4,3.018C4.264,2.164,4.73,1.55,5.397,1.179z M5.397,6.09h0.861c0.931,0.621,1.396,1.343,1.396,2.166
	c-0.248,0.853-0.713,1.466-1.396,1.839H5.397C4.465,9.489,4,8.775,4,7.953C4.264,7.099,4.73,6.478,5.397,6.09z M5.397,11.025h0.861
	c0.931,0.621,1.396,1.343,1.396,2.165c-0.248,0.838-0.713,1.451-1.396,1.84H5.397C4.465,14.408,4,13.687,4,12.864
	C4.264,12.026,4.73,11.414,5.397,11.025z M5.397,15.961h0.861c0.931,0.605,1.396,1.319,1.396,2.142
	c-0.248,0.854-0.713,1.474-1.396,1.862H5.397C4.465,19.344,4,18.623,4,17.8C4.264,16.962,4.73,16.349,5.397,15.961z M5.397,20.896
	h0.861c0.931,0.605,1.396,1.32,1.396,2.142c-0.248,0.854-0.713,1.475-1.396,1.862H5.397C4.465,24.278,4,23.558,4,22.734
	C4.264,21.882,4.73,21.269,5.397,20.896z M5.397,25.807h0.861c0.931,0.621,1.396,1.345,1.396,2.167
	c-0.248,0.837-0.713,1.45-1.396,1.839H5.397C4.465,29.207,4,28.492,4,27.67C4.264,26.816,4.73,26.196,5.397,25.807z M5.397,30.743
	h0.861c0.931,0.621,1.396,1.343,1.396,2.167c-0.248,0.835-0.713,1.45-1.396,1.839H5.397C4.465,34.128,4,33.404,4,32.582
	C4.264,31.745,4.73,31.132,5.397,30.743z M9.634,1.179h0.838c0.947,0.604,1.42,1.319,1.42,2.142
	c-0.265,0.854-0.738,1.474-1.42,1.862H9.634C8.688,4.562,8.214,3.84,8.214,3.018C8.478,2.164,8.951,1.55,9.634,1.179z M9.634,15.961
	h0.838c0.947,0.605,1.42,1.319,1.42,2.142c-0.265,0.854-0.738,1.474-1.42,1.862H9.634c-0.946-0.621-1.419-1.342-1.419-2.165
	C8.478,16.962,8.951,16.349,9.634,15.961z M13.848,1.179h0.861c0.931,0.604,1.396,1.319,1.396,2.142
	c-0.263,0.854-0.729,1.474-1.396,1.862h-0.861C12.916,4.562,12.45,3.84,12.45,3.018C12.715,2.164,13.18,1.55,13.848,1.179z
	 M13.848,15.961h0.861c0.931,0.605,1.396,1.319,1.396,2.142c-0.263,0.854-0.729,1.474-1.396,1.862h-0.861
	c-0.932-0.621-1.397-1.342-1.397-2.165C12.715,16.962,13.18,16.349,13.848,15.961z M18.084,1.179h0.838
	c0.947,0.604,1.42,1.319,1.42,2.142c-0.264,0.854-0.737,1.474-1.42,1.862h-0.838c-0.946-0.621-1.419-1.342-1.419-2.165
	C16.928,2.164,17.401,1.55,18.084,1.179z M18.084,15.961h0.838c0.947,0.605,1.42,1.319,1.42,2.142
	c-0.264,0.854-0.737,1.474-1.42,1.862h-0.838c-0.946-0.621-1.419-1.342-1.419-2.165C16.928,16.962,17.401,16.349,18.084,15.961z
	 M22.298,6.09h0.861c0.931,0.621,1.396,1.343,1.396,2.166c-0.264,0.853-0.729,1.466-1.396,1.839h-0.861
	c-0.932-0.605-1.397-1.32-1.397-2.142C21.15,7.099,21.615,6.478,22.298,6.09z M22.298,11.025h0.861
	c0.931,0.621,1.396,1.343,1.396,2.165c-0.264,0.838-0.729,1.451-1.396,1.84h-0.861c-0.932-0.622-1.397-1.343-1.397-2.166
	C21.15,12.026,21.615,11.414,22.298,11.025z"/>
<path fill="#2DB34A" d="M30.609,1.179h0.861c0.931,0.604,1.397,1.319,1.397,2.142c-0.249,0.854-0.715,1.474-1.397,1.862h-0.861
	c-0.931-0.621-1.397-1.342-1.397-2.165C29.476,2.164,29.941,1.55,30.609,1.179z M30.609,6.09h0.861
	c0.931,0.621,1.397,1.343,1.397,2.166c-0.249,0.853-0.715,1.466-1.397,1.839h-0.861c-0.931-0.605-1.397-1.32-1.397-2.142
	C29.476,7.099,29.941,6.478,30.609,6.09z M30.609,11.025h0.861c0.931,0.621,1.397,1.343,1.397,2.165
	c-0.249,0.838-0.715,1.451-1.397,1.84h-0.861c-0.931-0.622-1.397-1.343-1.397-2.166C29.476,12.026,29.941,11.414,30.609,11.025z
	 M30.609,15.961h0.861c0.931,0.605,1.397,1.319,1.397,2.142c-0.249,0.854-0.715,1.474-1.397,1.862h-0.861
	c-0.931-0.621-1.397-1.342-1.397-2.165C29.476,16.962,29.941,16.349,30.609,15.961z M30.609,20.896h0.861
	c0.931,0.605,1.397,1.32,1.397,2.142c-0.249,0.854-0.715,1.475-1.397,1.862h-0.861c-0.931-0.621-1.397-1.341-1.397-2.165
	C29.476,21.882,29.941,21.269,30.609,20.896z M30.609,25.807h0.861c0.931,0.621,1.397,1.345,1.397,2.167
	c-0.249,0.837-0.715,1.45-1.397,1.839h-0.861c-0.931-0.605-1.397-1.32-1.397-2.142C29.476,26.816,29.941,26.196,30.609,25.807z
	 M30.609,30.743h0.861c0.931,0.621,1.397,1.343,1.397,2.167c-0.249,0.835-0.715,1.45-1.397,1.839h-0.861
	c-0.931-0.621-1.397-1.345-1.397-2.167C29.476,31.745,29.941,31.132,30.609,30.743z M34.846,30.743h0.838
	c0.946,0.621,1.419,1.343,1.419,2.167c-0.263,0.835-0.737,1.45-1.419,1.839h-0.838c-0.947-0.621-1.42-1.345-1.42-2.167
	C33.689,31.745,34.163,31.132,34.846,30.743z M39.059,30.743h0.861c0.931,0.621,1.397,1.343,1.397,2.167
	c-0.264,0.835-0.73,1.45-1.397,1.839h-0.861c-0.931-0.621-1.396-1.345-1.396-2.167C37.926,31.745,38.392,31.132,39.059,30.743z
	 M43.296,30.743h0.838c0.946,0.621,1.419,1.343,1.419,2.167c-0.264,0.835-0.737,1.45-1.419,1.839h-0.838
	c-0.947-0.621-1.42-1.345-1.42-2.167C42.139,31.745,42.613,31.132,43.296,30.743z M47.509,30.743h0.861
	c0.931,0.621,1.397,1.343,1.397,2.167c-0.264,0.835-0.729,1.45-1.397,1.839h-0.861c-0.931-0.621-1.396-1.345-1.396-2.167
	C46.361,31.745,46.827,31.132,47.509,30.743z"/>
<path fill="#2DB34A" d="M55.82,6.09h0.861c0.932,0.621,1.397,1.343,1.397,2.166c-0.248,0.853-0.714,1.466-1.397,1.839H55.82
	c-0.931-0.605-1.396-1.32-1.396-2.142C54.687,7.099,55.152,6.478,55.82,6.09z M55.82,11.025h0.861
	c0.932,0.621,1.397,1.343,1.397,2.165c-0.248,0.838-0.714,1.451-1.397,1.84H55.82c-0.931-0.622-1.396-1.343-1.396-2.166
	C54.687,12.026,55.152,11.414,55.82,11.025z M55.82,15.961h0.861c0.932,0.605,1.397,1.319,1.397,2.142
	c-0.248,0.854-0.714,1.474-1.397,1.862H55.82c-0.931-0.621-1.396-1.342-1.396-2.165C54.687,16.962,55.152,16.349,55.82,15.961z
	 M55.82,20.896h0.861c0.932,0.605,1.397,1.32,1.397,2.142c-0.248,0.854-0.714,1.475-1.397,1.862H55.82
	c-0.931-0.621-1.396-1.341-1.396-2.165C54.687,21.882,55.152,21.269,55.82,20.896z M55.82,25.807h0.861
	c0.932,0.621,1.397,1.345,1.397,2.167c-0.248,0.837-0.714,1.45-1.397,1.839H55.82c-0.931-0.605-1.396-1.32-1.396-2.142
	C54.687,26.816,55.152,26.196,55.82,25.807z M55.82,30.743h0.861c0.932,0.621,1.397,1.343,1.397,2.167
	c-0.248,0.835-0.714,1.45-1.397,1.839H55.82c-0.931-0.621-1.396-1.345-1.396-2.167C54.687,31.745,55.152,31.132,55.82,30.743z
	 M60.057,1.179h0.838c0.946,0.604,1.419,1.319,1.419,2.142c-0.263,0.854-0.736,1.474-1.419,1.862h-0.838
	c-0.947-0.621-1.42-1.342-1.42-2.165C58.901,2.164,59.374,1.55,60.057,1.179z M60.057,15.961h0.838
	c0.946,0.605,1.419,1.319,1.419,2.142c-0.263,0.854-0.736,1.474-1.419,1.862h-0.838c-0.947-0.621-1.42-1.342-1.42-2.165
	C58.901,16.962,59.374,16.349,60.057,15.961z M64.271,1.179h0.861c0.932,0.604,1.397,1.319,1.397,2.142
	c-0.265,0.854-0.73,1.474-1.397,1.862h-0.861c-0.931-0.621-1.396-1.342-1.396-2.165C63.137,2.164,63.603,1.55,64.271,1.179z
	 M64.271,15.961h0.861c0.932,0.605,1.397,1.319,1.397,2.142c-0.265,0.854-0.73,1.474-1.397,1.862h-0.861
	c-0.931-0.621-1.396-1.342-1.396-2.165C63.137,16.962,63.603,16.349,64.271,15.961z M68.507,1.179h0.838
	c0.946,0.604,1.42,1.319,1.42,2.142c-0.264,0.854-0.737,1.474-1.42,1.862h-0.838c-0.947-0.621-1.42-1.342-1.42-2.165
	C67.352,2.164,67.825,1.55,68.507,1.179z M68.507,15.961h0.838c0.946,0.605,1.42,1.319,1.42,2.142
	c-0.264,0.854-0.737,1.474-1.42,1.862h-0.838c-0.947-0.621-1.42-1.342-1.42-2.165C67.352,16.962,67.825,16.349,68.507,15.961z
	 M72.721,6.09h0.862c0.931,0.621,1.396,1.343,1.396,2.166c-0.264,0.853-0.73,1.466-1.396,1.839h-0.862
	c-0.931-0.605-1.396-1.32-1.396-2.142C71.572,7.099,72.038,6.478,72.721,6.09z M72.721,11.025h0.862
	c0.931,0.621,1.396,1.343,1.396,2.165c-0.264,0.838-0.73,1.451-1.396,1.84h-0.862c-0.931-0.622-1.396-1.343-1.396-2.166
	C71.572,12.026,72.038,11.414,72.721,11.025z M72.721,15.961h0.862c0.931,0.605,1.396,1.319,1.396,2.142
	c-0.264,0.854-0.73,1.474-1.396,1.862h-0.862c-0.931-0.621-1.396-1.342-1.396-2.165C71.572,16.962,72.038,16.349,72.721,15.961z
	 M72.721,20.896h0.862c0.931,0.605,1.396,1.32,1.396,2.142c-0.264,0.854-0.73,1.475-1.396,1.862h-0.862
	c-0.931-0.621-1.396-1.341-1.396-2.165C71.572,21.882,72.038,21.269,72.721,20.896z M72.721,25.807h0.862
	c0.931,0.621,1.396,1.345,1.396,2.167c-0.264,0.837-0.73,1.45-1.396,1.839h-0.862c-0.931-0.605-1.396-1.32-1.396-2.142
	C71.572,26.816,72.038,26.196,72.721,25.807z M72.721,30.743h0.862c0.931,0.621,1.396,1.343,1.396,2.167
	c-0.264,0.835-0.73,1.45-1.396,1.839h-0.862c-0.931-0.621-1.396-1.345-1.396-2.167C71.572,31.745,72.038,31.132,72.721,30.743z"/>
<path fill="#2DB34A" d="M81.031,1.179h0.862c0.931,0.604,1.396,1.319,1.396,2.142c-0.248,0.854-0.713,1.474-1.396,1.862h-0.862
	C80.1,4.562,79.635,3.84,79.635,3.018C79.899,2.164,80.365,1.55,81.031,1.179z M81.031,6.09h0.862
	c0.931,0.621,1.396,1.343,1.396,2.166c-0.248,0.853-0.713,1.466-1.396,1.839h-0.862c-0.931-0.605-1.396-1.32-1.396-2.142
	C79.899,7.099,80.365,6.478,81.031,6.09z M81.031,11.025h0.862c0.931,0.621,1.396,1.343,1.396,2.165
	c-0.248,0.838-0.713,1.451-1.396,1.84h-0.862c-0.931-0.622-1.396-1.343-1.396-2.166C79.899,12.026,80.365,11.414,81.031,11.025z
	 M85.269,15.961h0.838c0.947,0.605,1.42,1.319,1.42,2.142c-0.265,0.854-0.738,1.474-1.42,1.862h-0.838
	c-0.946-0.621-1.42-1.342-1.42-2.165C84.112,16.962,84.585,16.349,85.269,15.961z M89.481,20.896h0.862
	c0.931,0.605,1.396,1.32,1.396,2.142c-0.264,0.854-0.729,1.475-1.396,1.862h-0.862c-0.931-0.621-1.396-1.341-1.396-2.165
	C88.35,21.882,88.815,21.269,89.481,20.896z M89.481,25.807h0.862c0.931,0.621,1.396,1.345,1.396,2.167
	c-0.264,0.837-0.729,1.45-1.396,1.839h-0.862c-0.931-0.605-1.396-1.32-1.396-2.142C88.35,26.816,88.815,26.196,89.481,25.807z
	 M89.481,30.743h0.862c0.931,0.621,1.396,1.343,1.396,2.167c-0.264,0.835-0.729,1.45-1.396,1.839h-0.862
	c-0.931-0.621-1.396-1.345-1.396-2.167C88.35,31.745,88.815,31.132,89.481,30.743z M93.719,15.961h0.838
	c0.947,0.605,1.42,1.319,1.42,2.142c-0.264,0.854-0.737,1.474-1.42,1.862h-0.838c-0.946-0.621-1.42-1.342-1.42-2.165
	C92.562,16.962,93.036,16.349,93.719,15.961z M97.933,1.179h0.861c0.931,0.604,1.396,1.319,1.396,2.142
	c-0.264,0.854-0.729,1.474-1.396,1.862h-0.861c-0.932-0.621-1.397-1.342-1.397-2.165C96.784,2.164,97.25,1.55,97.933,1.179z
	 M97.933,6.09h0.861c0.931,0.621,1.396,1.343,1.396,2.166c-0.264,0.853-0.729,1.466-1.396,1.839h-0.861
	c-0.932-0.605-1.397-1.32-1.397-2.142C96.784,7.099,97.25,6.478,97.933,6.09z M97.933,11.025h0.861
	c0.931,0.621,1.396,1.343,1.396,2.165c-0.264,0.838-0.729,1.451-1.396,1.84h-0.861c-0.932-0.622-1.397-1.343-1.397-2.166
	C96.784,12.026,97.25,11.414,97.933,11.025z"/>
<path fill="#2DB34A" d="M131.455,6.09h0.862c0.931,0.621,1.396,1.343,1.396,2.166c-0.249,0.853-0.714,1.466-1.396,1.839h-0.862
	c-0.931-0.605-1.396-1.32-1.396-2.142C130.321,7.099,130.788,6.478,131.455,6.09z M131.455,11.025h0.862
	c0.931,0.621,1.396,1.343,1.396,2.165c-0.249,0.838-0.714,1.451-1.396,1.84h-0.862c-0.931-0.622-1.396-1.343-1.396-2.166
	C130.321,12.026,130.788,11.414,131.455,11.025z M131.455,15.961h0.862c0.931,0.605,1.396,1.319,1.396,2.142
	c-0.249,0.854-0.714,1.474-1.396,1.862h-0.862c-0.931-0.621-1.396-1.342-1.396-2.165C130.321,16.962,130.788,16.349,131.455,15.961z
	 M131.455,20.896h0.862c0.931,0.605,1.396,1.32,1.396,2.142c-0.249,0.854-0.714,1.475-1.396,1.862h-0.862
	c-0.931-0.621-1.396-1.341-1.396-2.165C130.321,21.882,130.788,21.269,131.455,20.896z M131.455,25.807h0.862
	c0.931,0.621,1.396,1.345,1.396,2.167c-0.249,0.837-0.714,1.45-1.396,1.839h-0.862c-0.931-0.605-1.396-1.32-1.396-2.142
	C130.321,26.816,130.788,26.196,131.455,25.807z M131.455,30.743h0.862c0.931,0.621,1.396,1.343,1.396,2.167
	c-0.249,0.835-0.714,1.45-1.396,1.839h-0.862c-0.931-0.621-1.396-1.345-1.396-2.167C130.321,31.745,130.788,31.132,131.455,30.743z
	 M135.692,1.179h0.839c0.946,0.604,1.417,1.319,1.417,2.142c-0.262,0.854-0.735,1.474-1.417,1.862h-0.839
	c-0.946-0.621-1.421-1.342-1.421-2.165C134.535,2.164,135.01,1.55,135.692,1.179z M135.692,15.961h0.839
	c0.946,0.605,1.417,1.319,1.417,2.142c-0.262,0.854-0.735,1.474-1.417,1.862h-0.839c-0.946-0.621-1.421-1.342-1.421-2.165
	C134.535,16.962,135.01,16.349,135.692,15.961z M139.906,1.179h0.86c0.933,0.604,1.396,1.319,1.396,2.142
	c-0.264,0.854-0.728,1.474-1.396,1.862h-0.86c-0.931-0.621-1.398-1.342-1.398-2.165C138.772,2.164,139.237,1.55,139.906,1.179z
	 M139.906,15.961h0.86c0.933,0.605,1.396,1.319,1.396,2.142c-0.264,0.854-0.728,1.474-1.396,1.862h-0.86
	c-0.931-0.621-1.398-1.342-1.398-2.165C138.772,16.962,139.237,16.349,139.906,15.961z M144.143,1.179h0.837
	c0.946,0.604,1.419,1.319,1.419,2.142c-0.265,0.854-0.736,1.474-1.419,1.862h-0.837c-0.948-0.621-1.421-1.342-1.421-2.165
	C142.986,2.164,143.459,1.55,144.143,1.179z M144.143,15.961h0.837c0.946,0.605,1.419,1.319,1.419,2.142
	c-0.265,0.854-0.736,1.474-1.419,1.862h-0.837c-0.948-0.621-1.421-1.342-1.421-2.165C142.986,16.962,143.459,16.349,144.143,15.961z
	 M148.355,6.09h0.86c0.933,0.621,1.398,1.343,1.398,2.166c-0.264,0.853-0.729,1.466-1.398,1.839h-0.86
	c-0.931-0.605-1.396-1.32-1.396-2.142C147.208,7.099,147.672,6.478,148.355,6.09z M148.355,11.025h0.86
	c0.933,0.621,1.398,1.343,1.398,2.165c-0.264,0.838-0.729,1.451-1.398,1.84h-0.86c-0.931-0.622-1.396-1.343-1.396-2.166
	C147.208,12.026,147.672,11.414,148.355,11.025z M148.355,15.961h0.86c0.933,0.605,1.398,1.319,1.398,2.142
	c-0.264,0.854-0.729,1.474-1.398,1.862h-0.86c-0.931-0.621-1.396-1.342-1.396-2.165C147.208,16.962,147.672,16.349,148.355,15.961z
	 M148.355,20.896h0.86c0.933,0.605,1.398,1.32,1.398,2.142c-0.264,0.854-0.729,1.475-1.398,1.862h-0.86
	c-0.931-0.621-1.396-1.341-1.396-2.165C147.208,21.882,147.672,21.269,148.355,20.896z M148.355,25.807h0.86
	c0.933,0.621,1.398,1.345,1.398,2.167c-0.264,0.837-0.729,1.45-1.398,1.839h-0.86c-0.931-0.605-1.396-1.32-1.396-2.142
	C147.208,26.816,147.672,26.196,148.355,25.807z M148.355,30.743h0.86c0.933,0.621,1.398,1.343,1.398,2.167
	c-0.264,0.835-0.729,1.45-1.398,1.839h-0.86c-0.931-0.621-1.396-1.345-1.396-2.167C147.208,31.745,147.672,31.132,148.355,30.743z"
	/>
<path fill="#2DB34A" d="M156.667,6.09h0.862c0.931,0.621,1.395,1.343,1.395,2.166c-0.247,0.853-0.712,1.466-1.395,1.839h-0.862
	c-0.931-0.605-1.398-1.32-1.398-2.142C155.533,7.099,156,6.478,156.667,6.09z M156.667,11.025h0.862
	c0.931,0.621,1.395,1.343,1.395,2.165c-0.247,0.838-0.712,1.451-1.395,1.84h-0.862c-0.931-0.622-1.398-1.343-1.398-2.166
	C155.533,12.026,156,11.414,156.667,11.025z M156.667,15.961h0.862c0.931,0.605,1.395,1.319,1.395,2.142
	c-0.247,0.854-0.712,1.474-1.395,1.862h-0.862c-0.931-0.621-1.398-1.342-1.398-2.165C155.533,16.962,156,16.349,156.667,15.961z
	 M156.667,20.896h0.862c0.931,0.605,1.395,1.32,1.395,2.142c-0.247,0.854-0.712,1.475-1.395,1.862h-0.862
	c-0.931-0.621-1.398-1.341-1.398-2.165C155.533,21.882,156,21.269,156.667,20.896z M156.667,25.807h0.862
	c0.931,0.621,1.395,1.345,1.395,2.167c-0.247,0.837-0.712,1.45-1.395,1.839h-0.862c-0.931-0.605-1.398-1.32-1.398-2.142
	C155.533,26.816,156,26.196,156.667,25.807z M160.904,1.179h0.837c0.946,0.604,1.419,1.319,1.419,2.142
	c-0.264,0.854-0.736,1.474-1.419,1.862h-0.837c-0.946-0.621-1.421-1.342-1.421-2.165C159.747,2.164,160.22,1.55,160.904,1.179z
	 M160.904,30.743h0.837c0.946,0.621,1.419,1.343,1.419,2.167c-0.264,0.835-0.736,1.45-1.419,1.839h-0.837
	c-0.946-0.621-1.421-1.345-1.421-2.167C159.747,31.745,160.22,31.132,160.904,30.743z M165.116,1.179h0.862
	c0.931,0.604,1.396,1.319,1.396,2.142c-0.265,0.854-0.73,1.474-1.396,1.862h-0.862c-0.931-0.621-1.396-1.342-1.396-2.165
	C163.984,2.164,164.45,1.55,165.116,1.179z M165.116,15.961h0.862c0.931,0.605,1.396,1.319,1.396,2.142
	c-0.265,0.854-0.73,1.474-1.396,1.862h-0.862c-0.931-0.621-1.396-1.342-1.396-2.165C163.984,16.962,164.45,16.349,165.116,15.961z
	 M165.116,30.743h0.862c0.931,0.621,1.396,1.343,1.396,2.167c-0.265,0.835-0.73,1.45-1.396,1.839h-0.862
	c-0.931-0.621-1.396-1.345-1.396-2.167C163.984,31.745,164.45,31.132,165.116,30.743z M169.354,1.179h0.837
	c0.946,0.604,1.421,1.319,1.421,2.142c-0.264,0.854-0.737,1.474-1.421,1.862h-0.837c-0.946-0.621-1.419-1.342-1.419-2.165
	C168.198,2.164,168.67,1.55,169.354,1.179z M169.354,15.961h0.837c0.946,0.605,1.421,1.319,1.421,2.142
	c-0.264,0.854-0.737,1.474-1.421,1.862h-0.837c-0.946-0.621-1.419-1.342-1.419-2.165C168.198,16.962,168.67,16.349,169.354,15.961z
	 M169.354,30.743h0.837c0.946,0.621,1.421,1.343,1.421,2.167c-0.264,0.835-0.737,1.45-1.421,1.839h-0.837
	c-0.946-0.621-1.419-1.345-1.419-2.167C168.198,31.745,168.67,31.132,169.354,30.743z M173.566,6.09h0.862
	c0.931,0.621,1.398,1.343,1.398,2.166c-0.264,0.853-0.732,1.466-1.398,1.839h-0.862c-0.931-0.605-1.395-1.32-1.395-2.142
	C172.418,7.099,172.884,6.478,173.566,6.09z M173.566,15.961h0.862c0.931,0.605,1.398,1.319,1.398,2.142
	c-0.264,0.854-0.732,1.474-1.398,1.862h-0.862c-0.931-0.621-1.395-1.342-1.395-2.165C172.418,16.962,172.884,16.349,173.566,15.961z
	 M173.566,20.896h0.862c0.931,0.605,1.398,1.32,1.398,2.142c-0.264,0.854-0.732,1.475-1.398,1.862h-0.862
	c-0.931-0.621-1.395-1.341-1.395-2.165C172.418,21.882,172.884,21.269,173.566,20.896z M173.566,25.807h0.862
	c0.931,0.621,1.398,1.345,1.398,2.167c-0.264,0.837-0.732,1.45-1.398,1.839h-0.862c-0.931-0.605-1.395-1.32-1.395-2.142
	C172.418,26.816,172.884,26.196,173.566,25.807z"/>
<path fill="#2DB34A" d="M181.879,6.09h0.86c0.931,0.621,1.396,1.343,1.396,2.166c-0.249,0.853-0.712,1.466-1.396,1.839h-0.86
	c-0.933-0.605-1.398-1.32-1.398-2.142C180.745,7.099,181.21,6.478,181.879,6.09z M181.879,11.025h0.86
	c0.931,0.621,1.396,1.343,1.396,2.165c-0.249,0.838-0.712,1.451-1.396,1.84h-0.86c-0.933-0.622-1.398-1.343-1.398-2.166
	C180.745,12.026,181.21,11.414,181.879,11.025z M181.879,15.961h0.86c0.931,0.605,1.396,1.319,1.396,2.142
	c-0.249,0.854-0.712,1.474-1.396,1.862h-0.86c-0.933-0.621-1.398-1.342-1.398-2.165C180.745,16.962,181.21,16.349,181.879,15.961z
	 M181.879,20.896h0.86c0.931,0.605,1.396,1.32,1.396,2.142c-0.249,0.854-0.712,1.475-1.396,1.862h-0.86
	c-0.933-0.621-1.398-1.341-1.398-2.165C180.745,21.882,181.21,21.269,181.879,20.896z M181.879,25.807h0.86
	c0.931,0.621,1.396,1.345,1.396,2.167c-0.249,0.837-0.712,1.45-1.396,1.839h-0.86c-0.933-0.605-1.398-1.32-1.398-2.142
	C180.745,26.816,181.21,26.196,181.879,25.807z M181.879,30.743h0.86c0.931,0.621,1.396,1.343,1.396,2.167
	c-0.249,0.835-0.712,1.45-1.396,1.839h-0.86c-0.933-0.621-1.398-1.345-1.398-2.167C180.745,31.745,181.21,31.132,181.879,30.743z
	 M186.114,1.179h0.837c0.948,0.604,1.421,1.319,1.421,2.142c-0.265,0.854-0.738,1.474-1.421,1.862h-0.837
	c-0.946-0.621-1.419-1.342-1.419-2.165C184.959,2.164,185.431,1.55,186.114,1.179z M186.114,15.961h0.837
	c0.948,0.605,1.421,1.319,1.421,2.142c-0.265,0.854-0.738,1.474-1.421,1.862h-0.837c-0.946-0.621-1.419-1.342-1.419-2.165
	C184.959,16.962,185.431,16.349,186.114,15.961z M190.329,1.179h0.86c0.931,0.604,1.398,1.319,1.398,2.142
	c-0.264,0.854-0.729,1.474-1.398,1.862h-0.86c-0.933-0.621-1.396-1.342-1.396-2.165C189.196,2.164,189.66,1.55,190.329,1.179z
	 M190.329,15.961h0.86c0.931,0.605,1.398,1.319,1.398,2.142c-0.264,0.854-0.729,1.474-1.398,1.862h-0.86
	c-0.933-0.621-1.396-1.342-1.396-2.165C189.196,16.962,189.66,16.349,190.329,15.961z M194.564,1.179h0.839
	c0.946,0.604,1.421,1.319,1.421,2.142c-0.264,0.854-0.739,1.474-1.421,1.862h-0.839c-0.946-0.621-1.417-1.342-1.417-2.165
	C193.409,2.164,193.882,1.55,194.564,1.179z M194.564,15.961h0.839c0.946,0.605,1.421,1.319,1.421,2.142
	c-0.264,0.854-0.739,1.474-1.421,1.862h-0.839c-0.946-0.621-1.417-1.342-1.417-2.165C193.409,16.962,193.882,16.349,194.564,15.961z
	 M198.778,6.09h0.862c0.931,0.621,1.396,1.343,1.396,2.166c-0.263,0.853-0.73,1.466-1.396,1.839h-0.862
	c-0.931-0.605-1.396-1.32-1.396-2.142C197.631,7.099,198.096,6.478,198.778,6.09z M198.778,11.025h0.862
	c0.931,0.621,1.396,1.343,1.396,2.165c-0.263,0.838-0.73,1.451-1.396,1.84h-0.862c-0.931-0.622-1.396-1.343-1.396-2.166
	C197.631,12.026,198.096,11.414,198.778,11.025z M198.778,15.961h0.862c0.931,0.605,1.396,1.319,1.396,2.142
	c-0.263,0.854-0.73,1.474-1.396,1.862h-0.862c-0.931-0.621-1.396-1.342-1.396-2.165C197.631,16.962,198.096,16.349,198.778,15.961z
	 M198.778,20.896h0.862c0.931,0.605,1.396,1.32,1.396,2.142c-0.263,0.854-0.73,1.475-1.396,1.862h-0.862
	c-0.931-0.621-1.396-1.341-1.396-2.165C197.631,21.882,198.096,21.269,198.778,20.896z M198.778,25.807h0.862
	c0.931,0.621,1.396,1.345,1.396,2.167c-0.263,0.837-0.73,1.45-1.396,1.839h-0.862c-0.931-0.605-1.396-1.32-1.396-2.142
	C197.631,26.816,198.096,26.196,198.778,25.807z M198.778,30.743h0.862c0.931,0.621,1.396,1.343,1.396,2.167
	c-0.263,0.835-0.73,1.45-1.396,1.839h-0.862c-0.931-0.621-1.396-1.345-1.396-2.167C197.631,31.745,198.096,31.132,198.778,30.743z"
	/>
<path fill="#2DB34A" d="M215.539,1.179h0.862c0.931,0.604,1.398,1.319,1.398,2.142c-0.264,0.854-0.732,1.474-1.398,1.862h-0.862
	c-0.931-0.621-1.395-1.342-1.395-2.165C214.407,2.164,214.873,1.55,215.539,1.179z M215.539,6.09h0.862
	c0.931,0.621,1.398,1.343,1.398,2.166c-0.264,0.853-0.732,1.466-1.398,1.839h-0.862c-0.931-0.605-1.395-1.32-1.395-2.142
	C214.407,7.099,214.873,6.478,215.539,6.09z M215.539,11.025h0.862c0.931,0.621,1.398,1.343,1.398,2.165
	c-0.264,0.838-0.732,1.451-1.398,1.84h-0.862c-0.931-0.622-1.395-1.343-1.395-2.166C214.407,12.026,214.873,11.414,215.539,11.025z
	 M215.539,15.961h0.862c0.931,0.605,1.398,1.319,1.398,2.142c-0.264,0.854-0.732,1.474-1.398,1.862h-0.862
	c-0.931-0.621-1.395-1.342-1.395-2.165C214.407,16.962,214.873,16.349,215.539,15.961z M215.539,20.896h0.862
	c0.931,0.605,1.398,1.32,1.398,2.142c-0.264,0.854-0.732,1.475-1.398,1.862h-0.862c-0.931-0.621-1.395-1.341-1.395-2.165
	C214.407,21.882,214.873,21.269,215.539,20.896z M215.539,25.807h0.862c0.931,0.621,1.398,1.345,1.398,2.167
	c-0.264,0.837-0.732,1.45-1.398,1.839h-0.862c-0.931-0.605-1.395-1.32-1.395-2.142C214.407,26.816,214.873,26.196,215.539,25.807z
	 M215.539,30.743h0.862c0.931,0.621,1.398,1.343,1.398,2.167c-0.264,0.835-0.732,1.45-1.398,1.839h-0.862
	c-0.931-0.621-1.395-1.345-1.395-2.167C214.407,31.745,214.873,31.132,215.539,30.743z"/>
<path fill="#2DB34A" d="M232.3,1.179h0.862c0.931,0.604,1.398,1.319,1.398,2.142c-0.249,0.854-0.716,1.474-1.398,1.862H232.3
	c-0.931-0.621-1.395-1.342-1.395-2.165C231.168,2.164,231.633,1.55,232.3,1.179z M232.3,6.09h0.862
	c0.931,0.621,1.398,1.343,1.398,2.166c-0.249,0.853-0.716,1.466-1.398,1.839H232.3c-0.931-0.605-1.395-1.32-1.395-2.142
	C231.168,7.099,231.633,6.478,232.3,6.09z M232.3,11.025h0.862c0.931,0.621,1.398,1.343,1.398,2.165
	c-0.249,0.838-0.716,1.451-1.398,1.84H232.3c-0.931-0.622-1.395-1.343-1.395-2.166C231.168,12.026,231.633,11.414,232.3,11.025z
	 M232.3,15.961h0.862c0.931,0.605,1.398,1.319,1.398,2.142c-0.249,0.854-0.716,1.474-1.398,1.862H232.3
	c-0.931-0.621-1.395-1.342-1.395-2.165C231.168,16.962,231.633,16.349,232.3,15.961z M232.3,20.896h0.862
	c0.931,0.605,1.398,1.32,1.398,2.142c-0.249,0.854-0.716,1.475-1.398,1.862H232.3c-0.931-0.621-1.395-1.341-1.395-2.165
	C231.168,21.882,231.633,21.269,232.3,20.896z M232.3,25.807h0.862c0.931,0.621,1.398,1.345,1.398,2.167
	c-0.249,0.837-0.716,1.45-1.398,1.839H232.3c-0.931-0.605-1.395-1.32-1.395-2.142C231.168,26.816,231.633,26.196,232.3,25.807z
	 M232.3,30.743h0.862c0.931,0.621,1.398,1.343,1.398,2.167c-0.249,0.835-0.716,1.45-1.398,1.839H232.3
	c-0.931-0.621-1.395-1.345-1.395-2.167C231.168,31.745,231.633,31.132,232.3,30.743z M236.537,6.09h0.839
	c0.946,0.621,1.421,1.343,1.421,2.166c-0.264,0.853-0.739,1.466-1.421,1.839h-0.839c-0.946-0.605-1.419-1.32-1.419-2.142
	C235.382,7.099,235.855,6.478,236.537,6.09z M240.751,11.025h0.862c0.931,0.621,1.396,1.343,1.396,2.165
	c-0.265,0.838-0.73,1.451-1.396,1.84h-0.862c-0.931-0.622-1.396-1.343-1.396-2.166C239.617,12.026,240.084,11.414,240.751,11.025z
	 M244.988,15.961h0.839c0.946,0.605,1.419,1.319,1.419,2.142c-0.264,0.854-0.737,1.474-1.419,1.862h-0.839
	c-0.946-0.621-1.421-1.342-1.421-2.165C243.832,16.962,244.307,16.349,244.988,15.961z M249.203,1.179h0.862
	c0.931,0.604,1.395,1.319,1.395,2.142c-0.264,0.854-0.728,1.474-1.395,1.862h-0.862c-0.931-0.621-1.398-1.342-1.398-2.165
	C248.053,2.164,248.519,1.55,249.203,1.179z M249.203,6.09h0.862c0.931,0.621,1.395,1.343,1.395,2.166
	c-0.264,0.853-0.728,1.466-1.395,1.839h-0.862c-0.931-0.605-1.398-1.32-1.398-2.142C248.053,7.099,248.519,6.478,249.203,6.09z
	 M249.203,11.025h0.862c0.931,0.621,1.395,1.343,1.395,2.165c-0.264,0.838-0.728,1.451-1.395,1.84h-0.862
	c-0.931-0.622-1.398-1.343-1.398-2.166C248.053,12.026,248.519,11.414,249.203,11.025z M249.203,15.961h0.862
	c0.931,0.605,1.395,1.319,1.395,2.142c-0.264,0.854-0.728,1.474-1.395,1.862h-0.862c-0.931-0.621-1.398-1.342-1.398-2.165
	C248.053,16.962,248.519,16.349,249.203,15.961z M249.203,20.896h0.862c0.931,0.605,1.395,1.32,1.395,2.142
	c-0.264,0.854-0.728,1.475-1.395,1.862h-0.862c-0.931-0.621-1.398-1.341-1.398-2.165C248.053,21.882,248.519,21.269,249.203,20.896z
	 M249.203,25.807h0.862c0.931,0.621,1.395,1.345,1.395,2.167c-0.264,0.837-0.728,1.45-1.395,1.839h-0.862
	c-0.931-0.605-1.398-1.32-1.398-2.142C248.053,26.816,248.519,26.196,249.203,25.807z M249.203,30.743h0.862
	c0.931,0.621,1.395,1.343,1.395,2.167c-0.264,0.835-0.728,1.45-1.395,1.839h-0.862c-0.931-0.621-1.398-1.345-1.398-2.167
	C248.053,31.745,248.519,31.132,249.203,30.743z"/>
</svg>
