<?xml version="1.0" encoding="utf-8"?>
<!-- Generator: Adobe Illustrator 16.0.4, SVG Export Plug-In . SVG Version: 6.00 Build 0)  -->
<!DOCTYPE svg PUBLIC "-//W3C//DTD SVG 1.1//EN" "http://www.w3.org/Graphics/SVG/1.1/DTD/svg11.dtd">
<svg version="1.1" id="Layer_1" xmlns="http://www.w3.org/2000/svg" xmlns:xlink="http://www.w3.org/1999/xlink" x="0px" y="0px"
	 width="223.595px" height="108.104px" viewBox="0 0 223.595 108.104" enable-background="new 0 0 223.595 108.104"
	 xml:space="preserve">
<path fill="#F48043" d="M7.951,4h2.435c2.632,1.711,3.948,3.729,3.948,6.055c-0.701,2.413-2.018,4.171-3.948,5.268H7.951
	C5.316,13.567,4,11.526,4,9.2C4.747,6.787,6.064,5.053,7.951,4z M19.929,4h2.37c2.678,1.711,4.016,3.729,4.016,6.055
	c-0.747,2.413-2.085,4.171-4.016,5.268h-2.37c-2.675-1.755-4.014-3.796-4.014-6.123C16.66,6.787,17.998,5.053,19.929,4z M31.844,4
	h2.435c2.632,1.711,3.948,3.729,3.948,6.055c-0.745,2.413-2.061,4.171-3.948,5.268h-2.435c-2.635-1.755-3.951-3.796-3.951-6.123
	C28.641,6.787,29.957,5.053,31.844,4z M31.844,17.89h2.435c2.632,1.755,3.948,3.794,3.948,6.12
	c-0.745,2.413-2.061,4.146-3.948,5.199h-2.435c-2.635-1.711-3.951-3.729-3.951-6.055C28.641,20.741,29.957,18.987,31.844,17.89z
	 M31.844,31.844h2.435c2.632,1.754,3.948,3.793,3.948,6.121c-0.745,2.369-2.061,4.102-3.948,5.199h-2.435
	c-2.635-1.755-3.951-3.797-3.951-6.121C28.641,34.674,29.957,32.941,31.844,31.844z M31.844,45.796h2.435
	c2.632,1.711,3.948,3.731,3.948,6.058c-0.745,2.41-2.061,4.165-3.948,5.265h-2.435c-2.635-1.755-3.951-3.797-3.951-6.121
	C28.641,48.628,29.957,46.893,31.844,45.796z M31.844,59.75h2.435c2.632,1.712,3.948,3.732,3.948,6.055
	c-0.745,2.416-2.061,4.171-3.948,5.271h-2.435c-2.635-1.755-3.951-3.803-3.951-6.126C28.641,62.54,29.957,60.807,31.844,59.75z
	 M31.844,73.643h2.435c2.632,1.755,3.948,3.792,3.948,6.121c-0.745,2.366-2.061,4.1-3.948,5.199h-2.435
	c-2.635-1.712-3.951-3.732-3.951-6.055C28.641,76.492,29.957,74.737,31.844,73.643z M31.844,87.595h2.435
	c2.632,1.755,3.948,3.792,3.948,6.12c-0.745,2.373-2.061,4.106-3.948,5.2h-2.435c-2.635-1.755-3.951-3.791-3.951-6.12
	C28.641,90.422,29.957,88.689,31.844,87.595z M43.822,4h2.369c2.679,1.711,4.016,3.729,4.016,6.055
	c-0.747,2.413-2.085,4.171-4.016,5.268h-2.369c-2.676-1.755-4.014-3.796-4.014-6.123C40.553,6.787,41.891,5.053,43.822,4z M55.737,4
	h2.435c2.633,1.711,3.949,3.729,3.949,6.055c-0.745,2.413-2.061,4.171-3.949,5.268h-2.435c-2.635-1.755-3.951-3.796-3.951-6.123
	C52.49,6.787,53.807,5.053,55.737,4z"/>
<path fill="#F48043" d="M103.128,4h2.435c2.632,1.711,3.954,3.729,3.954,6.055c-0.747,2.413-2.068,4.171-3.954,5.268h-2.435
	c-2.632-1.755-3.948-3.796-3.948-6.123C99.925,6.787,101.241,5.053,103.128,4z M103.128,17.89h2.435
	c2.632,1.755,3.954,3.794,3.954,6.12c-0.747,2.413-2.068,4.146-3.954,5.199h-2.435c-2.632-1.711-3.948-3.729-3.948-6.055
	C99.925,20.741,101.241,18.987,103.128,17.89z M103.128,31.844h2.435c2.632,1.754,3.954,3.793,3.954,6.121
	c-0.747,2.369-2.068,4.102-3.954,5.199h-2.435c-2.632-1.755-3.948-3.797-3.948-6.121C99.925,34.674,101.241,32.941,103.128,31.844z
	 M103.128,45.796h2.435c2.632,1.711,3.954,3.731,3.954,6.058c-0.747,2.41-2.068,4.165-3.954,5.265h-2.435
	c-2.632-1.755-3.948-3.797-3.948-6.121C99.925,48.628,101.241,46.893,103.128,45.796z M103.128,59.75h2.435
	c2.632,1.712,3.954,3.732,3.954,6.055c-0.747,2.416-2.068,4.171-3.954,5.271h-2.435c-2.632-1.755-3.948-3.803-3.948-6.126
	C99.925,62.54,101.241,60.807,103.128,59.75z M103.128,73.643h2.435c2.632,1.755,3.954,3.792,3.954,6.121
	c-0.747,2.366-2.068,4.1-3.954,5.199h-2.435c-2.632-1.712-3.948-3.732-3.948-6.055C99.925,76.492,101.241,74.737,103.128,73.643z
	 M103.128,87.595h2.435c2.632,1.755,3.954,3.792,3.954,6.12c-0.747,2.373-2.068,4.106-3.954,5.2h-2.435
	c-2.632-1.755-3.948-3.791-3.948-6.12C99.925,90.422,101.241,88.689,103.128,87.595z"/>
<path fill="#F48043" d="M150.517,4h2.438c2.632,1.711,3.954,3.729,3.954,6.055c-0.704,2.413-2.025,4.171-3.954,5.268h-2.438
	c-2.632-1.755-3.943-3.796-3.943-6.123C147.316,6.787,148.632,5.053,150.517,4z M150.517,17.89h2.438
	c2.632,1.755,3.954,3.794,3.954,6.12c-0.704,2.413-2.025,4.146-3.954,5.199h-2.438c-2.632-1.711-3.943-3.729-3.943-6.055
	C147.316,20.741,148.632,18.987,150.517,17.89z M150.517,31.844h2.438c2.632,1.754,3.954,3.793,3.954,6.121
	c-0.704,2.369-2.025,4.102-3.954,5.199h-2.438c-2.632-1.755-3.943-3.797-3.943-6.121C147.316,34.674,148.632,32.941,150.517,31.844z
	 M150.517,45.796h2.438c2.632,1.711,3.954,3.731,3.954,6.058c-0.704,2.41-2.025,4.165-3.954,5.265h-2.438
	c-2.632-1.755-3.943-3.797-3.943-6.121C147.316,48.628,148.632,46.893,150.517,45.796z M150.517,59.75h2.438
	c2.632,1.712,3.954,3.732,3.954,6.055c-0.704,2.416-2.025,4.171-3.954,5.271h-2.438c-2.632-1.755-3.943-3.803-3.943-6.126
	C147.316,62.54,148.632,60.807,150.517,59.75z M150.517,73.643h2.438c2.632,1.755,3.954,3.792,3.954,6.121
	c-0.704,2.366-2.025,4.1-3.954,5.199h-2.438c-2.632-1.712-3.943-3.732-3.943-6.055C147.316,76.492,148.632,74.737,150.517,73.643z
	 M150.517,87.595h2.438c2.632,1.755,3.954,3.792,3.954,6.12c-0.704,2.373-2.025,4.106-3.954,5.2h-2.438
	c-2.632-1.755-3.943-3.791-3.943-6.12C147.316,90.422,148.632,88.689,150.517,87.595z M162.497,4h2.372
	c2.676,1.711,4.014,3.729,4.014,6.055c-0.742,2.413-2.085,4.171-4.014,5.268h-2.372c-2.675-1.755-4.013-3.796-4.013-6.123
	C159.231,6.787,160.569,5.053,162.497,4z M162.497,45.796h2.372c2.676,1.711,4.014,3.731,4.014,6.058
	c-0.742,2.41-2.085,4.165-4.014,5.265h-2.372c-2.675-1.755-4.013-3.797-4.013-6.121C159.231,48.628,160.569,46.893,162.497,45.796z
	 M162.497,87.595h2.372c2.676,1.755,4.014,3.792,4.014,6.12c-0.742,2.373-2.085,4.106-4.014,5.2h-2.372
	c-2.675-1.755-4.013-3.791-4.013-6.12C159.231,90.422,160.569,88.689,162.497,87.595z M174.413,4h2.437
	c2.633,1.711,3.949,3.729,3.949,6.055c-0.748,2.413-2.064,4.171-3.949,5.268h-2.437c-2.632-1.755-3.948-3.796-3.948-6.123
	C171.206,6.787,172.528,5.053,174.413,4z M174.413,45.796h2.437c2.633,1.711,3.949,3.731,3.949,6.058
	c-0.748,2.41-2.064,4.165-3.949,5.265h-2.437c-2.632-1.755-3.948-3.797-3.948-6.121C171.206,48.628,172.528,46.893,174.413,45.796z
	 M174.413,87.595h2.437c2.633,1.755,3.949,3.792,3.949,6.12c-0.748,2.373-2.064,4.106-3.949,5.2h-2.437
	c-2.632-1.755-3.948-3.791-3.948-6.12C171.206,90.422,172.528,88.689,174.413,87.595z M186.393,4h2.373
	c2.675,1.711,4.013,3.729,4.013,6.055c-0.747,2.413-2.084,4.171-4.013,5.268h-2.373c-2.675-1.755-4.019-3.796-4.019-6.123
	C183.122,6.787,184.465,5.053,186.393,4z M186.393,45.796h2.373c2.675,1.711,4.013,3.731,4.013,6.058
	c-0.747,2.41-2.084,4.165-4.013,5.265h-2.373c-2.675-1.755-4.019-3.797-4.019-6.121C183.122,48.628,184.465,46.893,186.393,45.796z
	 M186.393,87.595h2.373c2.675,1.755,4.013,3.792,4.013,6.12c-0.747,2.373-2.084,4.106-4.013,5.2h-2.373
	c-2.675-1.755-4.019-3.791-4.019-6.12C183.122,90.422,184.465,88.689,186.393,87.595z M198.308,4h2.438
	c2.632,1.711,3.943,3.729,3.943,6.055c-0.747,2.413-2.058,4.171-3.943,5.268h-2.438c-2.632-1.755-3.954-3.796-3.954-6.123
	C195.059,6.787,196.375,5.053,198.308,4z M198.308,87.595h2.438c2.632,1.755,3.943,3.792,3.943,6.12
	c-0.747,2.373-2.058,4.106-3.943,5.2h-2.438c-2.632-1.755-3.954-3.791-3.954-6.12C195.059,90.422,196.375,88.689,198.308,87.595z"/>
</svg>
